{
.appVersion = "3151";
.formatVersion = 3;
customParameters = (
{
name = vendorID;
value = "1BOU";
},
{
name = panose;
value = (
0,
0,
9,
0,
0,
0,
0,
0,
0,
0
);
},
{
name = unicodeRanges;
value = (
0,
1,
2,
3,
5,
13,
31,
33,
35,
38,
45,
60,
63,
67
);
},
{
name = codePageRanges;
value = (
"1252",
"1256"
);
},
{
name = fsType;
value = (
);
},
{
name = glyphOrder;
value = (
.notdef,
uni000D,
space,
exclam,
quotedbl,
numbersign,
dollar,
percent,
ampersand,
quotesingle,
parenleft,
parenright,
asterisk,
plus,
comma,
hyphen,
period,
slash,
zero,
one,
two,
three,
four,
five,
six,
seven,
eight,
nine,
colon,
semicolon,
less,
equal,
greater,
question,
at,
A,
B,
C,
D,
E,
F,
G,
H,
I,
J,
K,
L,
M,
N,
O,
P,
Q,
R,
S,
T,
U,
V,
W,
X,
Y,
Z,
bracketleft,
backslash,
bracketright,
asciicircum,
underscore,
grave,
a,
b,
c,
d,
e,
f,
g,
h,
i,
j,
k,
l,
m,
n,
o,
p,
q,
r,
s,
t,
u,
v,
w,
x,
y,
z,
braceleft,
bar,
braceright,
asciitilde,
exclamdown,
cent,
sterling,
yen,
brokenbar,
section,
dieresis,
copyright,
ordfeminine,
guillemotleft,
uni00AD,
registered,
macron,
degree,
plusminus,
twosuperior,
threesuperior,
acute,
paragraph,
periodcentered,
cedilla,
onesuperior,
ordmasculine,
guillemotright,
onequarter,
onehalf,
threequarters,
questiondown,
Agrave,
Aacute,
Acircumflex,
Atilde,
Adieresis,
Aring,
AE,
Ccedilla,
Egrave,
Eacute,
Ecircumflex,
Edieresis,
Igrave,
Iacute,
Icircumflex,
Idieresis,
Eth,
Ntilde,
Ograve,
Oacute,
Ocircumflex,
Otilde,
Odieresis,
multiply,
Oslash,
Ugrave,
Uacute,
Ucircumflex,
Udieresis,
Yacute,
Thorn,
germandbls,
agrave,
aacute,
acircumflex,
atilde,
adieresis,
aring,
ae,
ccedilla,
egrave,
eacute,
ecircumflex,
edieresis,
igrave,
iacute,
icircumflex,
idieresis,
eth,
ntilde,
ograve,
oacute,
ocircumflex,
otilde,
odieresis,
divide,
oslash,
ugrave,
uacute,
ucircumflex,
udieresis,
yacute,
thorn,
ydieresis,
dotlessi,
Lslash,
lslash,
OE,
oe,
Scaron,
scaron,
Ydieresis,
Zcaron,
zcaron,
florin,
circumflex,
caron,
breve,
dotaccent,
ring,
ogonek,
tilde,
hungarumlaut,
uni03BC,
uni060C,

glyphs = (
{
glyphname = .notdef;
layers = (
{
layerId = m01;
shapes = (
{
closed = 1;
nodes = (
(458,-220,l),
(66,-220,l),
(66,511,l),
(458,511,l)
);
},
{
closed = 1;
nodes = (
(492,-254,l),
(492,545,l),
(31,545,l),
(31,-254,l)
);
},
{
closed = 1;
nodes = (
(286,-94,o),
(286,-80,qs),
(286,-65,o),
(266,-45,o),
(252,-45,qs),
(238,-45,o),
(219,-65,o),
(219,-80,qs),
(219,-94,o),
(238,-114,o),
(252,-114,qs),
(266,-114,o)
);
},
{
closed = 1;
nodes = (
(236,16,qs),
(269,16,ls),
(273,16,o),
(273,22,qs),
(273,55,ls),
(273,85,o),
(291,100,qs),
(352,149,o),
(369,168,qs),
(412,214,o),
(412,262,qs),
(412,326,o),
(376,362,qs),
(336,405,o),
(256,405,qs),
(199,405,o),
(146,378,qs),
(111,359,o),
(117,338,qs),
(121,324,ls),
(124,316,o),
(128,316,qs),
(133,316,o),
(139,322,q),
(196,361,o),
(257,361,qs),
(308,361,o),
(366,309,o),
(366,262,qs),
(366,209,o),
(306,160,qs),
(257,121,o),
(232,87,o),
(232,59,qs),
(232,22,ls),
(232,16,o)
);
}
);
userData = {
assembly = "NPUSHB[ ]	/* 94 values pushed */
51 20 2 9 7 1 76 0 7 6 9 6 7 9 128 0 9 5 6 9 5 126 0 2 10 1 1 8 2 1 103 0 8 0 6 7 8 6 105 0 5 11 1 4 0 5 4 105 0 0 3 3 0 87 0 0 0 3 95 0 3 0 3 79 9 8 0 0 54 53 41 39 34 32 30 28 15 13 8 19 9 19 7 6 5 4 0 3 0 3 17 12 6 23 
CALL[ ]	/* CallFunction */";
};
width = 524;
}
);
note = ".notdef";
},
{
glyphname = exclam;
layers = (
{
layerId = m01;
shapes = (
{
closed = 1;
nodes = (
(45,556,o),
(50,556,qs),
(55,556,ls),
(73,556,o),
(95,527,o),
(95,503,qs),
(91,141,ls),
(91,135,o),
(87,135,qs),
(52,135,ls),
(47,135,o),
(47,141,qs),
(45,549,ls)
);
},
{
closed = 1;
nodes = (
(111,44,o),
(111,27,qs),
(111,9,o),
(87,-16,o),
(70,-16,qs),
(53,-16,o),
(29,9,o),
(29,27,qs),
(29,44,o),
(53,69,o),
(70,69,qs),
(87,69,o)
);
}
);
userData = {
assembly = "NPUSHB[ ]	/* 42 values pushed */
5 0 2 0 1 1 76 0 0 0 1 97 0 1 1 39 77 4 1 2 2 3 97 0 3 3 46 3 78 14 13 20 18 13 24 14 24 53 18 5 9 24 
CALL[ ]	/* CallFunction */";
};
width = 141;
}
);
note = exclam;
unicode = 33;
},
{
glyphname = quotedbl;
layers = (
{
layerId = m01;
shapes = (
{
closed = 1;
nodes = (
(31,556,o),
(36,556,qs),
(43,556,ls),
(88,556,o),
(84,503,qs),
(76,388,ls),
(76,382,o),
(71,382,qs),
(49,382,ls),
(44,382,o),
(44,388,qs),
(31,549,ls)
);
},
{
closed = 1;
nodes = (
(130,556,o),
(135,556,qs),
(142,556,ls),
(187,556,o),
(183,503,qs),
(175,388,ls),
(175,382,o),
(170,382,qs),
(148,382,ls),
(143,382,o),
(143,388,qs),
(130,549,ls)
);
}
);
userData = {
assembly = "NPUSHB[ ]	/* 29 values pushed */
18 17 6 5 4 0 1 1 76 2 1 0 0 1 97 3 1 1 1 39 0 78 36 21 36 18 4 9 26 
CALL[ ]	/* CallFunction */";
};
width = 218;
}
);
note = quotedbl;
unicode = 34;
},
{
glyphname = numbersign;
layers = (
{
layerId = m01;
shapes = (
{
closed = 1;
nodes = (
(27,159,o),
(29,165,qs),
(37,198,ls),
(39,204,o),
(44,204,qs),
(118,204,l),
(155,352,l),
(83,352,ls),
(76,352,o),
(78,358,qs),
(86,391,ls),
(87,397,o),
(93,397,qs),
(167,397,l),
(206,549,l),
(206,550,ls),
(207,556,o),
(211,556,qs),
(220,556,ls),
(260,556,o),
(247,509,qs),
(219,397,l),
(376,397,l),
(415,549,l),
(415,550,ls),
(416,556,o),
(420,556,qs),
(429,556,ls),
(468,556,o),
(456,509,qs),
(427,397,l),
(500,397,ls),
(505,397,o),
(505,391,q),
(496,358,ls),
(495,352,o),
(490,352,qs),
(416,352,l),
(379,204,l),
(451,204,ls),
(458,204,o),
(456,198,qs),
(449,165,ls),
(447,159,o),
(441,159,qs),
(366,159,l),
(327,6,l),
(327,0,o),
(322,0,qs),
(281,0,ls),
(275,0,o),
(277,6,qs),
(315,159,l),
(158,159,l),
(119,6,ls),
(118,0,o),
(114,0,qs),
(73,0,ls),
(66,0,o),
(68,6,qs),
(106,159,l),
(34,159,ls)
);
},
{
closed = 1;
nodes = (
(364,352,l),
(208,352,l),
(170,204,l),
(327,204,l)
);
}
);
userData = {
assembly = "NPUSHB[ ]	/* 79 values pushed */
27 1 5 6 1 76 10 8 2 6 14 11 2 5 4 6 5 104 17 15 12 3 4 16 13 3 3 1 0 4 1 103 9 1 7 7 39 77 2 1 0 0 40 0 78 62 62 0 0 62 65 62 65 64 63 0 61 0 60 56 55 54 52 48 47 43 41 20 34 21 17 36 19 34 19 34 18 9 31 
CALL[ ]	/* CallFunction */";
};
width = 529;
}
);
note = numbersign;
unicode = 35;
},
{
glyphname = dollar;
layers = (
{
layerId = m01;
shapes = (
{
closed = 1;
nodes = (
(117,299,o),
(46,366,o),
(46,422,qs),
(46,476,o),
(84,514,qs),
(129,560,o),
(208,566,q),
(208,616,ls),
(208,622,o),
(213,622,qs),
(244,622,ls),
(249,622,o),
(249,616,qs),
(249,566,l),
(306,562,o),
(363,536,qs),
(404,515,o),
(398,489,qs),
(394,474,ls),
(392,466,o),
(387,466,qs),
(383,466,o),
(374,472,qs),
(317,511,o),
(249,518,q),
(249,300,l),
(341,268,o),
(409,206,o),
(409,155,qs),
(409,92,o),
(372,49,qs),
(329,0,o),
(249,-9,q),
(249,-59,ls),
(249,-65,o),
(244,-65,qs),
(213,-65,ls),
(208,-65,o),
(208,-59,qs),
(208,-11,l),
(137,-9,o),
(30,62,o),
(30,108,qs),
(30,127,o),
(42,127,qs),
(50,127,o),
(57,117,qs),
(116,38,o),
(208,36,q),
(208,268,l)
);
},
{
closed = 1;
nodes = (
(301,46,o),
(361,104,o),
(361,146,qs),
(361,181,o),
(310,229,o),
(249,253,q),
(249,39,l)
);
},
{
closed = 1;
nodes = (
(156,516,o),
(94,464,o),
(94,424,qs),
(94,387,o),
(146,338,o),
(208,315,q),
(208,519,l)
);
}
);
userData = {
assembly = "NPUSHB[ ]	/* 32 values pushed */
42 41 36 3 5 6 24 1 7 5 57 50 49 23 4 1 4 56 1 0 1 16 1 2 0 15 10 2 3 2 6 76 
MPPEM[ ]	/* MeasurePixelPerEm */
PUSHB[ ]	/* 1 value pushed */
49 
LT[ ]	/* LessThan */
IF[ ]	/* If */
NPUSHB[ ]	/* 48 values pushed */
0 6 5 6 133 0 7 5 4 5 7 4 128 0 4 1 5 4 1 126 0 1 0 5 1 0 126 0 3 2 3 134 0 5 5 39 77 0 0 0 2 97 0 2 2 46 2 78 
ELSE[ ]	/* Else */
NPUSHB[ ]	/* 41 values pushed */
0 6 5 6 133 0 5 7 5 133 0 7 4 7 133 0 4 1 4 133 0 1 0 1 133 0 3 2 3 134 0 0 0 2 97 0 2 2 46 2 78 
EIF[ ]	/* EndIf */
NPUSHB[ ]	/* 12 values pushed */
63 62 19 21 46 19 19 34 16 8 9 29 
CALL[ ]	/* CallFunction */";
};
width = 446;
}
);
note = dollar;
unicode = 36;
},
{
glyphname = percent;
layers = (
{
layerId = m01;
shapes = (
{
closed = 1;
nodes = (
(637,92,o),
(637,162,qs),
(637,232,o),
(598,297,o),
(555,297,qs),
(471,297,o),
(471,162,qs),
(471,93,o),
(511,29,o),
(555,29,qs),
(598,29,o)
);
},
{
closed = 1;
nodes = (
(249,324,o),
(249,394,qs),
(249,464,o),
(209,528,o),
(166,528,qs),
(123,528,o),
(83,464,o),
(83,394,qs),
(83,324,o),
(123,261,o),
(166,261,qs),
(210,261,o)
);
},
{
closed = 1;
nodes = (
(185,6,qs),
(484,549,l),
(487,556,o),
(491,556,qs),
(497,556,ls),
(515,556,o),
(522,527,o),
(509,503,qs),
(237,6,ls),
(234,0,o),
(229,0,qs),
(187,0,ls),
(182,0,o)
);
},
{
closed = 1;
nodes = (
(465,32,qs),
(427,77,o),
(427,162,qs),
(427,236,o),
(456,282,qs),
(491,335,o),
(555,335,qs),
(610,335,o),
(644,294,qs),
(682,247,o),
(682,162,qs),
(682,88,o),
(653,43,qs),
(619,-9,o),
(555,-9,qs),
(498,-9,o)
);
},
{
closed = 1;
nodes = (
(76,263,qs),
(38,309,o),
(38,394,qs),
(38,468,o),
(68,513,qs),
(103,567,o),
(166,567,qs),
(221,567,o),
(255,525,qs),
(293,479,o),
(293,394,qs),
(293,320,o),
(264,275,qs),
(231,223,o),
(166,223,qs),
(110,223,o)
);
}
);
userData = {
assembly = "MPPEM[ ]	/* MeasurePixelPerEm */
PUSHB[ ]	/* 1 value pushed */
36 
LT[ ]	/* LessThan */
IF[ ]	/* If */
NPUSHB[ ]	/* 52 values pushed */
0 7 0 1 2 7 1 106 11 1 2 14 1 8 0 2 8 105 0 5 5 39 77 0 3 3 9 97 0 9 9 39 77 12 1 4 4 40 77 10 1 0 0 6 97 13 1 6 6 49 6 78 
ELSE[ ]	/* Else */
NPUSHB[ ]	/* 50 values pushed */
0 9 0 3 7 9 3 105 0 7 0 1 2 7 1 106 11 1 2 14 1 8 0 2 8 105 0 5 5 39 77 12 1 4 4 40 77 10 1 0 0 6 97 13 1 6 6 49 6 78 
EIF[ ]	/* EndIf */
NPUSHB[ ]	/* 43 values pushed */
53 52 37 36 24 23 12 11 1 0 61 59 52 67 53 67 45 43 36 51 37 51 32 29 23 35 24 35 18 16 11 22 12 22 6 4 0 10 1 10 15 9 22 
CALL[ ]	/* CallFunction */";
};
width = 719;
}
);
note = percent;
unicode = 37;
},
{
glyphname = ampersand;
layers = (
{
layerId = m01;
shapes = (
{
closed = 1;
nodes = (
(436,290,o),
(447,290,qs),
(478,290,ls),
(486,290,o),
(482,283,qs),
(389,127,l),
(491,8,l),
(496,0,o),
(488,0,qs),
(449,0,ls),
(437,0,o),
(429,9,qs),
(364,86,l),
(295,-6,o),
(202,-6,qs),
(138,-6,o),
(94,31,qs),
(44,74,o),
(44,146,qs),
(44,196,o),
(102,271,o),
(169,309,q),
(128,354,o),
(95,414,o),
(95,446,qs),
(95,497,o),
(129,529,qs),
(167,567,o),
(234,567,qs),
(286,567,o),
(322,539,qs),
(365,507,o),
(365,453,qs),
(365,367,o),
(238,298,q),
(360,159,l),
(431,280,ls)
);
},
{
closed = 1;
nodes = (
(315,452,qs),
(315,482,o),
(269,522,o),
(234,522,qs),
(194,522,o),
(145,482,o),
(145,449,qs),
(145,401,o),
(212,331,q),
(315,385,o)
);
},
{
closed = 1;
nodes = (
(140,245,o),
(93,188,o),
(93,151,qs),
(93,103,o),
(119,73,qs),
(149,40,o),
(205,40,qs),
(244,40,o),
(302,74,o),
(335,117,q),
(197,276,l)
);
}
);
userData = {
assembly = "NPUSHB[ ]	/* 13 values pushed */
14 1 2 3 4 57 30 23 3 5 3 2 76 
MPPEM[ ]	/* MeasurePixelPerEm */
PUSHB[ ]	/* 1 value pushed */
10 
LT[ ]	/* LessThan */
IF[ ]	/* If */
NPUSHB[ ]	/* 33 values pushed */
0 4 4 0 97 0 0 0 39 77 0 3 3 1 97 2 1 1 1 49 77 0 5 5 1 97 2 1 1 1 49 1 78 
ELSE[ ]	/* Else */
MPPEM[ ]	/* MeasurePixelPerEm */
PUSHB[ ]	/* 1 value pushed */
12 
LT[ ]	/* LessThan */
IF[ ]	/* If */
NPUSHB[ ]	/* 33 values pushed */
0 4 4 0 97 0 0 0 39 77 0 3 3 1 97 2 1 1 1 46 77 0 5 5 1 97 2 1 1 1 46 1 78 
ELSE[ ]	/* Else */
MPPEM[ ]	/* MeasurePixelPerEm */
PUSHB[ ]	/* 1 value pushed */
32 
LT[ ]	/* LessThan */
IF[ ]	/* If */
NPUSHB[ ]	/* 33 values pushed */
0 4 4 0 97 0 0 0 39 77 0 3 3 1 97 2 1 1 1 49 77 0 5 5 1 97 2 1 1 1 49 1 78 
ELSE[ ]	/* Else */
MPPEM[ ]	/* MeasurePixelPerEm */
PUSHB[ ]	/* 1 value pushed */
36 
LT[ ]	/* LessThan */
IF[ ]	/* If */
NPUSHB[ ]	/* 31 values pushed */
0 4 4 0 97 0 0 0 39 77 0 3 3 2 97 0 2 2 40 77 0 5 5 1 97 0 1 1 49 1 78 
ELSE[ ]	/* Else */
NPUSHB[ ]	/* 29 values pushed */
0 0 0 4 3 0 4 105 0 3 3 2 97 0 2 2 40 77 0 5 5 1 97 0 1 1 49 1 78 
EIF[ ]	/* EndIf */
EIF[ ]	/* EndIf */
EIF[ ]	/* EndIf */
EIF[ ]	/* EndIf */
NPUSHB[ ]	/* 9 values pushed */
38 38 52 51 44 38 6 9 28 
CALL[ ]	/* CallFunction */";
};
width = 518;
}
);
note = ampersand;
unicode = 38;
},
{
glyphname = quotesingle;
layers = (
{
layerId = m01;
shapes = (
{
closed = 1;
nodes = (
(31,556,o),
(36,556,qs),
(43,556,ls),
(88,556,o),
(84,503,qs),
(76,388,ls),
(76,382,o),
(71,382,qs),
(49,382,ls),
(44,382,o),
(44,388,qs),
(31,549,ls)
);
}
);
userData = {
assembly = "NPUSHB[ ]	/* 23 values pushed */
6 5 2 0 1 1 76 0 0 0 1 97 0 1 1 39 0 78 36 18 2 9 24 
CALL[ ]	/* CallFunction */";
};
width = 118;
}
);
note = quotesingle;
unicode = 39;
},
{
glyphname = parenleft;
layers = (
{
layerId = m01;
shapes = (
{
closed = 1;
nodes = (
(112,533,qs),
(165,649,o),
(255,697,qs),
(264,701,o),
(264,691,qs),
(264,670,o),
(256,650,o),
(241,634,qs),
(110,508,o),
(112,277,qs),
(110,45,o),
(241,-81,qs),
(256,-97,o),
(264,-117,o),
(264,-138,qs),
(264,-148,o),
(255,-144,qs),
(177,-102,o),
(126,-8,qs),
(60,112,o),
(62,277,qs),
(61,421,o)
);
}
);
userData = {
assembly = "PUSHB[ ]	/* 4 values pushed */
17 5 1 50 
CALL[ ]	/* CallFunction */";
};
width = 314;
}
);
note = parenleft;
unicode = 40;
},
{
glyphname = parenright;
layers = (
{
layerId = m01;
shapes = (
{
closed = 1;
nodes = (
(205,20,qs),
(152,-95,o),
(61,-144,qs),
(52,-148,o),
(52,-138,qs),
(52,-117,o),
(60,-97,o),
(76,-81,qs),
(207,45,o),
(204,277,qs),
(207,508,o),
(76,634,qs),
(60,650,o),
(52,670,o),
(52,691,qs),
(52,701,o),
(61,697,qs),
(139,655,o),
(191,561,qs),
(256,441,o),
(255,277,qs),
(256,132,o)
);
}
);
userData = {
assembly = "PUSHB[ ]	/* 4 values pushed */
17 5 1 50 
CALL[ ]	/* CallFunction */";
};
width = 314;
}
);
note = parenright;
unicode = 41;
},
{
glyphname = asterisk;
layers = (
{
layerId = m01;
shapes = (
{
closed = 1;
nodes = (
(34,416,o),
(36,423,qs),
(51,466,ls),
(52,470,o),
(57,469,q),
(147,432,l),
(140,533,ls),
(140,538,o),
(145,538,qs),
(198,538,ls),
(204,538,o),
(204,533,qs),
(197,432,l),
(286,469,l),
(291,470,o),
(293,466,q),
(307,423,ls),
(309,416,o),
(304,414,qs),
(210,388,l),
(271,310,ls),
(274,306,o),
(269,303,qs),
(231,280,ls),
(226,277,o),
(224,281,qs),
(170,368,l),
(120,281,ls),
(118,277,o),
(114,280,q),
(113,280,l),
(75,303,l),
(70,305,o),
(73,310,q),
(134,388,l),
(40,414,ls)
);
}
);
userData = {
assembly = "NPUSHB[ ]	/* 12 values pushed */
30 29 28 23 22 21 15 11 8 9 0 73 
MPPEM[ ]	/* MeasurePixelPerEm */
PUSHB[ ]	/* 1 value pushed */
23 
LT[ ]	/* LessThan */
IF[ ]	/* If */
PUSHB[ ]	/* 6 values pushed */
0 0 0 39 0 78 
ELSE[ ]	/* Else */
PUSHB[ ]	/* 4 values pushed */
0 0 0 118 
EIF[ ]	/* EndIf */
PUSHB[ ]	/* 5 values pushed */
26 25 1 9 22 
CALL[ ]	/* CallFunction */";
};
width = 341;
}
);
note = asterisk;
unicode = 42;
},
{
glyphname = plus;
layers = (
{
layerId = m01;
shapes = (
{
closed = 1;
nodes = (
(41,249,o),
(41,255,qs),
(41,289,ls),
(41,295,o),
(46,295,qs),
(169,295,l),
(169,437,ls),
(169,443,o),
(174,443,qs),
(215,443,o),
(215,397,qs),
(215,295,l),
(339,295,ls),
(344,295,o),
(344,289,qs),
(344,255,ls),
(344,249,o),
(339,249,qs),
(215,249,l),
(215,107,ls),
(215,101,o),
(210,101,qs),
(174,101,ls),
(169,101,o),
(169,107,qs),
(169,249,l),
(46,249,ls)
);
}
);
userData = {
assembly = "NPUSHB[ ]	/* 59 values pushed */
19 1 2 3 24 23 11 10 4 1 2 6 1 2 0 1 3 76 0 3 2 0 3 89 4 1 2 6 5 2 1 0 2 1 103 0 3 3 0 95 0 0 3 0 79 0 0 0 26 0 26 19 18 21 19 19 7 9 27 
CALL[ ]	/* CallFunction */";
};
width = 384;
}
);
note = plus;
unicode = 43;
},
{
glyphname = comma;
layers = (
{
layerId = m01;
shapes = (
{
closed = 1;
nodes = (
(116,43,o),
(116,24,qs),
(116,-7,o),
(79,-75,o),
(47,-101,q),
(46,-103,o),
(42,-100,qs),
(27,-86,o),
(45,-61,qs),
(64,-34,o),
(69,-16,q),
(53,-13,o),
(34,11,o),
(34,26,qs),
(34,43,o),
(58,68,o),
(75,68,qs),
(92,68,o)
);
}
);
userData = {
assembly = "NPUSHB[ ]	/* 18 values pushed */
6 1 0 73 1 1 0 0 118 1 0 0 17 1 17 2 9 22 
CALL[ ]	/* CallFunction */";
};
width = 137;
}
);
note = comma;
unicode = 44;
},
{
glyphname = hyphen;
layers = (
{
layerId = m01;
shapes = (
{
closed = 1;
nodes = (
(41,186,qs),
(41,221,ls),
(41,227,o),
(46,227,qs),
(260,227,ls),
(265,227,o),
(265,221,qs),
(265,186,ls),
(265,180,o),
(260,180,qs),
(46,180,ls),
(41,180,o)
);
}
);
userData = {
assembly = "NPUSHB[ ]	/* 30 values pushed */
10 9 4 3 4 0 1 1 76 0 1 0 0 1 87 0 1 1 0 95 0 0 1 0 79 21 16 2 9 24 
CALL[ ]	/* CallFunction */";
};
width = 305;
}
);
note = hyphen;
unicode = 45;
},
{
glyphname = period;
layers = (
{
layerId = m01;
shapes = (
{
closed = 1;
nodes = (
(109,44,o),
(109,27,qs),
(109,9,o),
(85,-16,o),
(68,-16,qs),
(51,-16,o),
(27,9,o),
(27,27,qs),
(27,44,o),
(51,69,o),
(68,69,qs),
(85,69,o)
);
}
);
userData = {
assembly = "NPUSHB[ ]	/* 23 values pushed */
2 1 0 0 1 97 0 1 1 46 1 78 1 0 7 5 0 11 1 11 3 9 22 
CALL[ ]	/* CallFunction */";
};
width = 137;
}
);
note = period;
unicode = 46;
},
{
glyphname = slash;
layers = (
{
layerId = m01;
shapes = (
{
closed = 1;
nodes = (
(4,6,qs),
(234,549,ls),
(237,556,o),
(241,556,qs),
(247,556,ls),
(265,556,o),
(275,527,o),
(266,503,qs),
(56,6,ls),
(53,0,o),
(48,0,qs),
(6,0,ls),
(1,0,o)
);
}
);
userData = {
assembly = "NPUSHB[ ]	/* 23 values pushed */
0 1 1 39 77 2 1 0 0 40 0 78 1 0 9 6 0 12 1 12 3 9 22 
CALL[ ]	/* CallFunction */";
};
width = 271;
}
);
note = slash;
unicode = 47;
},
{
glyphname = zero;
layers = (
{
layerId = m01;
shapes = (
{
closed = 1;
nodes = (
(348,81,qs),
(394,138,o),
(394,277,qs),
(394,401,o),
(359,460,qs),
(324,519,o),
(250,519,qs),
(185,519,o),
(150,475,qs),
(105,417,o),
(105,277,qs),
(105,154,o),
(141,95,qs),
(176,37,o),
(250,37,qs),
(314,37,o)
);
},
{
closed = 1;
nodes = (
(55,277,qs),
(55,410,o),
(99,483,qs),
(149,567,o),
(250,567,qs),
(337,567,o),
(387,503,qs),
(444,428,o),
(444,277,qs),
(444,-10,o),
(250,-10,qs),
(55,-10,o)
);
}
);
userData = {
assembly = "MPPEM[ ]	/* MeasurePixelPerEm */
PUSHB[ ]	/* 1 value pushed */
36 
LT[ ]	/* LessThan */
IF[ ]	/* If */
NPUSHB[ ]	/* 23 values pushed */
0 1 1 3 97 0 3 3 39 77 4 1 0 0 2 97 5 1 2 2 46 2 78 
ELSE[ ]	/* Else */
NPUSHB[ ]	/* 21 values pushed */
0 3 0 1 0 3 1 105 4 1 0 0 2 97 5 1 2 2 46 2 78 
EIF[ ]	/* EndIf */
NPUSHB[ ]	/* 19 values pushed */
17 16 1 0 23 21 16 27 17 27 9 7 0 15 1 15 6 9 22 
CALL[ ]	/* CallFunction */";
};
width = 498;
}
);
note = zero;
unicode = 48;
},
{
glyphname = one;
layers = (
{
layerId = m01;
shapes = (
{
closed = 1;
nodes = (
(48,471,ls),
(43,469,o),
(43,474,qs),
(43,513,ls),
(43,522,o),
(50,524,qs),
(113,547,ls),
(138,556,o),
(159,556,qs),
(167,556,ls),
(203,556,o),
(203,508,qs),
(203,47,l),
(284,47,ls),
(314,47,o),
(314,18,qs),
(314,7,ls),
(314,0,o),
(305,0,qs),
(46,0,ls),
(41,0,o),
(41,6,qs),
(41,41,ls),
(41,47,o),
(46,47,qs),
(152,47,l),
(152,509,l)
);
}
);
userData = {
assembly = "NPUSHB[ ]	/* 36 values pushed */
26 23 2 0 3 4 3 2 1 0 2 76 0 3 3 39 77 2 1 0 0 1 95 0 1 1 40 1 78 50 35 37 16 4 9 26 
CALL[ ]	/* CallFunction */";
};
width = 340;
}
);
note = one;
unicode = 49;
},
{
glyphname = two;
layers = (
{
layerId = m01;
shapes = (
{
closed = 1;
nodes = (
(381,47,o),
(381,18,qs),
(381,7,ls),
(381,0,o),
(374,0,qs),
(47,0,ls),
(42,0,o),
(42,6,qs),
(42,90,o),
(92,151,qs),
(123,188,o),
(200,240,qs),
(277,293,o),
(329,361,o),
(329,409,qs),
(329,458,o),
(301,487,qs),
(269,519,o),
(208,519,qs),
(142,519,o),
(76,472,qs),
(68,466,o),
(63,466,qs),
(59,466,o),
(56,474,qs),
(51,489,ls),
(44,513,o),
(83,533,qs),
(145,567,o),
(211,567,qs),
(286,567,o),
(330,530,qs),
(379,489,o),
(379,409,qs),
(379,342,o),
(331,288,qs),
(302,256,o),
(227,205,qs),
(152,154,o),
(98,89,o),
(95,47,q),
(351,47,ls)
);
}
);
userData = {
assembly = "PUSHB[ ]	/* 6 values pushed */
33 1 3 4 1 76 
MPPEM[ ]	/* MeasurePixelPerEm */
PUSHB[ ]	/* 1 value pushed */
36 
LT[ ]	/* LessThan */
IF[ ]	/* If */
NPUSHB[ ]	/* 30 values pushed */
0 1 2 4 2 1 4 128 0 2 2 0 97 0 0 0 39 77 5 1 4 4 3 95 0 3 3 40 3 78 
ELSE[ ]	/* Else */
NPUSHB[ ]	/* 28 values pushed */
0 1 2 4 2 1 4 128 0 0 0 2 1 0 2 105 5 1 4 4 3 95 0 3 3 40 3 78 
EIF[ ]	/* EndIf */
NPUSHB[ ]	/* 13 values pushed */
0 0 0 41 0 40 44 34 37 42 6 9 26 
CALL[ ]	/* CallFunction */";
};
width = 436;
}
);
note = two;
unicode = 50;
},
{
glyphname = three;
layers = (
{
layerId = m01;
shapes = (
{
closed = 1;
nodes = (
(342,259,qs),
(388,219,o),
(388,151,qs),
(388,85,o),
(344,41,qs),
(292,-10,o),
(205,-10,qs),
(136,-10,o),
(29,60,o),
(29,106,qs),
(29,125,o),
(41,125,qs),
(48,125,o),
(55,115,qs),
(109,37,o),
(201,37,qs),
(258,37,o),
(295,65,qs),
(337,97,o),
(337,151,qs),
(337,209,o),
(296,240,qs),
(257,270,o),
(192,270,qs),
(140,270,ls),
(110,270,o),
(110,298,qs),
(110,308,ls),
(110,316,o),
(118,316,qs),
(206,316,ls),
(322,316,o),
(322,419,qs),
(322,519,o),
(199,519,qs),
(134,519,o),
(67,472,qs),
(58,466,o),
(54,466,qs),
(50,466,o),
(47,474,qs),
(42,489,ls),
(38,502,o),
(51,520,o),
(74,533,qs),
(132,567,o),
(199,567,qs),
(274,567,o),
(319,533,qs),
(372,494,o),
(372,423,qs),
(372,324,o),
(276,291,q),
(312,286,o)
);
}
);
userData = {
assembly = "MPPEM[ ]	/* MeasurePixelPerEm */
PUSHB[ ]	/* 1 value pushed */
36 
LT[ ]	/* LessThan */
IF[ ]	/* If */
NPUSHB[ ]	/* 45 values pushed */
0 1 2 3 2 1 3 128 0 6 4 5 4 6 5 128 0 3 0 4 6 3 4 105 0 2 2 0 97 0 0 0 39 77 0 5 5 7 97 0 7 7 46 7 78 
ELSE[ ]	/* Else */
NPUSHB[ ]	/* 43 values pushed */
0 1 2 3 2 1 3 128 0 6 4 5 4 6 5 128 0 0 0 2 1 0 2 105 0 3 0 4 6 3 4 105 0 5 5 7 97 0 7 7 46 7 78 
EIF[ ]	/* EndIf */
NPUSHB[ ]	/* 11 values pushed */
35 34 38 51 50 34 38 37 8 9 30 
CALL[ ]	/* CallFunction */";
};
width = 434;
}
);
note = three;
unicode = 51;
},
{
glyphname = four;
layers = (
{
layerId = m01;
shapes = (
{
closed = 1;
nodes = (
(19,139,o),
(19,145,qs),
(19,171,ls),
(19,187,o),
(29,202,qs),
(259,539,ls),
(270,556,o),
(286,556,qs),
(300,556,ls),
(332,556,o),
(332,518,qs),
(332,186,l),
(376,186,ls),
(406,186,o),
(406,157,qs),
(406,146,ls),
(406,139,o),
(398,139,qs),
(332,139,l),
(332,6,ls),
(332,0,o),
(327,0,qs),
(286,0,ls),
(281,0,o),
(281,6,qs),
(281,139,l),
(24,139,ls)
);
},
{
closed = 1;
nodes = (
(281,498,l),
(70,186,l),
(281,186,l)
);
}
);
userData = {
assembly = "NPUSHB[ ]	/* 57 values pushed */
28 1 2 3 24 1 1 2 6 1 2 0 1 3 76 7 5 2 2 6 4 2 1 0 2 1 104 0 3 3 39 77 0 0 0 40 0 78 27 27 0 0 27 29 27 29 0 26 0 26 50 35 35 19 8 9 26 
CALL[ ]	/* CallFunction */";
};
width = 433;
}
);
note = four;
unicode = 52;
},
{
glyphname = five;
layers = (
{
layerId = m01;
shapes = (
{
closed = 1;
nodes = (
(170,344,o),
(216,344,qs),
(292,344,o),
(339,303,qs),
(392,257,o),
(392,172,qs),
(392,97,o),
(346,47,qs),
(293,-10,o),
(205,-10,qs),
(133,-10,o),
(84,26,qs),
(34,63,o),
(34,106,qs),
(34,125,o),
(47,125,qs),
(53,125,o),
(60,115,qs),
(113,37,o),
(201,37,qs),
(260,37,o),
(298,69,qs),
(341,106,o),
(341,168,qs),
(341,298,o),
(214,298,qs),
(146,298,o),
(72,270,q),
(62,265,o),
(62,276,qs),
(62,549,ls),
(62,556,o),
(67,556,qs),
(329,556,ls),
(359,556,o),
(359,527,qs),
(359,516,ls),
(359,508,o),
(351,508,qs),
(112,508,l),
(112,329,l)
);
}
);
userData = {
assembly = "NPUSHB[ ]	/* 10 values pushed */
9 1 0 1 40 1 2 6 2 76 
MPPEM[ ]	/* MeasurePixelPerEm */
PUSHB[ ]	/* 1 value pushed */
25 
LT[ ]	/* LessThan */
IF[ ]	/* If */
NPUSHB[ ]	/* 39 values pushed */
0 4 2 3 2 4 3 128 0 0 0 1 95 0 1 1 39 77 0 2 2 6 97 0 6 6 42 77 0 3 3 5 97 0 5 5 46 5 78 
ELSE[ ]	/* Else */
NPUSHB[ ]	/* 37 values pushed */
0 4 2 3 2 4 3 128 0 6 0 2 4 6 2 105 0 0 0 1 95 0 1 1 39 77 0 3 3 5 97 0 5 5 46 5 78 
EIF[ ]	/* EndIf */
NPUSHB[ ]	/* 10 values pushed */
38 36 34 36 38 35 32 7 9 29 
CALL[ ]	/* CallFunction */";
};
width = 439;
}
);
note = five;
unicode = 53;
},
{
glyphname = six;
layers = (
{
layerId = m01;
shapes = (
{
closed = 1;
nodes = (
(243,348,qs),
(309,348,o),
(355,304,qs),
(409,254,o),
(409,174,qs),
(409,92,o),
(363,43,qs),
(314,-10,o),
(228,-10,qs),
(155,-10,o),
(106,33,qs),
(48,83,o),
(48,167,qs),
(48,207,o),
(73,279,o),
(109,340,qs),
(241,558,ls),
(247,567,o),
(253,567,qs),
(270,567,o),
(275,549,qs),
(282,528,o),
(264,497,qs),
(162,328,l),
(197,348,o)
);
},
{
closed = 1;
nodes = (
(320,70,qs),
(358,106,o),
(358,169,qs),
(358,223,o),
(328,258,qs),
(293,301,o),
(229,301,qs),
(175,301,o),
(139,269,qs),
(98,232,o),
(98,169,qs),
(98,114,o),
(128,79,qs),
(163,37,o),
(229,37,qs),
(285,37,o)
);
}
);
userData = {
assembly = "MPPEM[ ]	/* MeasurePixelPerEm */
PUSHB[ ]	/* 1 value pushed */
34 
LT[ ]	/* LessThan */
IF[ ]	/* If */
NPUSHB[ ]	/* 27 values pushed */
0 0 0 39 77 0 4 4 2 97 0 2 2 42 77 5 1 3 3 1 97 0 1 1 46 1 78 
ELSE[ ]	/* Else */
MPPEM[ ]	/* MeasurePixelPerEm */
PUSHB[ ]	/* 1 value pushed */
36 
LT[ ]	/* LessThan */
IF[ ]	/* If */
NPUSHB[ ]	/* 25 values pushed */
0 2 0 4 3 2 4 106 0 0 0 39 77 5 1 3 3 1 97 0 1 1 46 1 78 
ELSE[ ]	/* Else */
NPUSHB[ ]	/* 25 values pushed */
0 0 2 0 133 0 2 0 4 3 2 4 106 5 1 3 3 1 97 0 1 1 46 1 78 
EIF[ ]	/* EndIf */
EIF[ ]	/* EndIf */
NPUSHB[ ]	/* 14 values pushed */
26 25 34 32 25 40 26 40 38 41 20 6 9 25 
CALL[ ]	/* CallFunction */";
};
width = 449;
}
);
note = six;
unicode = 54;
},
{
glyphname = seven;
layers = (
{
layerId = m01;
shapes = (
{
closed = 1;
nodes = (
(31,508,o),
(31,514,qs),
(31,549,ls),
(31,556,o),
(36,556,qs),
(352,556,ls),
(382,556,o),
(382,527,qs),
(382,518,ls),
(382,499,o),
(372,478,qs),
(155,11,ls),
(150,0,o),
(139,0,qs),
(100,0,ls),
(94,0,o),
(96,6,q),
(330,508,l),
(36,508,ls)
);
}
);
userData = {
assembly = "NPUSHB[ ]	/* 35 values pushed */
16 15 2 2 1 1 76 3 1 2 2 1 95 0 1 1 39 77 0 0 0 40 0 78 0 0 0 18 0 18 38 50 4 9 24 
CALL[ ]	/* CallFunction */";
};
width = 427;
}
);
note = seven;
unicode = 55;
},
{
glyphname = eight;
layers = (
{
layerId = m01;
shapes = (
{
closed = 1;
nodes = (
(123,71,qs),
(158,36,o),
(223,36,qs),
(278,36,o),
(313,63,qs),
(354,95,o),
(354,153,qs),
(354,204,o),
(318,238,qs),
(280,274,o),
(223,274,qs),
(173,274,o),
(137,246,qs),
(92,212,o),
(92,153,qs),
(92,102,o)
);
},
{
closed = 1;
nodes = (
(136,351,qs),
(169,319,o),
(223,319,qs),
(272,319,o),
(337,375,o),
(337,418,qs),
(337,463,o),
(307,490,qs),
(275,519,o),
(223,519,qs),
(171,519,o),
(108,464,o),
(108,418,qs),
(108,379,o)
);
},
{
closed = 1;
nodes = (
(60,424,qs),
(60,484,o),
(103,524,qs),
(149,567,o),
(223,567,qs),
(286,567,o),
(331,533,qs),
(385,493,o),
(385,424,qs),
(385,334,o),
(294,297,q),
(346,279,o),
(404,203,o),
(404,153,qs),
(404,85,o),
(361,40,qs),
(310,-11,o),
(223,-11,qs),
(146,-11,o),
(97,29,qs),
(41,74,o),
(41,153,qs),
(41,203,o),
(99,279,o),
(151,297,q),
(60,334,o)
);
}
);
userData = {
assembly = "PUSHB[ ]	/* 6 values pushed */
44 1 0 3 1 76 
MPPEM[ ]	/* MeasurePixelPerEm */
PUSHB[ ]	/* 1 value pushed */
36 
LT[ ]	/* LessThan */
IF[ ]	/* If */
NPUSHB[ ]	/* 29 values pushed */
0 3 0 0 1 3 0 105 0 2 2 5 97 0 5 5 39 77 0 1 1 4 97 0 4 4 46 4 78 
ELSE[ ]	/* Else */
NPUSHB[ ]	/* 27 values pushed */
0 5 0 2 3 5 2 105 0 3 0 0 1 3 0 105 0 1 1 4 97 0 4 4 46 4 78 
EIF[ ]	/* EndIf */
NPUSHB[ ]	/* 9 values pushed */
43 41 37 37 38 35 6 9 28 
CALL[ ]	/* CallFunction */";
};
width = 446;
}
);
note = eight;
unicode = 56;
},
{
glyphname = nine;
layers = (
{
layerId = m01;
shapes = (
{
closed = 1;
nodes = (
(212,209,qs),
(144,209,o),
(97,251,qs),
(41,300,o),
(41,383,qs),
(41,463,o),
(88,513,qs),
(139,567,o),
(225,567,qs),
(297,567,o),
(345,524,qs),
(402,474,o),
(402,389,qs),
(402,349,o),
(376,277,o),
(340,217,qs),
(209,-1,l),
(205,-10,o),
(196,-10,qs),
(177,-10,o),
(170,32,o),
(185,58,qs),
(289,232,l),
(258,209,o)
);
},
{
closed = 1;
nodes = (
(310,288,qs),
(350,325,o),
(350,388,qs),
(350,443,o),
(322,478,qs),
(288,519,o),
(224,519,qs),
(167,519,o),
(131,487,qs),
(92,450,o),
(92,388,qs),
(92,330,o),
(121,296,qs),
(156,256,o),
(220,256,qs),
(274,256,o)
);
}
);
userData = {
assembly = "MPPEM[ ]	/* MeasurePixelPerEm */
PUSHB[ ]	/* 1 value pushed */
36 
LT[ ]	/* LessThan */
IF[ ]	/* If */
NPUSHB[ ]	/* 25 values pushed */
5 1 3 0 2 0 3 2 105 0 4 4 1 97 0 1 1 39 77 0 0 0 46 0 78 
ELSE[ ]	/* Else */
NPUSHB[ ]	/* 23 values pushed */
0 1 0 4 3 1 4 105 5 1 3 0 2 0 3 2 105 0 0 0 46 0 78 
EIF[ ]	/* EndIf */
NPUSHB[ ]	/* 14 values pushed */
25 24 33 31 24 39 25 39 38 40 35 6 9 25 
CALL[ ]	/* CallFunction */";
};
width = 449;
}
);
note = nine;
unicode = 57;
},
{
glyphname = colon;
layers = (
{
layerId = m01;
shapes = (
{
closed = 1;
nodes = (
(119,264,o),
(119,247,qs),
(119,229,o),
(95,204,o),
(78,204,qs),
(61,204,o),
(37,229,o),
(37,247,qs),
(37,264,o),
(61,289,o),
(78,289,qs),
(95,289,o)
);
},
{
closed = 1;
nodes = (
(119,44,o),
(119,27,qs),
(119,9,o),
(95,-16,o),
(78,-16,qs),
(61,-16,o),
(37,9,o),
(37,27,qs),
(37,44,o),
(61,69,o),
(78,69,qs),
(95,69,o)
);
}
);
userData = {
assembly = "NPUSHB[ ]	/* 40 values pushed */
4 1 0 0 1 2 0 1 105 5 1 2 2 3 97 0 3 3 46 3 78 13 12 1 0 19 17 12 23 13 23 7 5 0 11 1 11 6 9 22 
CALL[ ]	/* CallFunction */";
};
width = 157;
}
);
note = colon;
unicode = 58;
},
{
glyphname = semicolon;
layers = (
{
layerId = m01;
shapes = (
{
closed = 1;
nodes = (
(44,229,o),
(44,246,qs),
(44,264,o),
(68,288,o),
(85,288,qs),
(102,288,o),
(126,263,o),
(126,246,qs),
(126,229,o),
(101,204,o),
(85,204,qs),
(68,204,o)
);
},
{
closed = 1;
nodes = (
(126,43,o),
(126,24,qs),
(126,-7,o),
(89,-75,o),
(57,-101,q),
(56,-103,o),
(52,-100,qs),
(37,-86,o),
(55,-61,qs),
(74,-34,o),
(79,-16,q),
(63,-13,o),
(44,11,o),
(44,26,qs),
(44,43,o),
(68,68,o),
(85,68,qs),
(102,68,o)
);
}
);
userData = {
assembly = "NPUSHB[ ]	/* 44 values pushed */
18 1 2 73 4 1 2 0 2 134 0 1 0 0 1 89 0 1 1 0 97 3 1 0 1 0 81 13 12 1 0 12 29 13 29 7 5 0 11 1 11 5 9 22 
CALL[ ]	/* CallFunction */";
};
width = 157;
}
);
note = semicolon;
unicode = 59;
},
{
glyphname = less;
layers = (
{
layerId = m01;
shapes = (
{
closed = 1;
nodes = (
(400,154,o),
(400,115,qs),
(400,108,ls),
(400,99,o),
(394,102,qs),
(46,246,ls),
(41,248,o),
(41,254,qs),
(41,287,ls),
(41,292,o),
(46,295,q),
(394,438,ls),
(400,441,o),
(400,433,qs),
(400,398,ls),
(400,387,o),
(387,381,qs),
(110,272,l),
(364,169,ls)
);
}
);
userData = {
assembly = "PUSHB[ ]	/* 4 values pushed */
14 5 1 50 
CALL[ ]	/* CallFunction */";
};
width = 449;
}
);
note = less;
unicode = 60;
},
{
glyphname = equal;
layers = (
{
layerId = m01;
shapes = (
{
closed = 1;
nodes = (
(41,339,qs),
(41,374,ls),
(41,379,o),
(46,379,qs),
(305,379,ls),
(344,379,o),
(344,344,qs),
(344,339,ls),
(344,333,o),
(339,333,qs),
(46,333,ls),
(41,333,o)
);
},
{
closed = 1;
nodes = (
(41,165,qs),
(41,200,ls),
(41,206,o),
(46,206,qs),
(305,206,ls),
(344,206,o),
(344,170,qs),
(344,165,ls),
(344,159,o),
(339,159,qs),
(46,159,ls),
(41,159,o)
);
}
);
userData = {
assembly = "NPUSHB[ ]	/* 14 values pushed */
10 9 3 3 0 1 22 21 15 3 2 3 2 76 
MPPEM[ ]	/* MeasurePixelPerEm */
PUSHB[ ]	/* 1 value pushed */
10 
LT[ ]	/* LessThan */
IF[ ]	/* If */
NPUSHB[ ]	/* 18 values pushed */
0 3 0 2 3 2 99 0 0 0 1 95 0 1 1 42 0 78 
ELSE[ ]	/* Else */
MPPEM[ ]	/* MeasurePixelPerEm */
PUSHB[ ]	/* 1 value pushed */
12 
LT[ ]	/* LessThan */
IF[ ]	/* If */
NPUSHB[ ]	/* 24 values pushed */
0 1 0 0 3 1 0 103 0 3 2 2 3 87 0 3 3 2 95 0 2 3 2 79 
ELSE[ ]	/* Else */
MPPEM[ ]	/* MeasurePixelPerEm */
PUSHB[ ]	/* 1 value pushed */
21 
LT[ ]	/* LessThan */
IF[ ]	/* If */
NPUSHB[ ]	/* 18 values pushed */
0 3 0 2 3 2 99 0 0 0 1 95 0 1 1 42 0 78 
ELSE[ ]	/* Else */
NPUSHB[ ]	/* 24 values pushed */
0 1 0 0 3 1 0 103 0 3 2 2 3 87 0 3 3 2 95 0 2 3 2 79 
EIF[ ]	/* EndIf */
EIF[ ]	/* EndIf */
EIF[ ]	/* EndIf */
PUSHB[ ]	/* 7 values pushed */
36 21 36 16 4 9 26 
CALL[ ]	/* CallFunction */";
};
width = 384;
}
);
note = equal;
unicode = 61;
},
{
glyphname = greater;
layers = (
{
layerId = m01;
shapes = (
{
closed = 1;
nodes = (
(48,387,o),
(48,398,qs),
(48,433,ls),
(48,441,o),
(55,438,qs),
(403,295,l),
(408,292,o),
(408,287,qs),
(408,254,ls),
(408,248,o),
(403,246,qs),
(55,102,ls),
(48,99,o),
(48,108,qs),
(48,115,ls),
(48,154,o),
(84,169,qs),
(338,272,l),
(62,381,ls)
);
}
);
userData = {
assembly = "PUSHB[ ]	/* 4 values pushed */
14 5 1 50 
CALL[ ]	/* CallFunction */";
};
width = 449;
}
);
note = greater;
unicode = 62;
},
{
glyphname = question;
layers = (
{
layerId = m01;
shapes = (
{
closed = 1;
nodes = (
(153,210,o),
(168,233,qs),
(182,253,o),
(220,284,qs),
(269,322,o),
(302,373,o),
(302,409,qs),
(302,456,o),
(274,485,qs),
(242,518,o),
(181,518,qs),
(113,518,o),
(50,474,qs),
(43,469,o),
(37,469,qs),
(32,469,o),
(30,477,qs),
(25,493,ls),
(18,516,o),
(57,537,qs),
(116,567,o),
(180,567,qs),
(257,567,o),
(302,531,qs),
(353,489,o),
(353,409,qs),
(353,360,o),
(316,315,qs),
(294,289,o),
(219,228,qs),
(199,212,o),
(199,179,qs),
(199,141,ls),
(199,135,o),
(194,135,qs),
(158,135,ls),
(153,135,o),
(153,141,qs),
(153,183,ls)
);
},
{
closed = 1;
nodes = (
(216,44,o),
(216,27,qs),
(216,9,o),
(192,-16,o),
(175,-16,qs),
(158,-16,o),
(134,9,o),
(134,27,qs),
(134,44,o),
(158,69,o),
(175,69,qs),
(192,69,o)
);
}
);
userData = {
assembly = "PUSHB[ ]	/* 7 values pushed */
5 0 2 0 2 1 76 
MPPEM[ ]	/* MeasurePixelPerEm */
PUSHB[ ]	/* 1 value pushed */
36 
LT[ ]	/* LessThan */
IF[ ]	/* If */
NPUSHB[ ]	/* 37 values pushed */
0 2 3 0 3 2 0 128 0 0 4 3 0 4 126 0 3 3 1 97 0 1 1 39 77 6 1 4 4 5 97 0 5 5 46 5 78 
ELSE[ ]	/* Else */
NPUSHB[ ]	/* 35 values pushed */
0 2 3 0 3 2 0 128 0 0 4 3 0 4 126 0 1 0 3 2 1 3 105 6 1 4 4 5 97 0 5 5 46 5 78 
EIF[ ]	/* EndIf */
NPUSHB[ ]	/* 15 values pushed */
40 39 46 44 39 50 40 50 34 37 44 18 7 9 26 
CALL[ ]	/* CallFunction */";
};
width = 388;
}
);
note = question;
unicode = 63;
},
{
glyphname = at;
layers = (
{
layerId = m01;
shapes = (
{
closed = 1;
nodes = (
(459,123,qs),
(502,166,o),
(502,246,qs),
(502,298,o),
(476,329,qs),
(446,366,o),
(389,366,qs),
(332,366,o),
(294,327,qs),
(251,282,o),
(251,207,qs),
(251,150,o),
(309,85,o),
(359,85,qs),
(421,85,o)
);
},
{
closed = 1;
nodes = (
(396,37,o),
(355,37,qs),
(295,37,o),
(252,80,qs),
(200,131,o),
(200,214,qs),
(200,292,o),
(248,348,qs),
(304,413,o),
(391,413,qs),
(470,413,o),
(509,354,q),
(514,404,o),
(551,404,qs),
(560,404,ls),
(565,404,o),
(565,399,qs),
(543,162,ls),
(540,133,o),
(540,119,qs),
(540,83,o),
(574,83,qs),
(615,83,o),
(640,121,qs),
(672,171,o),
(672,275,qs),
(672,383,o),
(604,449,qs),
(529,523,o),
(400,523,qs),
(276,523,o),
(194,447,qs),
(100,361,o),
(100,221,qs),
(100,93,o),
(174,13,qs),
(257,-78,o),
(400,-78,qs),
(526,-78,o),
(607,-17,q),
(608,-17,o),
(609,-15,q),
(618,-9,o),
(623,-9,qs),
(631,-9,o),
(631,-21,qs),
(631,-47,o),
(574,-80,qs),
(496,-124,o),
(394,-124,qs),
(252,-124,o),
(158,-41,qs),
(48,56,o),
(48,224,qs),
(48,358,o),
(136,455,qs),
(238,568,o),
(397,568,qs),
(528,568,o),
(617,500,qs),
(724,419,o),
(724,277,qs),
(724,174,o),
(686,111,qs),
(643,38,o),
(564,38,qs),
(533,38,o),
(489,78,o),
(487,108,q),
(468,76,o)
);
}
);
userData = {
assembly = "PUSHB[ ]	/* 7 values pushed */
72 15 2 0 1 1 76 
MPPEM[ ]	/* MeasurePixelPerEm */
PUSHB[ ]	/* 1 value pushed */
34 
LT[ ]	/* LessThan */
IF[ ]	/* If */
NPUSHB[ ]	/* 53 values pushed */
0 9 10 1 10 9 1 128 0 5 2 6 2 5 6 128 0 10 0 1 0 10 1 105 8 12 2 0 11 1 2 5 0 2 106 0 6 0 4 6 4 101 0 7 7 3 97 0 3 3 39 7 78 
ELSE[ ]	/* Else */
NPUSHB[ ]	/* 59 values pushed */
0 9 10 1 10 9 1 128 0 5 2 6 2 5 6 128 0 3 0 7 10 3 7 105 0 10 0 1 0 10 1 105 8 12 2 0 11 1 2 5 0 2 106 0 6 4 4 6 89 0 6 6 4 97 0 4 6 4 81 
EIF[ ]	/* EndIf */
NPUSHB[ ]	/* 31 values pushed */
1 0 83 81 75 73 71 69 63 61 55 53 47 45 40 39 35 33 27 25 19 17 8 6 0 14 1 14 13 9 22 
CALL[ ]	/* CallFunction */";
};
width = 771;
}
);
note = at;
unicode = 64;
},
{
glyphname = A;
kernLeft = A;
kernRight = A;
layers = (
{
layerId = m01;
shapes = (
{
closed = 1;
nodes = (
(249,493,l),
(145,216,l),
(353,216,l)
);
},
{
closed = 1;
nodes = (
(65,0,o),
(55,0,qs),
(18,0,ls),
(11,0,o),
(14,7,qs),
(225,549,ls),
(228,556,o),
(234,556,qs),
(239,556,ls),
(276,556,o),
(289,521,qs),
(488,7,ls),
(491,0,o),
(484,0,qs),
(445,0,ls),
(434,0,o),
(430,12,qs),
(371,169,l),
(127,169,l),
(70,12,ls)
);
}
);
userData = {
assembly = "NPUSHB[ ]	/* 44 values pushed */
1 1 0 3 1 76 5 1 0 0 1 2 0 1 104 0 3 3 39 77 4 1 2 2 40 2 78 0 0 21 18 15 12 9 6 4 3 0 2 0 2 6 9 22 
CALL[ ]	/* CallFunction */";
};
width = 498;
}
);
note = A;
unicode = 65;
},
{
glyphname = B;
layers = (
{
layerId = m01;
shapes = (
{
closed = 1;
nodes = (
(399,47,o),
(399,161,qs),
(399,206,o),
(373,235,qs),
(339,271,o),
(273,271,qs),
(123,271,l),
(123,47,l),
(272,47,ls)
);
},
{
closed = 1;
nodes = (
(323,317,o),
(376,370,o),
(376,418,qs),
(376,508,o),
(267,508,qs),
(123,508,l),
(123,317,l),
(276,317,ls)
);
},
{
closed = 1;
nodes = (
(413,253,qs),
(451,214,o),
(451,157,qs),
(451,89,o),
(411,48,qs),
(365,0,o),
(278,0,qs),
(78,0,ls),
(73,0,o),
(73,6,qs),
(73,549,ls),
(73,556,o),
(78,556,qs),
(263,556,ls),
(334,556,o),
(376,524,qs),
(425,488,o),
(425,419,qs),
(425,327,o),
(338,295,q),
(383,286,o)
);
}
);
userData = {
assembly = "NPUSHB[ ]	/* 63 values pushed */
26 1 2 4 27 1 5 1 2 76 7 1 3 0 0 1 3 0 103 0 2 2 4 95 0 4 4 39 77 6 1 1 1 5 95 0 5 5 40 5 78 9 9 0 0 31 29 24 22 9 16 9 15 12 10 0 8 0 7 33 8 9 23 
CALL[ ]	/* CallFunction */";
};
width = 486;
}
);
note = B;
unicode = 66;
},
{
glyphname = C;
kernLeft = C;
kernRight = C;
layers = (
{
layerId = m01;
shapes = (
{
closed = 1;
nodes = (
(133,55,qs),
(57,133,o),
(57,278,qs),
(57,401,o),
(119,479,qs),
(189,567,o),
(310,567,qs),
(378,567,o),
(444,534,qs),
(484,515,o),
(478,489,qs),
(474,473,ls),
(472,464,o),
(466,464,qs),
(464,464,o),
(454,471,qs),
(386,519,o),
(309,519,qs),
(221,519,o),
(168,463,qs),
(106,397,o),
(106,276,qs),
(106,170,o),
(153,108,qs),
(206,36,o),
(306,36,qs),
(409,36,o),
(464,115,qs),
(470,125,o),
(476,125,qs),
(489,125,o),
(489,109,qs),
(489,77,o),
(452,42,qs),
(396,-11,o),
(300,-11,qs),
(197,-11,o)
);
}
);
userData = {
assembly = "MPPEM[ ]	/* MeasurePixelPerEm */
PUSHB[ ]	/* 1 value pushed */
36 
LT[ ]	/* LessThan */
IF[ ]	/* If */
NPUSHB[ ]	/* 37 values pushed */
0 4 3 1 3 4 1 128 0 1 2 3 1 2 126 0 3 3 5 97 0 5 5 39 77 0 2 2 0 97 6 1 0 0 46 0 78 
ELSE[ ]	/* Else */
NPUSHB[ ]	/* 35 values pushed */
0 4 3 1 3 4 1 128 0 1 2 3 1 2 126 0 5 0 3 4 5 3 105 0 2 2 0 97 6 1 0 0 46 0 78 
EIF[ ]	/* EndIf */
NPUSHB[ ]	/* 19 values pushed */
1 0 30 28 23 21 19 17 11 9 6 5 0 36 1 36 7 9 22 
CALL[ ]	/* CallFunction */";
};
width = 513;
}
);
note = C;
unicode = 67;
},
{
glyphname = D;
layers = (
{
layerId = m01;
shapes = (
{
closed = 1;
nodes = (
(445,47,o),
(445,284,qs),
(445,397,o),
(396,451,qs),
(343,508,o),
(221,508,qs),
(123,508,l),
(123,47,l),
(226,47,ls)
);
},
{
closed = 1;
nodes = (
(73,6,qs),
(73,549,ls),
(73,556,o),
(78,556,qs),
(227,556,ls),
(350,556,o),
(418,495,qs),
(496,425,o),
(496,286,qs),
(496,151,o),
(429,78,qs),
(358,0,o),
(220,0,qs),
(78,0,ls),
(73,0,o)
);
}
);
userData = {
assembly = "NPUSHB[ ]	/* 46 values pushed */
21 1 0 3 22 1 2 1 2 76 0 0 0 3 95 0 3 3 39 77 4 1 1 1 2 95 0 2 2 40 2 78 0 0 19 17 11 9 0 8 0 7 33 5 9 23 
CALL[ ]	/* CallFunction */";
};
width = 553;
}
);
note = D;
unicode = 68;
},
{
glyphname = E;
kernRight = E;
layers = (
{
layerId = m01;
shapes = (
{
closed = 1;
nodes = (
(372,47,o),
(372,18,qs),
(372,7,ls),
(372,0,o),
(364,0,qs),
(78,0,ls),
(73,0,o),
(73,6,qs),
(73,549,ls),
(73,556,o),
(78,556,qs),
(332,556,ls),
(362,556,o),
(362,527,qs),
(362,516,ls),
(362,509,o),
(354,509,qs),
(124,509,l),
(124,298,l),
(314,298,ls),
(344,298,o),
(344,269,qs),
(344,257,ls),
(344,251,o),
(336,251,qs),
(124,251,l),
(124,47,l),
(342,47,ls)
);
}
);
userData = {
assembly = "NPUSHB[ ]	/* 54 values pushed */
18 1 2 3 19 1 4 5 2 76 0 1 0 0 5 1 0 103 0 2 2 3 95 0 3 3 39 77 6 1 5 5 4 95 0 4 4 40 4 78 0 0 0 27 0 26 37 35 33 35 33 7 9 27 
CALL[ ]	/* CallFunction */";
};
width = 404;
}
);
note = E;
unicode = 69;
},
{
glyphname = F;
layers = (
{
layerId = m01;
shapes = (
{
closed = 1;
nodes = (
(123,0,o),
(118,0,qs),
(78,0,ls),
(73,0,o),
(73,6,qs),
(73,549,ls),
(73,556,o),
(78,556,qs),
(332,556,ls),
(362,556,o),
(362,527,qs),
(362,516,ls),
(362,508,o),
(354,508,qs),
(123,508,l),
(123,298,l),
(314,298,ls),
(344,298,o),
(344,270,qs),
(344,258,ls),
(344,251,o),
(336,251,qs),
(123,251,l),
(123,6,ls)
);
}
);
userData = {
assembly = "NPUSHB[ ]	/* 43 values pushed */
17 1 2 3 23 18 2 4 0 2 76 0 1 0 0 4 1 0 103 0 2 2 3 95 0 3 3 39 77 0 4 4 40 4 78 21 35 33 35 32 5 9 27 
CALL[ ]	/* CallFunction */";
};
width = 389;
}
);
note = F;
unicode = 70;
},
{
glyphname = G;
layers = (
{
layerId = m01;
shapes = (
{
closed = 1;
nodes = (
(328,238,ls),
(298,238,o),
(298,267,qs),
(298,277,ls),
(298,284,o),
(305,284,qs),
(504,284,ls),
(509,284,o),
(509,278,qs),
(509,105,ls),
(509,83,o),
(493,68,qs),
(457,31,o),
(357,-11,o),
(305,-11,qs),
(201,-11,o),
(134,58,qs),
(57,138,o),
(57,278,qs),
(57,400,o),
(117,477,qs),
(187,567,o),
(310,567,qs),
(388,567,o),
(454,534,qs),
(494,515,o),
(488,489,qs),
(484,473,ls),
(482,464,o),
(476,464,qs),
(472,464,o),
(464,471,q),
(397,519,o),
(310,519,qs),
(220,519,o),
(167,464,qs),
(106,400,o),
(106,276,qs),
(106,170,o),
(153,108,qs),
(206,36,o),
(306,36,qs),
(397,36,o),
(459,96,q),
(459,238,l)
);
}
);
userData = {
assembly = "NPUSHB[ ]	/* 10 values pushed */
35 1 6 5 0 1 0 6 2 76 
MPPEM[ ]	/* MeasurePixelPerEm */
PUSHB[ ]	/* 1 value pushed */
36 
LT[ ]	/* LessThan */
IF[ ]	/* If */
NPUSHB[ ]	/* 37 values pushed */
0 2 1 5 1 2 5 128 0 5 0 6 0 5 6 103 0 1 1 3 97 0 3 3 39 77 0 0 0 4 97 0 4 4 46 4 78 
ELSE[ ]	/* Else */
NPUSHB[ ]	/* 35 values pushed */
0 2 1 5 1 2 5 128 0 3 0 1 2 3 1 105 0 5 0 6 0 5 6 103 0 0 0 4 97 0 4 4 46 4 78 
EIF[ ]	/* EndIf */
NPUSHB[ ]	/* 10 values pushed */
35 39 38 37 34 38 33 7 9 29 
CALL[ ]	/* CallFunction */";
};
width = 564;
}
);
note = G;
unicode = 71;
},
{
glyphname = H;
layers = (
{
layerId = m01;
shapes = (
{
closed = 1;
nodes = (
(123,0,o),
(118,0,qs),
(78,0,ls),
(73,0,o),
(73,6,qs),
(73,549,ls),
(73,556,o),
(78,556,qs),
(83,556,ls),
(101,556,o),
(123,527,o),
(123,503,qs),
(123,298,l),
(400,298,l),
(400,549,ls),
(400,556,o),
(405,556,qs),
(409,556,ls),
(427,556,o),
(450,527,o),
(450,503,qs),
(450,6,ls),
(450,0,o),
(445,0,qs),
(405,0,ls),
(400,0,o),
(400,6,qs),
(400,252,l),
(123,252,l),
(123,6,ls)
);
}
);
userData = {
assembly = "NPUSHB[ ]	/* 39 values pushed */
29 24 7 2 4 1 0 1 76 0 3 0 0 1 3 0 103 4 1 2 2 39 77 5 1 1 1 40 1 78 20 51 18 53 19 16 6 9 28 
CALL[ ]	/* CallFunction */";
};
width = 522;
}
);
note = H;
unicode = 72;
},
{
glyphname = I;
kernRight = I;
layers = (
{
layerId = m01;
shapes = (
{
closed = 1;
nodes = (
(73,6,qs),
(73,549,ls),
(73,556,o),
(78,556,qs),
(82,556,ls),
(101,556,o),
(124,527,o),
(124,504,qs),
(124,6,ls),
(124,0,o),
(119,0,qs),
(78,0,ls),
(73,0,o)
);
}
);
userData = {
assembly = "NPUSHB[ ]	/* 23 values pushed */
11 3 2 0 1 1 76 0 1 1 39 77 0 0 0 40 0 78 53 16 2 9 24 
CALL[ ]	/* CallFunction */";
};
width = 196;
}
);
note = I;
unicode = 73;
},
{
glyphname = J;
layers = (
{
layerId = m01;
shapes = (
{
closed = 1;
nodes = (
(16,87,qs),
(21,87,o),
(24,82,qs),
(59,35,o),
(99,35,qs),
(126,35,o),
(160,69,o),
(160,96,qs),
(160,549,ls),
(160,556,o),
(165,556,qs),
(169,556,ls),
(188,556,o),
(210,527,o),
(210,503,qs),
(210,94,ls),
(210,46,o),
(153,-10,o),
(104,-10,qs),
(65,-10,o),
(8,40,o),
(8,75,qs),
(8,87,o)
);
}
);
userData = {
assembly = "NPUSHB[ ]	/* 31 values pushed */
0 3 1 2 1 3 2 128 0 1 1 39 77 0 2 2 0 97 0 0 0 46 0 78 34 36 53 34 4 9 26 
CALL[ ]	/* CallFunction */";
};
width = 280;
}
);
note = J;
unicode = 74;
},
{
glyphname = K;
layers = (
{
layerId = m01;
shapes = (
{
closed = 1;
nodes = (
(123,0,o),
(118,0,qs),
(78,0,ls),
(73,0,o),
(73,6,qs),
(73,549,ls),
(73,556,o),
(78,556,qs),
(83,556,ls),
(101,556,o),
(123,527,o),
(123,503,qs),
(123,245,l),
(379,547,ls),
(387,556,o),
(397,556,qs),
(435,556,ls),
(443,556,o),
(438,548,q),
(254,331,l),
(458,8,l),
(461,0,o),
(453,0,qs),
(414,0,ls),
(403,0,o),
(397,10,qs),
(220,291,l),
(123,178,l),
(123,6,ls)
);
}
);
userData = {
assembly = "NPUSHB[ ]	/* 31 values pushed */
28 23 15 8 1 0 6 0 1 1 76 2 1 1 1 39 77 3 1 0 0 40 0 78 20 53 52 51 4 9 26 
CALL[ ]	/* CallFunction */";
};
width = 473;
}
);
note = K;
unicode = 75;
},
{
glyphname = L;
layers = (
{
layerId = m01;
shapes = (
{
closed = 1;
nodes = (
(341,47,o),
(341,18,qs),
(341,7,ls),
(341,0,o),
(333,0,qs),
(78,0,ls),
(73,0,o),
(73,6,qs),
(73,549,ls),
(73,556,o),
(78,556,qs),
(83,556,ls),
(101,556,o),
(123,527,o),
(123,503,qs),
(123,47,l),
(311,47,ls)
);
}
);
userData = {
assembly = "NPUSHB[ ]	/* 34 values pushed */
8 1 1 2 1 76 0 0 0 39 77 3 1 2 2 1 95 0 1 1 40 1 78 0 0 0 16 0 15 36 51 4 9 24 
CALL[ ]	/* CallFunction */";
};
width = 362;
}
);
note = L;
unicode = 76;
},
{
glyphname = M;
layers = (
{
layerId = m01;
shapes = (
{
closed = 1;
nodes = (
(472,556,o),
(478,556,qs),
(481,556,ls),
(521,556,o),
(524,508,qs),
(552,6,ls),
(552,0,o),
(547,0,qs),
(506,0,ls),
(501,0,o),
(501,6,qs),
(478,434,l),
(326,7,ls),
(323,0,o),
(316,0,qs),
(281,0,ls),
(277,0,o),
(274,7,qs),
(126,427,l),
(103,6,ls),
(103,0,o),
(98,0,qs),
(58,0,ls),
(53,0,o),
(53,6,qs),
(82,549,ls),
(82,556,o),
(88,556,qs),
(91,556,ls),
(114,556,o),
(136,538,o),
(144,516,qs),
(301,65,l),
(471,549,l)
);
}
);
userData = {
assembly = "NPUSHB[ ]	/* 33 values pushed */
27 22 21 14 13 8 6 1 0 1 76 4 1 0 0 39 77 3 2 2 1 1 40 1 78 52 21 53 20 51 5 9 27 
CALL[ ]	/* CallFunction */";
};
width = 604;
}
);
note = M;
unicode = 77;
},
{
glyphname = N;
kernRight = N;
layers = (
{
layerId = m01;
shapes = (
{
closed = 1;
nodes = (
(400,556,o),
(405,556,qs),
(410,556,ls),
(428,556,o),
(450,527,o),
(450,504,qs),
(450,6,ls),
(450,0,o),
(445,0,qs),
(411,0,ls),
(396,0,o),
(389,13,qs),
(124,445,l),
(124,6,ls),
(124,0,o),
(119,0,qs),
(78,0,ls),
(73,0,o),
(73,6,qs),
(73,549,ls),
(73,556,o),
(78,556,qs),
(82,556,ls),
(104,556,o),
(124,541,o),
(139,515,qs),
(400,89,l),
(400,549,ls)
);
}
);
userData = {
assembly = "NPUSHB[ ]	/* 30 values pushed */
20 14 13 8 0 5 1 0 1 76 3 1 0 0 39 77 2 1 1 1 40 1 78 53 37 20 51 4 9 26 
CALL[ ]	/* CallFunction */";
};
width = 522;
}
);
note = N;
unicode = 78;
},
{
glyphname = O;
kernLeft = O;
kernRight = O;
layers = (
{
layerId = m01;
shapes = (
{
closed = 1;
nodes = (
(421,79,qs),
(489,139,o),
(489,277,qs),
(489,400,o),
(435,462,qs),
(385,520,o),
(299,520,qs),
(224,520,o),
(176,477,qs),
(108,416,o),
(108,277,qs),
(108,155,o),
(162,93,qs),
(211,37,o),
(299,37,qs),
(374,38,o)
);
},
{
closed = 1;
nodes = (
(129,58,qs),
(57,134,o),
(57,277,qs),
(57,401,o),
(113,478,qs),
(178,567,o),
(299,567,qs),
(404,567,o),
(468,498,qs),
(540,420,o),
(540,277,qs),
(540,153,o),
(485,78,qs),
(421,-10,o),
(299,-10,qs),
(192,-10,o)
);
}
);
userData = {
assembly = "MPPEM[ ]	/* MeasurePixelPerEm */
PUSHB[ ]	/* 1 value pushed */
36 
LT[ ]	/* LessThan */
IF[ ]	/* If */
NPUSHB[ ]	/* 23 values pushed */
0 1 1 3 97 0 3 3 39 77 4 1 0 0 2 97 5 1 2 2 46 2 78 
ELSE[ ]	/* Else */
NPUSHB[ ]	/* 21 values pushed */
0 3 0 1 0 3 1 105 4 1 0 0 2 97 5 1 2 2 46 2 78 
EIF[ ]	/* EndIf */
NPUSHB[ ]	/* 19 values pushed */
17 16 1 0 25 23 16 31 17 31 9 7 0 15 1 15 6 9 22 
CALL[ ]	/* CallFunction */";
};
width = 597;
}
);
note = O;
unicode = 79;
},
{
glyphname = P;
layers = (
{
layerId = m01;
shapes = (
{
closed = 1;
nodes = (
(329,262,o),
(397,327,o),
(397,388,qs),
(397,439,o),
(366,471,qs),
(331,508,o),
(271,508,qs),
(123,508,l),
(123,262,l),
(267,262,ls)
);
},
{
closed = 1;
nodes = (
(123,0,o),
(118,0,qs),
(78,0,ls),
(73,0,o),
(73,6,qs),
(73,549,ls),
(73,556,o),
(78,556,qs),
(267,556,ls),
(344,556,o),
(392,516,qs),
(449,470,o),
(449,387,qs),
(449,312,o),
(407,267,qs),
(359,215,o),
(269,215,qs),
(123,215,l),
(123,6,ls)
);
}
);
userData = {
assembly = "NPUSHB[ ]	/* 52 values pushed */
22 1 0 3 28 23 2 4 2 2 76 5 1 1 0 2 4 1 2 103 0 0 0 3 95 0 3 3 39 77 0 4 4 40 4 78 0 0 26 25 20 18 12 10 0 9 0 8 33 6 9 23 
CALL[ ]	/* CallFunction */";
};
width = 484;
}
);
note = P;
unicode = 80;
},
{
glyphname = Q;
layers = (
{
layerId = m01;
shapes = (
{
closed = 1;
nodes = (
(117,71,qs),
(57,146,o),
(57,277,qs),
(57,401,o),
(113,478,qs),
(177,567,o),
(298,567,qs),
(403,567,o),
(467,498,qs),
(539,420,o),
(539,277,qs),
(539,158,o),
(489,84,qs),
(430,-2,o),
(318,-9,q),
(340,-61,o),
(401,-61,qs),
(457,-61,o),
(503,-10,qs),
(508,-5,o),
(513,-5,qs),
(523,-5,o),
(523,-16,qs),
(523,-45,o),
(492,-72,qs),
(452,-106,o),
(393,-106,qs),
(343,-106,o),
(274,-55,o),
(261,-8,q),
(171,4,o)
);
},
{
closed = 1;
nodes = (
(420,79,qs),
(488,139,o),
(488,277,qs),
(488,399,o),
(434,462,qs),
(384,519,o),
(298,519,qs),
(224,519,o),
(176,476,qs),
(108,415,o),
(108,277,qs),
(108,154,o),
(161,93,qs),
(211,37,o),
(298,37,qs),
(373,38,o)
);
}
);
userData = {
assembly = "MPPEM[ ]	/* MeasurePixelPerEm */
PUSHB[ ]	/* 1 value pushed */
10 
LT[ ]	/* LessThan */
IF[ ]	/* If */
NPUSHB[ ]	/* 37 values pushed */
0 1 5 3 5 1 3 128 0 2 0 0 2 0 101 0 6 6 4 97 0 4 4 39 77 7 1 5 5 3 97 0 3 3 49 3 78 
ELSE[ ]	/* Else */
MPPEM[ ]	/* MeasurePixelPerEm */
PUSHB[ ]	/* 1 value pushed */
12 
LT[ ]	/* LessThan */
IF[ ]	/* If */
NPUSHB[ ]	/* 37 values pushed */
0 1 5 3 5 1 3 128 0 2 0 0 2 0 101 0 6 6 4 97 0 4 4 39 77 7 1 5 5 3 97 0 3 3 46 3 78 
ELSE[ ]	/* Else */
MPPEM[ ]	/* MeasurePixelPerEm */
PUSHB[ ]	/* 1 value pushed */
36 
LT[ ]	/* LessThan */
IF[ ]	/* If */
NPUSHB[ ]	/* 37 values pushed */
0 1 5 3 5 1 3 128 0 2 0 0 2 0 101 0 6 6 4 97 0 4 4 39 77 7 1 5 5 3 97 0 3 3 49 3 78 
ELSE[ ]	/* Else */
NPUSHB[ ]	/* 35 values pushed */
0 1 5 3 5 1 3 128 0 4 0 6 5 4 6 105 0 2 0 0 2 0 101 7 1 5 5 3 97 0 3 3 49 3 78 
EIF[ ]	/* EndIf */
EIF[ ]	/* EndIf */
EIF[ ]	/* EndIf */
NPUSHB[ ]	/* 16 values pushed */
32 31 40 38 31 46 32 46 38 17 35 20 34 8 9 27 
CALL[ ]	/* CallFunction */";
};
width = 597;
}
);
note = Q;
unicode = 81;
},
{
glyphname = R;
layers = (
{
layerId = m01;
shapes = (
{
closed = 1;
nodes = (
(399,262,o),
(399,388,qs),
(399,440,o),
(369,472,qs),
(335,508,o),
(273,508,qs),
(123,508,l),
(123,262,l),
(267,262,ls)
);
},
{
closed = 1;
nodes = (
(123,0,o),
(118,0,qs),
(78,0,ls),
(73,0,o),
(73,6,qs),
(73,549,ls),
(73,556,o),
(78,556,qs),
(267,556,ls),
(347,556,o),
(395,516,qs),
(450,470,o),
(450,384,qs),
(450,324,o),
(419,282,qs),
(388,240,o),
(331,222,q),
(456,7,l),
(461,0,o),
(452,0,qs),
(414,0,ls),
(402,0,o),
(396,10,qs),
(277,215,l),
(123,215,l),
(123,6,ls)
);
}
);
userData = {
assembly = "NPUSHB[ ]	/* 59 values pushed */
28 1 0 4 17 1 2 1 34 29 2 3 2 3 76 6 1 1 0 2 3 1 2 103 0 0 0 4 95 0 4 4 39 77 5 1 3 3 40 3 78 0 0 32 31 26 24 15 12 10 9 0 8 0 7 33 7 9 23 
CALL[ ]	/* CallFunction */";
};
width = 496;
}
);
note = R;
unicode = 82;
},
{
glyphname = S;
kernLeft = S;
kernRight = S;
layers = (
{
layerId = m01;
shapes = (
{
closed = 1;
nodes = (
(36,127,qs),
(44,127,o),
(51,117,qs),
(113,36,o),
(206,36,qs),
(269,36,o),
(308,62,qs),
(353,92,o),
(353,146,qs),
(353,184,o),
(320,211,qs),
(296,230,o),
(243,250,qs),
(140,288,o),
(121,298,qs),
(40,342,o),
(40,421,qs),
(40,480,o),
(83,520,qs),
(134,567,o),
(220,567,qs),
(293,567,o),
(357,536,qs),
(398,516,o),
(392,490,qs),
(388,473,ls),
(386,465,o),
(381,465,qs),
(377,465,o),
(371,469,qs),
(368,471,ls),
(300,520,o),
(216,520,qs),
(159,520,o),
(91,467,o),
(91,423,qs),
(91,385,o),
(123,358,qs),
(150,336,o),
(231,307,qs),
(317,277,o),
(349,255,qs),
(403,217,o),
(403,155,qs),
(403,85,o),
(359,41,qs),
(306,-11,o),
(210,-11,qs),
(127,-11,o),
(74,28,qs),
(24,66,o),
(24,108,qs),
(24,127,o)
);
}
);
userData = {
assembly = "MPPEM[ ]	/* MeasurePixelPerEm */
PUSHB[ ]	/* 1 value pushed */
36 
LT[ ]	/* LessThan */
IF[ ]	/* If */
NPUSHB[ ]	/* 36 values pushed */
0 2 1 5 1 2 5 128 0 5 4 1 5 4 126 0 1 1 3 97 0 3 3 39 77 0 4 4 0 97 0 0 0 46 0 78 
ELSE[ ]	/* Else */
NPUSHB[ ]	/* 34 values pushed */
0 2 1 5 1 2 5 128 0 5 4 1 5 4 126 0 3 0 1 2 3 1 105 0 4 4 0 97 0 0 0 46 0 78 
EIF[ ]	/* EndIf */
NPUSHB[ ]	/* 9 values pushed */
34 46 37 35 45 35 6 9 28 
CALL[ ]	/* CallFunction */";
};
width = 437;
}
);
note = S;
unicode = 83;
},
{
glyphname = T;
layers = (
{
layerId = m01;
shapes = (
{
closed = 1;
nodes = (
(17,508,o),
(17,514,qs),
(17,549,ls),
(17,556,o),
(22,556,qs),
(354,556,ls),
(384,556,o),
(384,527,qs),
(384,516,ls),
(384,508,o),
(375,508,qs),
(225,508,l),
(225,6,ls),
(225,0,o),
(220,0,qs),
(180,0,ls),
(175,0,o),
(175,6,qs),
(175,508,l),
(22,508,ls)
);
}
);
userData = {
assembly = "NPUSHB[ ]	/* 42 values pushed */
17 16 2 1 2 6 1 2 0 1 2 76 4 3 2 1 1 2 95 0 2 2 39 77 0 0 0 40 0 78 0 0 0 19 0 19 35 35 19 5 9 25 
CALL[ ]	/* CallFunction */";
};
width = 401;
}
);
note = T;
unicode = 84;
},
{
glyphname = U;
kernLeft = U;
kernRight = U;
layers = (
{
layerId = m01;
shapes = (
{
closed = 1;
nodes = (
(116,42,qs),
(68,95,o),
(68,194,qs),
(68,549,ls),
(68,556,o),
(73,556,qs),
(78,556,ls),
(96,556,o),
(119,527,o),
(119,504,qs),
(119,201,ls),
(119,37,o),
(255,37,qs),
(397,37,o),
(397,202,qs),
(397,549,ls),
(397,556,o),
(402,556,qs),
(406,556,ls),
(425,556,o),
(447,527,o),
(447,504,qs),
(447,198,ls),
(447,121,o),
(413,68,qs),
(364,-10,o),
(256,-10,qs),
(165,-10,o)
);
}
);
userData = {
assembly = "NPUSHB[ ]	/* 33 values pushed */
3 1 1 1 39 77 0 2 2 0 97 4 1 0 0 46 0 78 1 0 22 19 15 13 10 7 0 27 1 27 5 9 22 
CALL[ ]	/* CallFunction */";
};
width = 516;
}
);
note = U;
unicode = 85;
},
{
glyphname = V;
layers = (
{
layerId = m01;
shapes = (
{
closed = 1;
nodes = (
(397,556,o),
(408,556,qs),
(444,556,ls),
(451,556,o),
(448,548,qs),
(262,6,l),
(259,0,o),
(254,0,qs),
(214,0,ls),
(208,0,o),
(206,6,qs),
(19,548,ls),
(16,556,o),
(24,556,qs),
(41,556,ls),
(70,556,o),
(81,524,qs),
(235,59,l),
(393,543,ls)
);
}
);
userData = {
assembly = "NPUSHB[ ]	/* 18 values pushed */
2 1 0 0 39 77 0 1 1 40 1 78 52 35 50 3 9 25 
CALL[ ]	/* CallFunction */";
};
width = 462;
}
);
note = V;
unicode = 86;
},
{
glyphname = W;
layers = (
{
layerId = m01;
shapes = (
{
closed = 1;
nodes = (
(347,556,o),
(359,556,qs),
(368,556,ls),
(392,556,o),
(402,524,qs),
(539,70,l),
(663,543,ls),
(666,556,o),
(678,556,qs),
(712,556,ls),
(717,556,o),
(716,548,q),
(568,6,ls),
(566,0,o),
(559,0,qs),
(521,0,ls),
(515,0,o),
(513,6,qs),
(369,478,l),
(233,6,ls),
(231,0,o),
(225,0,qs),
(186,0,ls),
(180,0,o),
(178,6,qs),
(31,548,ls),
(29,556,o),
(36,556,qs),
(49,556,ls),
(81,556,o),
(89,524,qs),
(210,70,l),
(344,543,ls)
);
}
);
userData = {
assembly = "NPUSHB[ ]	/* 29 values pushed */
26 13 2 1 0 1 76 4 3 2 0 0 39 77 2 1 1 1 40 1 78 52 51 53 35 50 5 9 27 
CALL[ ]	/* CallFunction */";
};
width = 742;
}
);
note = W;
unicode = 87;
},
{
glyphname = X;
layers = (
{
layerId = m01;
shapes = (
{
closed = 1;
nodes = (
(67,0,o),
(56,0,qs),
(21,0,ls),
(13,0,o),
(17,7,qs),
(202,289,l),
(40,548,l),
(34,556,o),
(44,556,qs),
(61,556,ls),
(89,556,o),
(107,526,qs),
(237,322,l),
(376,543,ls),
(384,556,o),
(395,556,qs),
(428,556,ls),
(437,556,o),
(432,548,qs),
(268,288,l),
(451,7,ls),
(455,0,o),
(446,0,qs),
(411,0,ls),
(400,0,o),
(392,12,qs),
(233,257,l),
(73,12,l)
);
}
);
userData = {
assembly = "NPUSHB[ ]	/* 28 values pushed */
21 14 7 3 0 1 1 76 2 1 1 1 39 77 3 1 0 0 40 0 78 52 52 52 50 4 9 26 
CALL[ ]	/* CallFunction */";
};
width = 459;
}
);
note = X;
unicode = 88;
},
{
glyphname = Y;
kernLeft = Y;
kernRight = Y;
layers = (
{
layerId = m01;
shapes = (
{
closed = 1;
nodes = (
(4,556,o),
(13,556,qs),
(29,556,ls),
(48,556,o),
(72,537,o),
(86,513,qs),
(217,274,l),
(364,543,ls),
(370,556,o),
(381,556,qs),
(414,556,ls),
(424,556,o),
(420,547,q),
(240,219,l),
(240,6,ls),
(240,0,o),
(235,0,qs),
(195,0,ls),
(190,0,o),
(190,6,qs),
(190,219,l),
(9,548,ls)
);
}
);
userData = {
assembly = "NPUSHB[ ]	/* 28 values pushed */
14 7 6 1 0 5 0 1 1 76 2 1 1 1 39 77 0 0 0 40 0 78 53 53 19 3 9 25 
CALL[ ]	/* CallFunction */";
};
width = 422;
}
);
note = Y;
unicode = 89;
},
{
glyphname = Z;
kernLeft = Z;
kernRight = Z;
layers = (
{
layerId = m01;
shapes = (
{
closed = 1;
nodes = (
(407,47,o),
(407,18,qs),
(407,7,ls),
(407,0,o),
(400,0,qs),
(44,0,ls),
(39,0,o),
(39,6,qs),
(39,30,ls),
(39,49,o),
(50,64,qs),
(361,509,l),
(52,509,ls),
(47,509,o),
(47,515,qs),
(47,549,ls),
(47,556,o),
(52,556,qs),
(358,556,ls),
(407,556,o),
(407,514,qs),
(407,504,ls),
(407,489,o),
(393,468,qs),
(97,47,l),
(378,47,ls)
);
}
);
userData = {
assembly = "NPUSHB[ ]	/* 45 values pushed */
10 9 2 1 0 17 1 2 3 2 76 0 1 1 0 95 0 0 0 39 77 4 1 3 3 2 95 0 2 2 40 2 78 0 0 0 25 0 24 38 21 37 5 9 25 
CALL[ ]	/* CallFunction */";
};
width = 448;
}
);
note = Z;
unicode = 90;
},
{
glyphname = bracketleft;
layers = (
{
layerId = m01;
shapes = (
{
closed = 1;
nodes = (
(102,-144,o),
(70,-113,o),
(70,-88,qs),
(70,639,ls),
(70,665,o),
(102,696,o),
(128,696,qs),
(228,696,ls),
(236,696,o),
(236,689,qs),
(236,686,ls),
(236,652,o),
(197,652,qs),
(141,652,ls),
(118,652,o),
(118,628,qs),
(118,-77,ls),
(118,-101,o),
(141,-101,qs),
(197,-101,ls),
(236,-101,o),
(236,-134,qs),
(236,-137,ls),
(236,-144,o),
(228,-144,qs),
(128,-144,ls)
);
}
);
userData = {
assembly = "NPUSHB[ ]	/* 40 values pushed */
0 3 0 2 1 3 2 105 0 1 0 0 1 89 0 1 1 0 95 4 1 0 1 0 79 1 0 19 16 13 10 7 4 0 25 1 24 5 9 22 
CALL[ ]	/* CallFunction */";
};
width = 289;
}
);
note = bracketleft;
unicode = 91;
},
{
glyphname = backslash;
layers = (
{
layerId = m01;
shapes = (
{
closed = 1;
nodes = (
(0,556,o),
(6,556,qs),
(11,556,ls),
(49,556,o),
(68,513,qs),
(282,6,ls),
(285,0,o),
(280,0,qs),
(239,0,ls),
(234,0,o),
(231,6,qs),
(2,548,l)
);
}
);
userData = {
assembly = "NPUSHB[ ]	/* 16 values pushed */
0 1 1 39 77 0 0 0 40 0 78 52 33 2 9 24 
CALL[ ]	/* CallFunction */";
};
width = 283;
}
);
note = backslash;
unicode = 92;
},
{
glyphname = bracketright;
layers = (
{
layerId = m01;
shapes = (
{
closed = 1;
nodes = (
(53,-144,o),
(53,-137,qs),
(53,-134,ls),
(53,-101,o),
(92,-101,qs),
(149,-101,ls),
(171,-101,o),
(171,-77,qs),
(171,628,ls),
(171,652,o),
(149,652,qs),
(92,652,ls),
(53,652,o),
(53,686,qs),
(53,689,ls),
(53,696,o),
(61,696,qs),
(161,696,ls),
(187,696,o),
(219,665,o),
(219,639,qs),
(219,-88,ls),
(219,-113,o),
(187,-144,o),
(161,-144,qs),
(61,-144,ls)
);
}
);
userData = {
assembly = "NPUSHB[ ]	/* 40 values pushed */
0 1 0 2 3 1 2 103 0 3 0 0 3 87 0 3 3 0 95 4 1 0 3 0 79 1 0 21 18 15 12 9 6 0 25 1 24 5 9 22 
CALL[ ]	/* CallFunction */";
};
width = 289;
}
);
note = bracketright;
unicode = 93;
},
{
glyphname = asciicircum;
layers = (
{
layerId = m01;
shapes = (
{
closed = 1;
nodes = (
(81,274,o),
(70,274,qs),
(36,274,ls),
(29,274,o),
(32,279,qs),
(174,546,ls),
(180,556,o),
(190,556,qs),
(227,556,o),
(248,517,qs),
(375,279,ls),
(377,274,o),
(371,274,qs),
(337,274,ls),
(326,274,o),
(321,283,qs),
(204,503,l),
(86,283,ls)
);
}
);
userData = {
assembly = "PUSHB[ ]	/* 2 values pushed */
6 100 
WCVTP[ ]	/* WriteCVTInPixels */
NPUSHB[ ]	/* 16 values pushed */
0 1 0 1 133 2 1 0 0 118 51 36 34 3 9 25 
CALL[ ]	/* CallFunction */
PUSHB[ ]	/* 2 values pushed */
6 0 
WCVTP[ ]	/* WriteCVTInPixels */";
};
width = 403;
}
);
note = asciicircum;
unicode = 94;
},
{
glyphname = underscore;
layers = (
{
layerId = m01;
shapes = (
{
closed = 1;
nodes = (
(-9,-172,qs),
(-9,-139,ls),
(-9,-133,o),
(-4,-133,qs),
(412,-133,ls),
(417,-133,o),
(417,-139,qs),
(417,-172,ls),
(417,-178,o),
(412,-178,qs),
(-4,-178,ls),
(-9,-178,o)
);
}
);
userData = {
assembly = "PUSHB[ ]	/* 2 values pushed */
6 100 
WCVTP[ ]	/* WriteCVTInPixels */
NPUSHB[ ]	/* 30 values pushed */
10 9 4 3 4 0 1 1 76 0 1 0 0 1 87 0 1 1 0 95 0 0 1 0 79 21 16 2 9 24 
CALL[ ]	/* CallFunction */
PUSHB[ ]	/* 2 values pushed */
6 0 
WCVTP[ ]	/* WriteCVTInPixels */";
};
width = 409;
}
);
note = underscore;
unicode = 95;
},
{
glyphname = grave;
layers = (
{
layerId = m01;
shapes = (
{
closed = 1;
nodes = (
(1,502,o),
(4,502,qs),
(54,502,ls),
(65,502,o),
(75,493,qs),
(137,436,l),
(140,435,o),
(137,431,o),
(135,431,qs),
(97,431,ls),
(86,431,o),
(73,440,qs),
(1,496,l),
(-1,497,o)
);
}
);
userData = {
assembly = "PUSHB[ ]	/* 2 values pushed */
6 100 
WCVTP[ ]	/* WriteCVTInPixels */
NPUSHB[ ]	/* 14 values pushed */
0 1 0 1 133 0 0 0 118 37 34 2 9 24 
CALL[ ]	/* CallFunction */
PUSHB[ ]	/* 2 values pushed */
6 0 
WCVTP[ ]	/* WriteCVTInPixels */";
};
width = 139;
}
);
note = grave;
unicode = 96;
},
{
glyphname = a;
kernLeft = a;
kernRight = a;
layers = (
{
layerId = m01;
shapes = (
{
closed = 1;
nodes = (
(216,-9,qs),
(143,-9,o),
(96,40,qs),
(44,93,o),
(44,178,qs),
(44,255,o),
(87,307,qs),
(137,367,o),
(219,367,qs),
(304,367,o),
(345,305,q),
(345,360,o),
(385,360,qs),
(390,360,ls),
(395,360,o),
(395,354,qs),
(395,6,ls),
(395,0,o),
(390,0,qs),
(349,0,ls),
(344,0,o),
(344,6,qs),
(344,57,l),
(302,-9,o)
);
},
{
closed = 1;
nodes = (
(299,64,qs),
(344,100,o),
(344,178,qs),
(344,248,o),
(308,285,qs),
(274,320,o),
(219,320,qs),
(166,320,o),
(132,285,qs),
(95,246,o),
(95,178,qs),
(95,116,o),
(127,78,qs),
(162,38,o),
(214,38,qs),
(266,38,o)
);
}
);
userData = {
assembly = "NPUSHB[ ]	/* 16 values pushed */
7 1 5 1 12 0 2 4 5 6 1 2 0 4 3 76 
MPPEM[ ]	/* MeasurePixelPerEm */
PUSHB[ ]	/* 1 value pushed */
27 
LT[ ]	/* LessThan */
IF[ ]	/* If */
NPUSHB[ ]	/* 28 values pushed */
0 5 5 1 97 2 1 1 1 42 77 0 0 0 40 77 6 1 4 4 3 97 0 3 3 49 3 78 
ELSE[ ]	/* Else */
NPUSHB[ ]	/* 32 values pushed */
0 1 1 42 77 0 5 5 2 97 0 2 2 48 77 0 0 0 40 77 6 1 4 4 3 97 0 3 3 49 3 78 
EIF[ ]	/* EndIf */
NPUSHB[ ]	/* 15 values pushed */
25 24 33 31 24 39 25 39 38 34 37 19 7 9 26 
CALL[ ]	/* CallFunction */";
};
width = 454;
}
);
note = a;
unicode = 97;
},
{
glyphname = b;
layers = (
{
layerId = m01;
shapes = (
{
closed = 1;
nodes = (
(110,0,o),
(105,0,qs),
(65,0,ls),
(60,0,o),
(60,6,qs),
(60,549,ls),
(60,556,o),
(65,556,qs),
(70,556,ls),
(88,556,o),
(110,527,o),
(110,503,qs),
(110,302,l),
(152,367,o),
(241,367,qs),
(312,367,o),
(358,321,qs),
(411,268,o),
(411,178,qs),
(411,104,o),
(371,52,qs),
(323,-9,o),
(242,-9,qs),
(150,-9,o),
(110,54,q),
(110,6,ls)
);
},
{
closed = 1;
nodes = (
(318,68,qs),
(359,107,o),
(359,178,qs),
(359,237,o),
(330,275,qs),
(296,320,o),
(236,320,qs),
(188,320,o),
(156,294,qs),
(110,257,o),
(110,178,qs),
(110,110,o),
(147,73,qs),
(182,38,o),
(237,38,qs),
(285,38,o)
);
}
);
userData = {
assembly = "NPUSHB[ ]	/* 59 values pushed */
12 0 2 4 5 25 20 2 3 4 2 76 0 2 2 39 77 0 5 5 1 97 0 1 1 48 77 0 3 3 40 77 6 1 4 4 0 97 0 0 0 49 0 78 27 26 35 33 26 41 27 41 20 52 38 33 7 9 26 
CALL[ ]	/* CallFunction */";
};
width = 454;
}
);
note = b;
unicode = 98;
},
{
glyphname = c;
kernLeft = c;
kernRight = c;
layers = (
{
layerId = m01;
shapes = (
{
closed = 1;
nodes = (
(97,34,qs),
(44,85,o),
(44,177,qs),
(44,255,o),
(87,307,qs),
(136,367,o),
(218,367,qs),
(270,367,o),
(307,349,qs),
(334,337,o),
(328,313,qs),
(324,298,ls),
(322,292,o),
(319,292,qs),
(317,292,o),
(315,293,qs),
(313,294,ls),
(268,320,o),
(218,320,qs),
(166,320,o),
(133,287,qs),
(95,248,o),
(95,178,qs),
(95,116,o),
(125,80,qs),
(159,37,o),
(223,37,qs),
(282,37,o),
(320,82,qs),
(326,89,o),
(330,89,qs),
(340,89,o),
(340,74,qs),
(340,45,o),
(310,20,qs),
(273,-10,o),
(218,-10,qs),
(144,-10,o)
);
}
);
userData = {
assembly = "NPUSHB[ ]	/* 53 values pushed */
23 1 1 3 1 76 0 1 3 2 3 1 2 128 0 3 3 4 97 0 4 4 48 77 0 2 2 0 97 5 1 0 0 46 0 78 1 0 31 29 19 17 11 9 6 5 0 37 1 37 6 9 22 
CALL[ ]	/* CallFunction */";
};
width = 362;
}
);
note = c;
unicode = 99;
},
{
glyphname = d;
layers = (
{
layerId = m01;
shapes = (
{
closed = 1;
nodes = (
(345,556,o),
(350,556,qs),
(354,556,ls),
(372,556,o),
(395,527,o),
(395,503,qs),
(395,6,ls),
(395,0,o),
(390,0,qs),
(350,0,ls),
(345,0,o),
(345,6,qs),
(345,57,l),
(303,-9,o),
(216,-9,qs),
(143,-9,o),
(95,40,qs),
(44,93,o),
(44,178,qs),
(44,255,o),
(87,307,qs),
(137,367,o),
(219,367,qs),
(304,367,o),
(345,305,q),
(345,549,ls)
);
},
{
closed = 1;
nodes = (
(298,64,qs),
(344,100,o),
(344,178,qs),
(344,248,o),
(307,285,qs),
(274,320,o),
(219,320,qs),
(166,320,o),
(132,285,qs),
(94,246,o),
(94,178,qs),
(94,116,o),
(127,78,qs),
(162,38,o),
(214,38,qs),
(265,38,o)
);
}
);
userData = {
assembly = "NPUSHB[ ]	/* 59 values pushed */
12 0 2 4 5 18 13 2 2 4 2 76 0 3 3 39 77 0 5 5 0 97 0 0 0 48 77 0 2 2 40 77 6 1 4 4 1 97 0 1 1 49 1 78 27 26 35 33 26 41 27 41 53 20 38 33 7 9 26 
CALL[ ]	/* CallFunction */";
};
width = 454;
}
);
note = d;
unicode = 100;
},
{
glyphname = e;
kernLeft = e;
kernRight = e;
layers = (
{
layerId = m01;
shapes = (
{
closed = 1;
nodes = (
(131,70,qs),
(166,37,o),
(226,37,qs),
(293,37,o),
(340,82,qs),
(341,83,o),
(341,84,q),
(348,92,o),
(352,92,qs),
(360,92,o),
(360,78,qs),
(360,47,o),
(326,22,qs),
(284,-9,o),
(222,-9,qs),
(156,-9,o),
(109,27,qs),
(44,77,o),
(44,178,qs),
(44,255,o),
(85,307,qs),
(132,367,o),
(208,367,qs),
(283,367,o),
(324,322,qs),
(365,277,o),
(365,201,qs),
(365,179,o),
(364,171,qs),
(363,160,o),
(351,160,qs),
(95,160,l),
(99,102,o)
);
},
{
closed = 1;
nodes = (
(316,321,o),
(207,321,qs),
(160,321,o),
(101,259,o),
(95,203,q),
(314,203,l)
);
}
);
userData = {
assembly = "NPUSHB[ ]	/* 53 values pushed */
0 3 0 4 0 3 4 128 7 1 6 0 0 3 6 0 103 0 5 5 1 97 0 1 1 48 77 0 4 4 2 97 0 2 2 49 2 78 33 33 33 38 33 38 37 37 20 38 38 32 8 9 28 
CALL[ ]	/* CallFunction */";
};
width = 406;
}
);
note = e;
unicode = 101;
},
{
glyphname = f;
kernLeft = f;
layers = (
{
layerId = m01;
shapes = (
{
closed = 1;
nodes = (
(16,315,o),
(16,321,qs),
(16,354,ls),
(16,360,o),
(21,360,qs),
(84,360,l),
(84,464,ls),
(84,509,o),
(130,562,o),
(170,562,qs),
(199,562,o),
(245,521,o),
(245,495,qs),
(245,485,o),
(238,485,qs),
(234,485,o),
(230,489,qs),
(204,516,o),
(177,516,qs),
(134,516,o),
(134,461,qs),
(134,360,l),
(223,360,ls),
(228,360,o),
(228,354,qs),
(228,321,ls),
(228,315,o),
(223,315,qs),
(134,315,l),
(134,6,ls),
(134,0,o),
(129,0,qs),
(89,0,ls),
(84,0,o),
(84,6,qs),
(84,315,l),
(21,315,ls)
);
}
);
userData = {
assembly = "NPUSHB[ ]	/* 67 values pushed */
34 33 11 10 4 1 2 6 1 2 0 1 2 76 0 4 3 2 3 4 2 128 0 3 3 5 97 0 5 5 39 77 8 7 2 1 1 2 95 6 1 2 2 42 77 0 0 0 40 0 78 0 0 0 36 0 36 19 35 34 34 21 19 19 9 9 29 
CALL[ ]	/* CallFunction */";
};
width = 268;
}
);
note = f;
unicode = 102;
},
{
glyphname = g;
layers = (
{
layerId = m01;
shapes = (
{
closed = 1;
nodes = (
(216,-9,qs),
(143,-9,o),
(95,40,qs),
(44,93,o),
(44,178,qs),
(44,255,o),
(87,307,qs),
(137,367,o),
(219,367,qs),
(304,367,o),
(345,305,q),
(345,359,o),
(385,359,qs),
(390,359,ls),
(395,359,o),
(395,354,qs),
(395,7,ls),
(395,-70,o),
(355,-116,qs),
(308,-171,o),
(214,-171,qs),
(157,-171,o),
(64,-115,o),
(64,-81,qs),
(64,-67,o),
(72,-67,qs),
(76,-67,o),
(83,-74,qs),
(131,-121,o),
(211,-121,qs),
(345,-121,o),
(345,7,qs),
(345,57,l),
(303,-9,o)
);
},
{
closed = 1;
nodes = (
(298,64,qs),
(344,100,o),
(344,178,qs),
(344,248,o),
(307,285,qs),
(274,320,o),
(219,320,qs),
(166,320,o),
(132,285,qs),
(94,246,o),
(94,178,qs),
(94,116,o),
(127,78,qs),
(162,38,o),
(214,38,qs),
(265,38,o)
);
}
);
userData = {
assembly = "NPUSHB[ ]	/* 11 values pushed */
17 1 7 3 22 0 2 6 7 2 76 
MPPEM[ ]	/* MeasurePixelPerEm */
PUSHB[ ]	/* 1 value pushed */
23 
LT[ ]	/* LessThan */
IF[ ]	/* If */
NPUSHB[ ]	/* 41 values pushed */
0 1 5 0 5 1 0 128 0 7 7 3 97 4 1 3 3 42 77 8 1 6 6 5 97 0 5 5 49 77 0 0 0 2 97 0 2 2 44 2 78 
ELSE[ ]	/* Else */
NPUSHB[ ]	/* 45 values pushed */
0 1 5 0 5 1 0 128 0 3 3 42 77 0 7 7 4 97 0 4 4 48 77 8 1 6 6 5 97 0 5 5 49 77 0 0 0 2 97 0 2 2 44 2 78 
EIF[ ]	/* EndIf */
NPUSHB[ ]	/* 17 values pushed */
35 34 43 41 34 49 35 49 38 34 38 35 34 34 9 9 28 
CALL[ ]	/* CallFunction */";
};
width = 454;
}
);
note = g;
unicode = 103;
},
{
glyphname = h;
layers = (
{
layerId = m01;
shapes = (
{
closed = 1;
nodes = (
(192,367,o),
(232,367,qs),
(296,367,o),
(336,329,qs),
(381,286,o),
(381,215,qs),
(381,6,ls),
(381,0,o),
(376,0,qs),
(336,0,ls),
(331,0,o),
(331,6,qs),
(331,200,ls),
(331,257,o),
(274,320,o),
(224,320,qs),
(110,320,o),
(110,193,qs),
(110,6,ls),
(110,0,o),
(105,0,qs),
(65,0,ls),
(60,0,o),
(60,6,qs),
(60,549,ls),
(60,556,o),
(65,556,qs),
(70,556,ls),
(88,556,o),
(110,527,o),
(110,503,qs),
(110,307,l),
(127,334,o)
);
}
);
userData = {
assembly = "NPUSHB[ ]	/* 40 values pushed */
25 20 13 8 0 5 1 2 1 76 0 0 0 39 77 0 2 2 4 97 0 4 4 48 77 3 1 1 1 40 1 78 38 21 36 20 51 5 9 27 
CALL[ ]	/* CallFunction */";
};
width = 439;
}
);
note = h;
unicode = 104;
},
{
glyphname = i;
kernLeft = i;
kernRight = i;
layers = (
{
layerId = m01;
shapes = (
{
closed = 1;
nodes = (
(60,6,qs),
(60,354,ls),
(60,360,o),
(65,360,qs),
(69,360,ls),
(87,360,o),
(110,331,o),
(110,308,qs),
(110,6,ls),
(110,0,o),
(105,0,qs),
(65,0,ls),
(60,0,o)
);
},
{
closed = 1;
nodes = (
(72,492,o),
(86,492,qs),
(100,492,o),
(120,472,o),
(120,458,qs),
(120,445,o),
(100,426,o),
(86,426,qs),
(72,426,o),
(53,445,o),
(53,458,qs),
(53,472,o)
);
}
);
userData = {
assembly = "NPUSHB[ ]	/* 33 values pushed */
11 3 2 0 1 1 76 0 3 0 2 1 3 2 105 0 1 1 42 77 0 0 0 40 0 78 36 38 53 16 4 9 26 
CALL[ ]	/* CallFunction */";
};
width = 170;
}
);
note = i;
unicode = 105;
},
{
glyphname = j;
layers = (
{
layerId = m01;
shapes = (
{
closed = 1;
nodes = (
(20,-124,qs),
(60,-124,o),
(60,-61,qs),
(60,354,ls),
(60,359,o),
(65,359,qs),
(70,359,ls),
(88,359,o),
(110,331,o),
(110,308,qs),
(110,-67,ls),
(110,-171,o),
(31,-171,qs),
(1,-171,o),
(-48,-127,o),
(-48,-100,qs),
(-48,-90,o),
(-41,-90,qs),
(-38,-90,o),
(-35,-92,qs),
(-33,-93,l),
(-8,-124,o)
);
},
{
closed = 1;
nodes = (
(72,492,o),
(86,492,qs),
(99,492,o),
(119,472,o),
(119,459,qs),
(119,445,o),
(99,426,o),
(86,426,qs),
(72,426,o),
(53,445,o),
(53,459,qs),
(53,472,o)
);
}
);
userData = {
assembly = "NPUSHB[ ]	/* 41 values pushed */
0 0 2 3 2 0 3 128 0 5 0 4 2 5 4 105 0 2 2 42 77 0 3 3 1 97 0 1 1 44 1 78 36 35 35 52 35 34 6 9 28 
CALL[ ]	/* CallFunction */";
};
width = 170;
}
);
note = j;
unicode = 106;
},
{
glyphname = k;
layers = (
{
layerId = m01;
shapes = (
{
closed = 1;
nodes = (
(110,0,o),
(105,0,qs),
(65,0,ls),
(60,0,o),
(60,6,qs),
(60,549,ls),
(60,556,o),
(65,556,qs),
(70,556,ls),
(88,556,o),
(110,527,o),
(110,503,qs),
(110,207,l),
(259,351,ls),
(267,359,o),
(279,359,qs),
(318,359,ls),
(320,359,o),
(322,355,o),
(321,354,qs),
(194,230,l),
(339,6,l),
(342,0,o),
(336,0,qs),
(296,0,ls),
(284,0,o),
(278,10,qs),
(159,196,l),
(110,148,l),
(110,6,ls)
);
}
);
userData = {
assembly = "NPUSHB[ ]	/* 35 values pushed */
29 24 16 8 1 0 6 0 1 1 76 0 2 2 39 77 0 1 1 42 77 3 1 0 0 40 0 78 20 53 39 35 4 9 26 
CALL[ ]	/* CallFunction */";
};
width = 354;
}
);
note = k;
unicode = 107;
},
{
glyphname = l;
kernRight = l;
layers = (
{
layerId = m01;
shapes = (
{
closed = 1;
nodes = (
(59,89,qs),
(59,549,ls),
(59,556,o),
(64,556,qs),
(69,556,ls),
(87,556,o),
(109,527,o),
(109,504,qs),
(109,92,ls),
(109,41,o),
(150,41,qs),
(179,41,o),
(201,71,qs),
(206,77,o),
(209,77,qs),
(217,77,o),
(217,63,qs),
(217,34,o),
(172,-9,o),
(141,-9,qs),
(59,-9,o)
);
}
);
userData = {
assembly = "NPUSHB[ ]	/* 40 values pushed */
0 1 3 2 3 1 2 128 0 3 3 39 77 0 2 2 0 97 4 1 0 0 49 0 78 1 0 17 14 10 8 5 4 0 20 1 20 5 9 22 
CALL[ ]	/* CallFunction */";
};
width = 220;
}
);
note = l;
unicode = 108;
},
{
glyphname = m;
layers = (
{
layerId = m01;
shapes = (
{
closed = 1;
nodes = (
(229,367,qs),
(319,367,o),
(356,297,q),
(404,367,o),
(489,367,qs),
(555,367,o),
(595,329,qs),
(639,287,o),
(639,215,qs),
(639,6,ls),
(639,0,o),
(634,0,qs),
(594,0,ls),
(589,0,o),
(589,6,qs),
(589,200,ls),
(589,258,o),
(535,320,o),
(484,320,qs),
(374,320,o),
(374,193,qs),
(374,6,ls),
(374,0,o),
(369,0,qs),
(330,0,ls),
(325,0,o),
(325,6,qs),
(325,200,ls),
(325,258,o),
(271,320,o),
(221,320,qs),
(110,320,o),
(110,193,qs),
(110,6,ls),
(110,0,o),
(105,0,qs),
(65,0,ls),
(60,0,o),
(60,6,qs),
(60,354,ls),
(60,360,o),
(65,360,qs),
(70,360,ls),
(88,360,o),
(110,330,o),
(110,307,q),
(146,367,o)
);
}
);
userData = {
assembly = "NPUSHB[ ]	/* 13 values pushed */
43 36 31 24 19 12 7 0 8 1 2 1 76 
MPPEM[ ]	/* MeasurePixelPerEm */
PUSHB[ ]	/* 1 value pushed */
27 
LT[ ]	/* LessThan */
IF[ ]	/* If */
NPUSHB[ ]	/* 21 values pushed */
4 1 2 2 0 97 7 6 2 0 0 42 77 5 3 2 1 1 40 1 78 
ELSE[ ]	/* Else */
NPUSHB[ ]	/* 25 values pushed */
0 0 0 42 77 4 1 2 2 6 97 7 1 6 6 48 77 5 3 2 1 1 40 1 78 
EIF[ ]	/* EndIf */
NPUSHB[ ]	/* 11 values pushed */
34 38 21 36 21 36 20 50 8 9 30 
CALL[ ]	/* CallFunction */";
};
width = 697;
}
);
note = m;
unicode = 109;
},
{
glyphname = n;
kernLeft = n;
kernRight = n;
layers = (
{
layerId = m01;
shapes = (
{
closed = 1;
nodes = (
(231,367,qs),
(295,367,o),
(335,329,qs),
(380,286,o),
(380,214,qs),
(380,6,ls),
(380,0,o),
(375,0,qs),
(335,0,ls),
(330,0,o),
(330,6,qs),
(330,200,ls),
(330,257,o),
(273,320,o),
(222,320,qs),
(109,320,o),
(109,193,qs),
(109,6,ls),
(109,0,o),
(104,0,qs),
(64,0,ls),
(59,0,o),
(59,6,qs),
(59,354,ls),
(59,360,o),
(64,360,qs),
(69,360,ls),
(87,360,o),
(110,331,o),
(110,307,q),
(147,367,o)
);
}
);
userData = {
assembly = "NPUSHB[ ]	/* 10 values pushed */
24 19 12 7 0 5 1 2 1 76 
MPPEM[ ]	/* MeasurePixelPerEm */
PUSHB[ ]	/* 1 value pushed */
27 
LT[ ]	/* LessThan */
IF[ ]	/* If */
NPUSHB[ ]	/* 18 values pushed */
0 2 2 0 97 4 1 0 0 42 77 3 1 1 1 40 1 78 
ELSE[ ]	/* Else */
NPUSHB[ ]	/* 22 values pushed */
0 0 0 42 77 0 2 2 4 97 0 4 4 48 77 3 1 1 1 40 1 78 
EIF[ ]	/* EndIf */
PUSHB[ ]	/* 8 values pushed */
38 21 36 20 50 5 9 27 
CALL[ ]	/* CallFunction */";
};
width = 439;
}
);
note = n;
unicode = 110;
},
{
glyphname = o;
kernLeft = o;
kernRight = o;
layers = (
{
layerId = m01;
shapes = (
{
closed = 1;
nodes = (
(99,35,qs),
(44,87,o),
(44,178,qs),
(44,257,o),
(87,308,qs),
(136,367,o),
(220,367,qs),
(295,367,o),
(343,321,qs),
(398,269,o),
(398,179,qs),
(398,100,o),
(356,50,qs),
(307,-9,o),
(221,-9,qs),
(147,-9,o)
);
},
{
closed = 1;
nodes = (
(308,71,qs),
(348,109,o),
(348,178,qs),
(348,237,o),
(316,276,qs),
(280,320,o),
(220,320,qs),
(167,320,o),
(133,286,qs),
(95,247,o),
(95,179,qs),
(95,120,o),
(124,82,qs),
(159,38,o),
(220,38,qs),
(274,38,o)
);
}
);
userData = {
assembly = "NPUSHB[ ]	/* 42 values pushed */
0 3 3 1 97 0 1 1 48 77 5 1 2 2 0 97 4 1 0 0 49 0 78 17 16 1 0 25 23 16 31 17 31 9 7 0 15 1 15 6 9 22 
CALL[ ]	/* CallFunction */";
};
width = 443;
}
);
note = o;
unicode = 111;
},
{
glyphname = p;
layers = (
{
layerId = m01;
shapes = (
{
closed = 1;
nodes = (
(110,-160,o),
(105,-160,qs),
(65,-160,ls),
(60,-160,o),
(60,-154,qs),
(60,354,ls),
(60,360,o),
(65,360,qs),
(70,360,ls),
(88,360,o),
(110,331,o),
(110,308,qs),
(110,302,l),
(152,367,o),
(241,367,qs),
(312,367,o),
(358,321,qs),
(411,268,o),
(411,178,qs),
(411,104,o),
(371,52,qs),
(323,-9,o),
(242,-9,qs),
(150,-9,o),
(110,54,q),
(110,-154,ls)
);
},
{
closed = 1;
nodes = (
(317,68,qs),
(359,108,o),
(359,178,qs),
(359,237,o),
(330,275,qs),
(296,320,o),
(236,320,qs),
(188,320,o),
(156,294,qs),
(110,257,o),
(110,178,qs),
(110,111,o),
(148,73,qs),
(184,38,o),
(239,38,qs),
(285,38,o)
);
}
);
userData = {
assembly = "NPUSHB[ ]	/* 12 values pushed */
12 0 2 4 5 25 20 2 3 0 2 76 
MPPEM[ ]	/* MeasurePixelPerEm */
PUSHB[ ]	/* 1 value pushed */
27 
LT[ ]	/* LessThan */
IF[ ]	/* If */
NPUSHB[ ]	/* 28 values pushed */
0 5 5 1 97 2 1 1 1 48 77 6 1 4 4 0 97 0 0 0 49 77 0 3 3 44 3 78 
ELSE[ ]	/* Else */
MPPEM[ ]	/* MeasurePixelPerEm */
PUSHB[ ]	/* 1 value pushed */
36 
LT[ ]	/* LessThan */
IF[ ]	/* If */
NPUSHB[ ]	/* 32 values pushed */
0 2 2 42 77 0 5 5 1 97 0 1 1 48 77 6 1 4 4 0 97 0 0 0 49 77 0 3 3 44 3 78 
ELSE[ ]	/* Else */
NPUSHB[ ]	/* 32 values pushed */
0 3 0 3 134 0 2 2 42 77 0 5 5 1 97 0 1 1 48 77 6 1 4 4 0 97 0 0 0 49 0 78 
EIF[ ]	/* EndIf */
EIF[ ]	/* EndIf */
NPUSHB[ ]	/* 15 values pushed */
27 26 35 33 26 41 27 41 20 52 38 33 7 9 26 
CALL[ ]	/* CallFunction */";
};
width = 454;
}
);
note = p;
unicode = 112;
},
{
glyphname = q;
layers = (
{
layerId = m01;
shapes = (
{
closed = 1;
nodes = (
(216,-9,qs),
(143,-9,o),
(95,40,qs),
(44,93,o),
(44,178,qs),
(44,255,o),
(87,307,qs),
(137,367,o),
(219,367,qs),
(304,367,o),
(345,305,q),
(345,360,o),
(385,360,qs),
(390,360,ls),
(395,360,o),
(395,354,qs),
(395,-154,ls),
(395,-160,o),
(390,-160,qs),
(350,-160,ls),
(345,-160,o),
(345,-154,qs),
(345,57,l),
(303,-9,o)
);
},
{
closed = 1;
nodes = (
(298,64,qs),
(344,100,o),
(344,178,qs),
(344,248,o),
(307,285,qs),
(274,320,o),
(219,320,qs),
(166,320,o),
(132,285,qs),
(94,246,o),
(94,178,qs),
(94,116,o),
(127,78,qs),
(162,38,o),
(214,38,qs),
(265,38,o)
);
}
);
userData = {
assembly = "NPUSHB[ ]	/* 16 values pushed */
7 1 5 1 12 0 2 4 5 6 1 2 0 3 3 76 
MPPEM[ ]	/* MeasurePixelPerEm */
PUSHB[ ]	/* 1 value pushed */
27 
LT[ ]	/* LessThan */
IF[ ]	/* If */
NPUSHB[ ]	/* 28 values pushed */
0 5 5 1 97 2 1 1 1 42 77 6 1 4 4 3 97 0 3 3 49 77 0 0 0 44 0 78 
ELSE[ ]	/* Else */
MPPEM[ ]	/* MeasurePixelPerEm */
PUSHB[ ]	/* 1 value pushed */
36 
LT[ ]	/* LessThan */
IF[ ]	/* If */
NPUSHB[ ]	/* 32 values pushed */
0 1 1 42 77 0 5 5 2 97 0 2 2 48 77 6 1 4 4 3 97 0 3 3 49 77 0 0 0 44 0 78 
ELSE[ ]	/* Else */
NPUSHB[ ]	/* 32 values pushed */
0 0 3 0 134 0 1 1 42 77 0 5 5 2 97 0 2 2 48 77 6 1 4 4 3 97 0 3 3 49 3 78 
EIF[ ]	/* EndIf */
EIF[ ]	/* EndIf */
NPUSHB[ ]	/* 15 values pushed */
25 24 33 31 24 39 25 39 38 34 37 19 7 9 26 
CALL[ ]	/* CallFunction */";
};
width = 454;
}
);
note = q;
unicode = 113;
},
{
glyphname = r;
kernLeft = r;
layers = (
{
layerId = m01;
shapes = (
{
closed = 1;
nodes = (
(110,332,o),
(110,309,q),
(139,360,o),
(220,360,qs),
(231,360,ls),
(236,360,o),
(236,354,qs),
(236,316,ls),
(236,309,o),
(231,309,qs),
(210,309,ls),
(157,309,o),
(110,254,o),
(110,192,qs),
(110,6,ls),
(110,0,o),
(105,0,qs),
(65,0,ls),
(60,0,o),
(60,6,qs),
(60,354,ls),
(60,360,o),
(65,360,qs),
(70,360,ls),
(88,360,o)
);
}
);
userData = {
assembly = "NPUSHB[ ]	/* 50 values pushed */
17 16 2 2 0 9 4 2 1 2 2 76 22 1 2 1 75 0 2 2 0 97 3 4 2 0 0 42 77 0 1 1 40 1 78 2 0 21 19 14 12 7 6 0 24 2 24 5 9 22 
CALL[ ]	/* CallFunction */";
};
width = 267;
}
);
note = r;
unicode = 114;
},
{
glyphname = s;
kernLeft = s;
layers = (
{
layerId = m01;
shapes = (
{
closed = 1;
nodes = (
(147,36,qs),
(233,36,o),
(233,94,qs),
(233,128,o),
(162,156,qs),
(100,180,o),
(84,189,qs),
(32,219,o),
(32,267,qs),
(32,306,o),
(61,334,qs),
(97,367,o),
(156,367,qs),
(207,367,o),
(246,349,qs),
(273,336,o),
(266,312,qs),
(262,297,ls),
(261,291,o),
(257,291,qs),
(255,291,o),
(252,293,qs),
(204,320,o),
(156,320,qs),
(121,320,o),
(82,294,o),
(82,271,qs),
(82,239,o),
(153,212,qs),
(213,189,o),
(231,178,qs),
(283,148,o),
(283,99,qs),
(283,52,o),
(252,23,qs),
(216,-11,o),
(149,-11,qs),
(100,-11,o),
(25,40,o),
(25,73,qs),
(25,88,o),
(35,88,qs),
(40,88,o),
(44,82,q),
(83,36,o)
);
}
);
userData = {
assembly = "NPUSHB[ ]	/* 43 values pushed */
24 1 0 2 1 76 0 0 2 4 2 0 4 128 0 2 2 3 97 0 3 3 48 77 0 4 4 1 97 0 1 1 46 1 78 42 41 43 35 33 5 9 27 
CALL[ ]	/* CallFunction */";
};
width = 309;
}
);
note = s;
unicode = 115;
},
{
glyphname = t;
layers = (
{
layerId = m01;
shapes = (
{
closed = 1;
nodes = (
(19,315,o),
(19,321,qs),
(19,354,ls),
(19,360,o),
(24,360,qs),
(92,360,l),
(92,484,ls),
(92,491,o),
(96,491,qs),
(101,491,ls),
(119,491,o),
(142,462,o),
(142,439,qs),
(142,360,l),
(216,360,ls),
(221,360,o),
(221,354,qs),
(221,321,ls),
(221,315,o),
(216,315,qs),
(142,315,l),
(142,6,ls),
(142,0,o),
(137,0,qs),
(96,0,ls),
(92,0,o),
(92,6,qs),
(92,315,l),
(24,315,ls)
);
}
);
userData = {
assembly = "NPUSHB[ ]	/* 52 values pushed */
26 25 11 10 4 1 2 6 1 2 0 1 2 76 6 5 2 1 1 2 95 4 1 2 2 42 77 0 3 3 0 95 0 0 0 40 0 78 0 0 0 28 0 28 18 51 21 19 19 7 9 27 
CALL[ ]	/* CallFunction */";
};
width = 249;
}
);
note = t;
unicode = 116;
},
{
glyphname = u;
kernLeft = u;
kernRight = u;
layers = (
{
layerId = m01;
shapes = (
{
closed = 1;
nodes = (
(104,28,qs),
(59,72,o),
(59,159,qs),
(59,354,ls),
(59,360,o),
(63,360,qs),
(68,360,ls),
(87,360,o),
(110,331,o),
(110,308,qs),
(110,156,ls),
(110,98,o),
(162,36,o),
(211,36,qs),
(314,36,o),
(314,153,qs),
(314,354,ls),
(314,360,o),
(319,360,qs),
(323,360,ls),
(341,360,o),
(364,331,o),
(364,308,qs),
(364,156,ls),
(364,83,o),
(328,39,qs),
(288,-10,o),
(211,-10,qs),
(143,-10,o)
);
}
);
userData = {
assembly = "NPUSHB[ ]	/* 33 values pushed */
3 1 1 1 42 77 0 2 2 0 97 4 1 0 0 46 0 78 1 0 23 20 15 13 10 7 0 28 1 28 5 9 22 
CALL[ ]	/* CallFunction */";
};
width = 423;
}
);
note = u;
unicode = 117;
},
{
glyphname = v;
layers = (
{
layerId = m01;
shapes = (
{
closed = 1;
nodes = (
(263,360,o),
(275,360,qs),
(308,360,ls),
(314,360,o),
(312,354,qs),
(190,5,ls),
(188,0,o),
(183,0,qs),
(148,0,ls),
(143,0,o),
(141,5,qs),
(19,354,ls),
(17,360,o),
(24,360,qs),
(36,360,ls),
(71,360,o),
(84,321,qs),
(166,70,l),
(259,350,ls)
);
}
);
userData = {
assembly = "NPUSHB[ ]	/* 18 values pushed */
2 1 0 0 42 77 0 1 1 40 1 78 52 35 50 3 9 25 
CALL[ ]	/* CallFunction */";
};
width = 329;
}
);
note = v;
unicode = 118;
},
{
glyphname = w;
layers = (
{
layerId = m01;
shapes = (
{
closed = 1;
nodes = (
(253,360,o),
(260,360,qs),
(269,360,ls),
(299,360,o),
(313,319,qs),
(395,72,l),
(475,350,ls),
(478,360,o),
(491,360,qs),
(524,360,ls),
(530,360,o),
(528,354,qs),
(418,5,ls),
(416,0,o),
(411,0,qs),
(377,0,ls),
(372,0,o),
(370,5,qs),
(276,291,l),
(181,5,ls),
(179,0,o),
(174,0,qs),
(140,0,ls),
(135,0,o),
(133,5,qs),
(25,354,ls),
(23,360,o),
(29,360,qs),
(40,360,ls),
(77,360,o),
(88,321,qs),
(159,72,l),
(250,353,ls)
);
}
);
userData = {
assembly = "NPUSHB[ ]	/* 29 values pushed */
26 13 2 1 0 1 76 4 3 2 0 0 42 77 2 1 1 1 40 1 78 52 52 37 36 34 5 9 27 
CALL[ ]	/* CallFunction */";
};
width = 551;
}
);
note = w;
unicode = 119;
},
{
glyphname = x;
layers = (
{
layerId = m01;
shapes = (
{
closed = 1;
nodes = (
(66,0,o),
(57,0,qs),
(19,0,ls),
(13,0,o),
(16,6,q),
(136,191,l),
(32,354,ls),
(28,360,o),
(36,360,qs),
(52,360,ls),
(70,360,o),
(95,342,o),
(112,316,qs),
(168,228,l),
(245,349,ls),
(251,360,o),
(263,360,qs),
(297,360,ls),
(304,360,o),
(300,354,qs),
(198,194,l),
(322,6,l),
(325,0,o),
(318,0,qs),
(281,0,ls),
(271,0,o),
(265,10,qs),
(167,159,l),
(73,10,ls)
);
}
);
userData = {
assembly = "NPUSHB[ ]	/* 28 values pushed */
22 14 7 3 0 1 1 76 2 1 1 1 42 77 3 1 0 0 40 0 78 52 53 52 50 4 9 26 
CALL[ ]	/* CallFunction */";
};
width = 336;
}
);
note = x;
unicode = 120;
},
{
glyphname = y;
kernLeft = y;
kernRight = y;
layers = (
{
layerId = m01;
shapes = (
{
closed = 1;
nodes = (
(16,360,o),
(22,360,qs),
(35,360,ls),
(69,360,o),
(83,320,qs),
(165,63,l),
(258,350,ls),
(261,360,o),
(273,360,qs),
(307,360,ls),
(313,360,o),
(311,354,qs),
(180,-19,ls),
(148,-110,o),
(99,-171,o),
(58,-171,qs),
(30,-171,o),
(-13,-132,o),
(-13,-106,qs),
(-13,-93,o),
(-4,-93,qs),
(0,-93,o),
(5,-98,qs),
(30,-124,o),
(55,-124,qs),
(81,-124,o),
(113,-79,o),
(140,-5,q),
(18,354,ls)
);
}
);
userData = {
assembly = "NPUSHB[ ]	/* 39 values pushed */
22 1 1 3 1 76 0 1 3 0 3 1 0 128 4 1 3 3 42 77 0 0 0 2 97 0 2 2 44 2 78 36 52 35 34 34 5 9 27 
CALL[ ]	/* CallFunction */";
};
width = 329;
}
);
note = y;
unicode = 121;
},
{
glyphname = z;
kernLeft = z;
kernRight = z;
layers = (
{
layerId = m01;
shapes = (
{
closed = 1;
nodes = (
(284,44,o),
(284,39,qs),
(284,6,ls),
(284,0,o),
(279,0,qs),
(40,0,ls),
(35,0,o),
(35,6,qs),
(35,36,ls),
(35,46,o),
(48,62,qs),
(247,315,l),
(44,315,ls),
(39,315,o),
(39,321,qs),
(39,354,ls),
(39,360,o),
(44,360,qs),
(241,360,ls),
(266,360,o),
(287,340,o),
(287,315,qs),
(287,292,o),
(273,274,qs),
(92,45,l),
(279,45,l)
);
}
);
userData = {
assembly = "NPUSHB[ ]	/* 47 values pushed */
10 9 2 1 0 23 22 17 3 2 3 2 76 0 1 1 0 95 0 0 0 42 77 4 1 3 3 2 95 0 2 2 40 2 78 0 0 0 25 0 25 22 21 37 5 9 25 
CALL[ ]	/* CallFunction */";
};
width = 323;
}
);
note = z;
unicode = 122;
},
{
glyphname = braceleft;
layers = (
{
layerId = m01;
shapes = (
{
closed = 1;
nodes = (
(140,-144,o),
(108,-113,o),
(108,-88,qs),
(108,216,ls),
(108,250,o),
(69,255,qs),
(60,256,o),
(60,264,qs),
(60,288,ls),
(60,296,o),
(69,297,qs),
(108,300,o),
(108,337,qs),
(108,639,ls),
(108,664,o),
(140,696,o),
(165,696,qs),
(266,696,ls),
(273,696,o),
(273,689,qs),
(273,686,ls),
(273,652,o),
(234,652,qs),
(178,652,ls),
(155,652,o),
(155,628,qs),
(155,334,ls),
(155,297,o),
(131,276,q),
(155,257,o),
(155,218,qs),
(155,-77,ls),
(155,-101,o),
(178,-101,qs),
(234,-101,ls),
(273,-101,o),
(273,-134,qs),
(273,-137,ls),
(273,-144,o),
(266,-144,qs),
(165,-144,ls)
);
}
);
userData = {
assembly = "NPUSHB[ ]	/* 46 values pushed */
11 1 1 2 1 76 0 3 0 2 1 3 2 105 0 1 0 0 1 89 0 1 1 0 95 4 1 0 1 0 79 1 0 24 21 18 15 7 4 0 40 1 39 5 9 22 
CALL[ ]	/* CallFunction */";
};
width = 326;
}
);
note = braceleft;
unicode = 123;
},
{
glyphname = bar;
layers = (
{
layerId = m01;
shapes = (
{
closed = 1;
nodes = (
(69,-143,qs),
(69,561,ls),
(69,567,o),
(74,567,qs),
(92,567,o),
(115,537,o),
(115,514,qs),
(115,-143,ls),
(115,-149,o),
(110,-149,qs),
(74,-149,ls),
(69,-149,o)
);
}
);
userData = {
assembly = "PUSHB[ ]	/* 8 values pushed */
10 9 3 3 0 1 1 76 
MPPEM[ ]	/* MeasurePixelPerEm */
PUSHB[ ]	/* 1 value pushed */
36 
LT[ ]	/* LessThan */
IF[ ]	/* If */
NPUSHB[ ]	/* 11 values pushed */
0 0 1 0 134 0 1 1 39 1 78 
ELSE[ ]	/* Else */
NPUSHB[ ]	/* 9 values pushed */
0 1 0 1 133 0 0 0 118 
EIF[ ]	/* EndIf */
PUSHB[ ]	/* 5 values pushed */
21 16 2 9 24 
CALL[ ]	/* CallFunction */";
};
width = 184;
}
);
note = bar;
unicode = 124;
},
{
glyphname = braceright;
layers = (
{
layerId = m01;
shapes = (
{
closed = 1;
nodes = (
(53,-144,o),
(53,-137,qs),
(53,-134,ls),
(53,-101,o),
(92,-101,qs),
(149,-101,ls),
(171,-101,o),
(171,-77,qs),
(171,218,ls),
(171,257,o),
(196,276,q),
(171,297,o),
(171,334,qs),
(171,628,ls),
(171,652,o),
(149,652,qs),
(92,652,ls),
(53,652,o),
(53,686,qs),
(53,689,ls),
(53,696,o),
(60,696,qs),
(161,696,ls),
(187,696,o),
(219,664,o),
(219,639,qs),
(219,337,ls),
(219,300,o),
(257,297,qs),
(266,296,o),
(266,288,qs),
(266,264,ls),
(266,256,o),
(257,255,qs),
(219,250,o),
(219,216,qs),
(219,-88,ls),
(219,-113,o),
(187,-144,o),
(161,-144,qs),
(60,-144,ls)
);
}
);
userData = {
assembly = "NPUSHB[ ]	/* 46 values pushed */
29 1 3 2 1 76 0 1 0 2 3 1 2 103 0 3 0 0 3 87 0 3 3 0 95 4 1 0 3 0 79 1 0 36 33 25 22 19 16 0 40 1 39 5 9 22 
CALL[ ]	/* CallFunction */";
};
width = 326;
}
);
note = braceright;
unicode = 125;
},
{
glyphname = asciitilde;
layers = (
{
layerId = m01;
shapes = (
{
closed = 1;
nodes = (
(48,259,o),
(57,265,qs),
(90,288,o),
(126,288,qs),
(148,288,o),
(182,278,qs),
(222,265,o),
(242,265,qs),
(265,265,o),
(292,275,o),
(313,293,qs),
(320,298,o),
(320,291,qs),
(320,267,ls),
(320,250,o),
(311,242,qs),
(281,218,o),
(242,218,qs),
(220,218,o),
(187,229,qs),
(146,242,o),
(126,242,qs),
(104,242,o),
(76,230,o),
(55,213,q),
(53,210,o),
(48,212,o),
(48,215,qs),
(48,240,ls)
);
}
);
userData = {
assembly = "PUSHB[ ]	/* 2 values pushed */
6 100 
WCVTP[ ]	/* WriteCVTInPixels */
NPUSHB[ ]	/* 35 values pushed */
0 1 1 73 0 2 0 1 2 89 0 3 0 0 1 3 0 105 0 2 2 1 97 0 1 2 1 81 34 40 34 37 4 9 26 
CALL[ ]	/* CallFunction */
PUSHB[ ]	/* 2 values pushed */
6 0 
WCVTP[ ]	/* WriteCVTInPixels */";
};
width = 368;
}
);
note = asciitilde;
unicode = 126;
},
{
glyphname = exclamdown;
layers = (
{
layerId = m01;
shapes = (
{
closed = 1;
nodes = (
(31,312,o),
(31,329,qs),
(31,347,o),
(55,372,o),
(72,372,qs),
(89,372,o),
(113,347,o),
(113,329,qs),
(113,312,o),
(89,287,o),
(72,287,qs),
(55,287,o)
);
},
{
closed = 1;
nodes = (
(47,-199,o),
(47,-193,qs),
(49,216,ls),
(49,222,o),
(54,222,qs),
(92,222,o),
(93,170,qs),
(97,-193,ls),
(97,-199,o),
(92,-199,qs),
(52,-199,ls)
);
}
);
userData = {
assembly = "NPUSHB[ ]	/* 47 values pushed */
20 19 14 3 3 2 1 76 0 2 5 1 3 2 3 99 4 1 0 0 1 97 0 1 1 48 0 78 12 12 1 0 12 22 12 22 17 16 7 5 0 11 1 11 6 9 22 
CALL[ ]	/* CallFunction */";
};
width = 143;
}
);
note = exclamdown;
unicode = 161;
},
{
glyphname = cent;
layers = (
{
layerId = m01;
shapes = (
{
closed = 1;
nodes = (
(232,-71,o),
(227,-71,qs),
(190,-71,ls),
(185,-71,o),
(185,-65,qs),
(185,-8,l),
(123,0,o),
(84,44,qs),
(40,94,o),
(40,177,qs),
(40,247,o),
(75,297,qs),
(115,354,o),
(185,364,q),
(185,421,ls),
(185,427,o),
(190,427,qs),
(227,427,ls),
(232,427,o),
(232,421,qs),
(232,367,l),
(268,365,o),
(303,349,qs),
(330,337,o),
(324,313,qs),
(320,298,ls),
(318,292,o),
(315,292,qs),
(312,292,o),
(309,294,qs),
(268,316,o),
(232,319,q),
(232,38,l),
(283,42,o),
(316,82,qs),
(317,83,ls),
(322,89,o),
(326,89,qs),
(336,89,o),
(336,74,qs),
(336,48,o),
(310,24,qs),
(279,-4,o),
(232,-9,q),
(232,-65,ls)
);
},
{
closed = 1;
nodes = (
(140,307,o),
(91,234,o),
(91,178,qs),
(91,61,o),
(185,41,q),
(185,317,l)
);
}
);
userData = {
assembly = "NPUSHB[ ]	/* 56 values pushed */
29 24 2 1 2 50 30 16 12 4 0 1 45 44 39 38 11 0 6 3 0 3 76 0 2 1 2 133 0 0 1 3 1 0 3 128 0 3 3 132 0 1 1 48 1 78 42 41 27 26 23 22 21 4 9 23 
CALL[ ]	/* CallFunction */";
};
width = 359;
}
);
note = cent;
unicode = 162;
},
{
glyphname = sterling;
layers = (
{
layerId = m01;
shapes = (
{
closed = 1;
nodes = (
(429,47,o),
(429,18,qs),
(429,7,ls),
(429,0,o),
(422,0,qs),
(56,0,ls),
(51,0,o),
(51,6,qs),
(51,41,ls),
(51,47,o),
(56,47,qs),
(139,47,l),
(176,120,o),
(176,193,qs),
(176,226,o),
(154,262,q),
(56,262,ls),
(51,262,o),
(51,268,qs),
(51,302,ls),
(51,308,o),
(56,308,qs),
(129,308,l),
(97,365,o),
(97,417,qs),
(97,481,o),
(138,521,qs),
(185,567,o),
(265,567,qs),
(333,567,o),
(392,536,qs),
(431,516,o),
(424,492,qs),
(419,476,ls),
(416,468,o),
(412,468,qs),
(406,468,o),
(399,474,q),
(332,519,o),
(270,519,qs),
(214,519,o),
(147,463,o),
(147,417,qs),
(147,373,o),
(183,308,q),
(348,308,ls),
(378,308,o),
(378,279,qs),
(378,269,ls),
(378,262,o),
(369,262,qs),
(207,262,l),
(224,220,o),
(224,193,qs),
(224,158,o),
(210,105,o),
(185,47,q),
(399,47,ls)
);
}
);
userData = {
assembly = "NPUSHB[ ]	/* 12 values pushed */
38 37 2 0 1 49 48 2 8 7 2 76 
MPPEM[ ]	/* MeasurePixelPerEm */
PUSHB[ ]	/* 1 value pushed */
36 
LT[ ]	/* LessThan */
IF[ ]	/* If */
NPUSHB[ ]	/* 41 values pushed */
0 3 2 1 2 3 1 128 5 1 1 6 1 0 7 1 0 103 0 2 2 4 97 0 4 4 39 77 10 9 2 7 7 8 95 0 8 8 40 8 78 
ELSE[ ]	/* Else */
NPUSHB[ ]	/* 39 values pushed */
0 3 2 1 2 3 1 128 0 4 0 2 3 4 2 105 5 1 1 6 1 0 7 1 0 103 10 9 2 7 7 8 95 0 8 8 40 8 78 
EIF[ ]	/* EndIf */
NPUSHB[ ]	/* 18 values pushed */
0 0 0 57 0 56 37 20 21 21 37 34 36 35 37 11 9 31 
CALL[ ]	/* CallFunction */";
};
width = 473;
}
);
note = sterling;
unicode = 163;
},
{
glyphname = yen;
layers = (
{
layerId = m01;
shapes = (
{
closed = 1;
nodes = (
(44,133,o),
(44,139,qs),
(44,172,ls),
(44,178,o),
(49,178,qs),
(202,178,l),
(202,219,l),
(184,251,l),
(49,251,ls),
(44,251,o),
(44,257,qs),
(44,289,ls),
(44,295,o),
(49,295,qs),
(159,295,l),
(22,548,ls),
(18,556,o),
(26,556,qs),
(42,556,ls),
(61,556,o),
(85,537,o),
(98,513,qs),
(229,275,l),
(377,543,l),
(382,556,o),
(393,556,qs),
(427,556,ls),
(437,556,o),
(432,547,qs),
(293,295,l),
(401,295,ls),
(406,295,o),
(406,289,qs),
(406,257,ls),
(406,251,o),
(401,251,qs),
(271,251,l),
(253,219,l),
(253,178,l),
(401,178,ls),
(406,178,o),
(406,172,qs),
(406,139,ls),
(406,133,o),
(401,133,qs),
(253,133,l),
(253,6,ls),
(253,0,o),
(248,0,qs),
(207,0,ls),
(202,0,o),
(202,6,qs),
(202,133,l),
(49,133,ls)
);
}
);
userData = {
assembly = "NPUSHB[ ]	/* 80 values pushed */
42 41 30 20 19 5 3 4 46 15 2 2 3 51 50 11 10 4 1 2 6 1 2 0 1 4 76 7 1 4 8 1 3 2 4 3 104 9 1 2 11 10 2 1 0 2 1 103 6 1 5 5 39 77 0 0 0 40 0 78 0 0 0 53 0 53 48 47 21 18 53 50 21 18 21 19 19 12 9 31 
CALL[ ]	/* CallFunction */";
};
width = 449;
}
);
note = yen;
unicode = 165;
},
{
glyphname = brokenbar;
layers = (
{
layerId = m01;
shapes = (
{
closed = 1;
nodes = (
(69,277,qs),
(69,561,ls),
(69,567,o),
(74,567,qs),
(92,567,o),
(115,537,o),
(115,514,qs),
(115,277,ls),
(115,272,o),
(110,272,qs),
(74,272,ls),
(69,272,o)
);
},
{
closed = 1;
nodes = (
(69,-143,qs),
(69,140,ls),
(69,146,o),
(74,146,qs),
(110,146,ls),
(115,146,o),
(115,140,qs),
(115,-143,ls),
(115,-149,o),
(110,-149,qs),
(74,-149,ls),
(69,-149,o)
);
}
);
userData = {
assembly = "NPUSHB[ ]	/* 15 values pushed */
10 9 3 3 0 1 22 21 16 15 4 2 3 2 76 
MPPEM[ ]	/* MeasurePixelPerEm */
PUSHB[ ]	/* 1 value pushed */
36 
LT[ ]	/* LessThan */
IF[ ]	/* If */
NPUSHB[ ]	/* 18 values pushed */
0 3 0 2 3 2 99 0 0 0 1 97 0 1 1 39 0 78 
ELSE[ ]	/* Else */
NPUSHB[ ]	/* 24 values pushed */
0 1 0 0 3 1 0 103 0 3 2 2 3 87 0 3 3 2 95 0 2 3 2 79 
EIF[ ]	/* EndIf */
PUSHB[ ]	/* 7 values pushed */
21 21 21 16 4 9 26 
CALL[ ]	/* CallFunction */";
};
width = 184;
}
);
note = brokenbar;
unicode = 166;
},
{
glyphname = section;
layers = (
{
layerId = m01;
shapes = (
{
closed = 1;
nodes = (
(300,255,qs),
(300,279,o),
(261,318,o),
(209,346,qs),
(195,354,o),
(190,357,q),
(108,312,o),
(108,255,qs),
(108,223,o),
(140,196,qs),
(160,180,o),
(226,144,q),
(300,202,o)
);
},
{
closed = 1;
nodes = (
(332,23,qs),
(332,-25,o),
(298,-58,qs),
(258,-97,o),
(196,-97,qs),
(126,-97,o),
(87,-62,qs),
(59,-38,o),
(67,-19,qs),
(71,-8,ls),
(75,2,o),
(82,-4,qs),
(134,-51,o),
(193,-51,qs),
(233,-51,o),
(281,-13,o),
(281,18,qs),
(281,58,o),
(204,105,qs),
(131,148,o),
(118,158,qs),
(61,201,o),
(61,251,qs),
(61,325,o),
(157,377,q),
(121,400,o),
(91,441,o),
(91,467,qs),
(91,509,o),
(121,537,qs),
(155,568,o),
(215,568,qs),
(264,568,o),
(301,549,qs),
(328,537,o),
(322,513,qs),
(318,498,ls),
(317,492,o),
(313,492,qs),
(312,492,o),
(309,493,qs),
(308,493,o),
(307,493,q),
(261,521,o),
(217,521,qs),
(141,521,o),
(141,469,qs),
(141,435,o),
(214,396,qs),
(277,361,o),
(294,349,qs),
(348,309,o),
(348,259,qs),
(348,185,o),
(260,124,q),
(332,75,o)
);
}
);
userData = {
assembly = "PUSHB[ ]	/* 8 values pushed */
43 29 6 3 2 0 1 76 
MPPEM[ ]	/* MeasurePixelPerEm */
PUSHB[ ]	/* 1 value pushed */
34 
LT[ ]	/* LessThan */
IF[ ]	/* If */
NPUSHB[ ]	/* 18 values pushed */
0 2 0 3 2 3 101 0 0 0 1 97 0 1 1 39 0 78 
ELSE[ ]	/* Else */
NPUSHB[ ]	/* 24 values pushed */
0 1 0 0 2 1 0 105 0 2 3 3 2 89 0 2 2 3 97 0 3 2 3 81 
EIF[ ]	/* EndIf */
NPUSHB[ ]	/* 11 values pushed */
64 62 55 53 37 35 24 22 4 9 22 
CALL[ ]	/* CallFunction */";
};
width = 404;
}
);
note = section;
unicode = 167;
},
{
glyphname = dieresis;
layers = (
{
layerId = m01;
shapes = (
{
closed = 1;
nodes = (
(19,492,o),
(33,492,qs),
(47,492,o),
(67,472,o),
(67,458,qs),
(67,445,o),
(47,426,o),
(33,426,qs),
(19,426,o),
(0,445,o),
(0,458,qs),
(0,472,o)
);
},
{
closed = 1;
nodes = (
(131,492,o),
(145,492,qs),
(159,492,o),
(179,472,o),
(179,458,qs),
(179,445,o),
(159,426,o),
(145,426,qs),
(131,426,o),
(112,445,o),
(112,458,qs),
(112,472,o)
);
}
);
userData = {
assembly = "PUSHB[ ]	/* 2 values pushed */
6 100 
WCVTP[ ]	/* WriteCVTInPixels */
NPUSHB[ ]	/* 26 values pushed */
3 1 1 0 0 1 89 3 1 1 1 0 97 2 1 0 1 0 81 36 36 36 34 4 9 26 
CALL[ ]	/* CallFunction */
PUSHB[ ]	/* 2 values pushed */
6 0 
WCVTP[ ]	/* WriteCVTInPixels */";
};
width = 179;
}
);
note = dieresis;
unicode = 168;
},
{
glyphname = copyright;
layers = (
{
layerId = m01;
shapes = (
{
closed = 1;
nodes = (
(86,494,qs),
(148,563,o),
(256,563,qs),
(349,563,o),
(410,509,qs),
(479,447,o),
(479,340,qs),
(479,247,o),
(425,186,qs),
(363,117,o),
(256,117,qs),
(162,117,o),
(102,171,qs),
(33,232,o),
(33,340,qs),
(33,434,o)
);
},
{
closed = 1;
nodes = (
(385,198,qs),
(442,249,o),
(442,340,qs),
(442,419,o),
(398,469,qs),
(347,527,o),
(256,527,qs),
(177,527,o),
(128,482,qs),
(71,431,o),
(71,340,qs),
(71,261,o),
(115,211,qs),
(166,153,o),
(256,153,qs),
(335,153,o)
);
},
{
closed = 1;
nodes = (
(330,409,qs),
(328,409,o),
(325,412,q),
(297,433,o),
(264,433,qs),
(229,433,o),
(187,382,o),
(187,339,qs),
(187,248,o),
(263,248,qs),
(305,248,o),
(331,283,qs),
(335,288,o),
(337,288,qs),
(342,288,o),
(342,281,qs),
(342,256,o),
(292,217,o),
(260,217,qs),
(215,217,o),
(186,245,qs),
(151,279,o),
(151,340,qs),
(151,392,o),
(180,426,qs),
(211,463,o),
(264,463,qs),
(297,463,o),
(320,451,qs),
(336,443,o),
(335,431,qs),
(333,413,ls),
(333,409,o)
);
}
);
userData = {
assembly = "PUSHB[ ]	/* 2 values pushed */
6 100 
WCVTP[ ]	/* WriteCVTInPixels */
NPUSHB[ ]	/* 79 values pushed */
63 1 6 8 1 76 0 6 8 7 8 6 7 128 0 1 0 3 4 1 3 105 0 4 0 8 6 4 8 105 0 7 0 5 2 7 5 105 9 1 2 0 0 2 89 9 1 2 2 0 98 0 0 2 0 82 17 16 60 58 55 53 51 49 46 44 38 36 25 23 16 31 17 31 38 35 10 9 24 
CALL[ ]	/* CallFunction */
PUSHB[ ]	/* 2 values pushed */
6 0 
WCVTP[ ]	/* WriteCVTInPixels */";
};
width = 512;
}
);
note = copyright;
unicode = 169;
},
{
glyphname = ordfeminine;
layers = (
{
layerId = m01;
shapes = (
{
closed = 1;
nodes = (
(158,257,qs),
(100,257,o),
(62,295,qs),
(20,337,o),
(20,404,qs),
(20,464,o),
(55,506,qs),
(95,553,o),
(160,553,qs),
(226,553,o),
(260,504,q),
(260,548,o),
(291,548,qs),
(297,548,ls),
(301,548,o),
(301,543,qs),
(301,269,ls),
(301,264,o),
(297,264,qs),
(263,264,ls),
(260,264,o),
(260,269,qs),
(260,308,l),
(225,257,o)
);
},
{
closed = 1;
nodes = (
(257,352,o),
(257,404,qs),
(257,455,o),
(205,513,o),
(160,513,qs),
(119,513,o),
(94,486,qs),
(65,456,o),
(65,404,qs),
(65,356,o),
(116,296,o),
(156,296,qs),
(204,296,o)
);
}
);
userData = {
assembly = "NPUSHB[ ]	/* 16 values pushed */
7 1 5 1 12 0 2 4 5 6 1 2 0 4 3 76 
MPPEM[ ]	/* MeasurePixelPerEm */
PUSHB[ ]	/* 1 value pushed */
22 
LT[ ]	/* LessThan */
IF[ ]	/* If */
NPUSHB[ ]	/* 35 values pushed */
0 0 4 3 4 0 3 128 0 1 1 55 77 0 5 5 2 97 0 2 2 55 77 6 1 4 4 3 97 0 3 3 56 3 78 
ELSE[ ]	/* Else */
MPPEM[ ]	/* MeasurePixelPerEm */
PUSHB[ ]	/* 1 value pushed */
29 
LT[ ]	/* LessThan */
IF[ ]	/* If */
NPUSHB[ ]	/* 32 values pushed */
0 0 4 3 4 0 3 128 6 1 4 0 3 4 3 101 0 1 1 55 77 0 5 5 2 97 0 2 2 55 5 78 
ELSE[ ]	/* Else */
MPPEM[ ]	/* MeasurePixelPerEm */
PUSHB[ ]	/* 1 value pushed */
44 
LT[ ]	/* LessThan */
IF[ ]	/* If */
NPUSHB[ ]	/* 35 values pushed */
0 1 2 5 2 1 5 128 0 0 4 3 4 0 3 128 6 1 4 0 3 4 3 101 0 5 5 2 97 0 2 2 55 5 78 
ELSE[ ]	/* Else */
NPUSHB[ ]	/* 42 values pushed */
0 1 2 5 2 1 5 128 0 0 4 3 4 0 3 128 0 2 0 5 4 2 5 105 6 1 4 0 3 4 89 6 1 4 4 3 97 0 3 4 3 81 
EIF[ ]	/* EndIf */
EIF[ ]	/* EndIf */
EIF[ ]	/* EndIf */
NPUSHB[ ]	/* 15 values pushed */
25 24 32 30 24 36 25 36 38 34 37 19 7 10 26 
CALL[ ]	/* CallFunction */";
};
width = 328;
}
);
note = ordfeminine;
unicode = 170;
},
{
glyphname = guillemotleft;
layers = (
{
layerId = m01;
shapes = (
{
closed = 1;
nodes = (
(337,40,o),
(329,40,qs),
(285,40,ls),
(276,40,o),
(270,48,qs),
(174,170,ls),
(167,179,o),
(167,184,qs),
(167,188,o),
(174,198,qs),
(270,320,ls),
(276,328,o),
(285,328,qs),
(329,328,ls),
(337,328,o),
(332,321,qs),
(228,184,l),
(332,47,ls)
);
},
{
closed = 1;
nodes = (
(199,40,o),
(191,40,qs),
(147,40,ls),
(137,40,o),
(131,48,qs),
(36,170,ls),
(29,179,o),
(29,184,qs),
(29,188,o),
(36,198,qs),
(131,320,ls),
(137,328,o),
(147,328,qs),
(191,328,ls),
(199,328,o),
(194,321,qs),
(90,184,l),
(194,47,ls)
);
}
);
userData = {
assembly = "NPUSHB[ ]	/* 26 values pushed */
2 1 0 1 1 0 89 2 1 0 0 1 97 3 1 1 0 1 81 56 52 56 50 4 9 26 
CALL[ ]	/* CallFunction */";
};
width = 361;
}
);
note = guillemotleft;
unicode = 171;
},
{
glyphname = uni00AD;
layers = (
{
layerId = m01;
shapes = (
{
closed = 1;
nodes = (
(41,186,qs),
(41,221,ls),
(41,227,o),
(46,227,qs),
(260,227,ls),
(265,227,o),
(265,221,qs),
(265,186,ls),
(265,180,o),
(260,180,qs),
(46,180,ls),
(41,180,o)
);
}
);
userData = {
assembly = "NPUSHB[ ]	/* 30 values pushed */
10 9 4 3 4 0 1 1 76 0 1 0 0 1 87 0 1 1 0 95 0 0 1 0 79 21 16 2 9 24 
CALL[ ]	/* CallFunction */";
};
width = 305;
}
);
note = uni00AD;
unicode = 173;
},
{
glyphname = registered;
layers = (
{
layerId = m01;
shapes = (
{
closed = 1;
nodes = (
(86,494,qs),
(148,563,o),
(256,563,qs),
(349,563,o),
(410,509,qs),
(479,447,o),
(479,340,qs),
(479,247,o),
(425,186,qs),
(363,117,o),
(256,117,qs),
(162,117,o),
(102,171,qs),
(33,232,o),
(33,340,qs),
(33,434,o)
);
},
{
closed = 1;
nodes = (
(385,198,qs),
(442,249,o),
(442,340,qs),
(442,419,o),
(398,469,qs),
(347,527,o),
(256,527,qs),
(177,527,o),
(128,482,qs),
(71,431,o),
(71,340,qs),
(71,261,o),
(115,211,qs),
(166,153,o),
(256,153,qs),
(335,153,o)
);
},
{
closed = 1;
nodes = (
(312,340,o),
(312,388,qs),
(312,428,o),
(254,428,qs),
(207,428,l),
(207,340,l),
(250,340,ls)
);
},
{
closed = 1;
nodes = (
(207,222,o),
(205,222,qs),
(173,222,ls),
(171,222,o),
(171,225,qs),
(171,457,ls),
(171,459,o),
(173,459,qs),
(262,459,ls),
(303,459,o),
(348,421,o),
(348,386,qs),
(348,329,o),
(297,311,q),
(353,225,l),
(356,222,o),
(351,222,qs),
(322,222,ls),
(316,222,o),
(313,226,qs),
(261,308,l),
(207,308,l),
(207,225,ls)
);
}
);
userData = {
assembly = "PUSHB[ ]	/* 2 values pushed */
6 100 
WCVTP[ ]	/* WriteCVTInPixels */
NPUSHB[ ]	/* 93 values pushed */
47 1 6 5 56 1 7 6 2 76 59 1 7 1 75 0 7 6 2 6 7 2 128 0 1 0 3 8 1 3 105 0 8 0 4 5 8 4 105 10 1 5 0 6 7 5 6 103 9 1 2 0 0 2 89 9 1 2 2 0 97 0 0 2 0 81 32 32 17 16 53 51 44 42 40 39 32 38 32 37 35 33 25 23 16 31 17 31 38 35 11 9 24 
CALL[ ]	/* CallFunction */
PUSHB[ ]	/* 2 values pushed */
6 0 
WCVTP[ ]	/* WriteCVTInPixels */";
};
width = 512;
}
);
note = registered;
unicode = 174;
},
{
glyphname = macron;
layers = (
{
layerId = m01;
shapes = (
{
closed = 1;
nodes = (
(0,437,qs),
(0,464,ls),
(0,469,o),
(5,469,qs),
(197,469,ls),
(202,469,o),
(202,464,qs),
(202,437,ls),
(202,431,o),
(197,431,qs),
(5,431,ls),
(0,431,o)
);
}
);
userData = {
assembly = "PUSHB[ ]	/* 2 values pushed */
6 100 
WCVTP[ ]	/* WriteCVTInPixels */
NPUSHB[ ]	/* 30 values pushed */
10 9 4 3 4 0 1 1 76 0 1 0 0 1 87 0 1 1 0 95 0 0 1 0 79 21 16 2 9 24 
CALL[ ]	/* CallFunction */
PUSHB[ ]	/* 2 values pushed */
6 0 
WCVTP[ ]	/* WriteCVTInPixels */";
};
width = 202;
}
);
note = macron;
unicode = 175;
},
{
glyphname = degree;
layers = (
{
layerId = m01;
shapes = (
{
closed = 1;
nodes = (
(58,396,qs),
(26,426,o),
(26,474,qs),
(26,521,o),
(84,579,o),
(130,579,qs),
(173,579,o),
(202,554,qs),
(235,524,o),
(235,474,qs),
(235,433,o),
(209,404,qs),
(180,369,o),
(130,369,qs),
(87,369,o)
);
},
{
closed = 1;
nodes = (
(193,445,o),
(193,474,qs),
(193,504,o),
(157,543,o),
(130,543,qs),
(103,543,o),
(68,504,o),
(68,474,qs),
(68,445,o),
(103,407,o),
(130,407,qs),
(157,407,o)
);
}
);
userData = {
assembly = "PUSHB[ ]	/* 2 values pushed */
6 100 
WCVTP[ ]	/* WriteCVTInPixels */
NPUSHB[ ]	/* 46 values pushed */
0 1 0 3 2 1 3 105 5 1 2 0 0 2 89 5 1 2 2 0 97 4 1 0 2 0 81 16 15 1 0 22 20 15 26 16 26 9 7 0 14 1 14 6 9 22 
CALL[ ]	/* CallFunction */
PUSHB[ ]	/* 2 values pushed */
6 0 
WCVTP[ ]	/* WriteCVTInPixels */";
};
width = 261;
}
);
note = degree;
unicode = 176;
},
{
glyphname = plusminus;
layers = (
{
layerId = m01;
shapes = (
{
closed = 1;
nodes = (
(41,249,o),
(41,255,qs),
(41,289,ls),
(41,295,o),
(46,295,qs),
(169,295,l),
(169,437,ls),
(169,443,o),
(174,443,qs),
(215,443,o),
(215,397,qs),
(215,295,l),
(339,295,ls),
(344,295,o),
(344,289,qs),
(344,255,ls),
(344,249,o),
(339,249,qs),
(215,249,l),
(215,107,ls),
(215,101,o),
(210,101,qs),
(174,101,ls),
(169,101,o),
(169,107,qs),
(169,249,l),
(46,249,ls)
);
},
{
closed = 1;
nodes = (
(41,6,qs),
(41,41,ls),
(41,47,o),
(46,47,qs),
(305,47,ls),
(344,47,o),
(344,11,qs),
(344,6,ls),
(344,0,o),
(339,0,qs),
(46,0,ls),
(41,0,o)
);
}
);
userData = {
assembly = "NPUSHB[ ]	/* 72 values pushed */
19 1 2 3 24 23 11 10 4 1 2 6 1 2 0 1 37 36 30 3 6 7 4 76 4 1 2 8 5 2 1 0 2 1 103 0 3 0 0 7 3 0 103 0 7 7 6 95 0 6 6 40 6 78 0 0 34 32 28 27 0 26 0 26 19 18 21 19 19 9 9 27 
CALL[ ]	/* CallFunction */";
};
width = 384;
}
);
note = plusminus;
unicode = 177;
},
{
glyphname = twosuperior;
layers = (
{
layerId = m01;
shapes = (
{
closed = 1;
nodes = (
(250,279,o),
(250,263,qs),
(250,243,ls),
(250,239,o),
(245,239,qs),
(37,239,ls),
(34,239,o),
(34,242,qs),
(34,293,o),
(64,329,qs),
(83,352,o),
(129,380,qs),
(177,410,o),
(206,444,o),
(206,469,qs),
(206,522,o),
(133,522,qs),
(93,522,o),
(54,494,q),
(53,494,o),
(52,493,q),
(48,491,o),
(46,491,qs),
(42,491,o),
(42,496,qs),
(39,518,ls),
(37,533,o),
(58,543,qs),
(96,562,o),
(135,562,qs),
(187,562,o),
(251,511,o),
(251,471,qs),
(251,439,o),
(214,390,o),
(167,360,qs),
(120,330,o),
(89,299,o),
(83,279,q),
(232,279,ls)
);
}
);
userData = {
assembly = "NPUSHB[ ]	/* 44 values pushed */
16 1 3 1 36 1 2 3 2 76 0 1 1 0 97 0 0 0 55 77 4 1 3 3 2 95 0 2 2 56 2 78 0 0 0 39 0 38 56 43 40 5 10 25 
CALL[ ]	/* CallFunction */";
};
width = 284;
}
);
note = twosuperior;
unicode = 178;
},
{
glyphname = threesuperior;
layers = (
{
layerId = m01;
shapes = (
{
closed = 1;
nodes = (
(265,327,qs),
(265,289,o),
(239,263,qs),
(207,233,o),
(149,233,qs),
(106,233,o),
(36,281,o),
(36,311,qs),
(36,322,o),
(44,322,qs),
(48,322,o),
(52,316,qs),
(83,272,o),
(142,272,qs),
(220,272,o),
(220,325,qs),
(220,386,o),
(134,386,qs),
(103,386,ls),
(86,386,o),
(86,403,qs),
(86,421,ls),
(86,424,o),
(90,424,qs),
(142,424,ls),
(212,424,o),
(212,477,qs),
(212,523,o),
(138,523,qs),
(98,523,o),
(59,497,qs),
(54,493,o),
(51,493,qs),
(47,493,o),
(47,498,q),
(44,518,ls),
(42,530,o),
(63,543,qs),
(99,562,o),
(142,562,qs),
(195,562,o),
(255,518,o),
(255,479,qs),
(255,423,o),
(202,404,q),
(265,388,o)
);
}
);
userData = {
assembly = "NPUSHB[ ]	/* 57 values pushed */
12 1 2 1 23 1 3 2 2 76 0 5 3 4 3 5 4 128 0 2 0 3 5 2 3 105 0 1 1 0 97 0 0 0 55 77 0 4 4 6 97 0 6 6 56 6 78 35 34 34 52 34 41 36 7 10 29 
CALL[ ]	/* CallFunction */";
};
width = 301;
}
);
note = threesuperior;
unicode = 179;
},
{
glyphname = acute;
layers = (
{
layerId = m01;
shapes = (
{
closed = 1;
nodes = (
(75,502,o),
(86,502,qs),
(135,502,ls),
(138,502,o),
(140,498,o),
(138,496,qs),
(67,440,ls),
(54,431,o),
(42,431,qs),
(5,431,ls),
(2,431,o),
(1,432,q),
(0,435,o),
(2,436,q),
(65,493,ls)
);
}
);
userData = {
assembly = "PUSHB[ ]	/* 2 values pushed */
6 100 
WCVTP[ ]	/* WriteCVTInPixels */
NPUSHB[ ]	/* 14 values pushed */
0 1 0 1 133 0 0 0 118 37 36 2 9 24 
CALL[ ]	/* CallFunction */
PUSHB[ ]	/* 2 values pushed */
6 0 
WCVTP[ ]	/* WriteCVTInPixels */";
};
width = 139;
}
);
note = acute;
unicode = 180;
},
{
glyphname = paragraph;
layers = (
{
layerId = m01;
shapes = (
{
closed = 1;
nodes = (
(138,221,o),
(93,260,qs),
(40,307,o),
(40,391,qs),
(40,462,o),
(79,504,qs),
(127,556,o),
(231,556,qs),
(302,556,ls),
(363,556,o),
(363,491,qs),
(363,6,ls),
(363,0,o),
(358,0,qs),
(328,0,ls),
(323,0,o),
(323,6,qs),
(323,514,l),
(251,514,l),
(251,6,ls),
(251,0,o),
(246,0,qs),
(216,0,ls),
(211,0,o),
(211,6,qs),
(211,221,l),
(207,221,ls)
);
}
);
userData = {
assembly = "NPUSHB[ ]	/* 42 values pushed */
14 9 6 1 4 0 4 1 76 0 4 1 0 1 4 0 128 0 1 1 3 95 0 3 3 39 77 2 1 0 0 40 0 78 22 52 19 19 19 5 9 27 
CALL[ ]	/* CallFunction */";
};
width = 433;
}
);
note = paragraph;
unicode = 182;
},
{
glyphname = periodcentered;
layers = (
{
layerId = m01;
shapes = (
{
closed = 1;
nodes = (
(109,297,o),
(109,279,qs),
(109,262,o),
(85,237,o),
(68,237,qs),
(51,237,o),
(27,262,o),
(27,279,qs),
(27,297,o),
(51,322,o),
(68,322,qs),
(85,322,o)
);
}
);
userData = {
assembly = "NPUSHB[ ]	/* 29 values pushed */
2 1 0 1 1 0 89 2 1 0 0 1 97 0 1 0 1 81 1 0 7 5 0 11 1 11 3 9 22 
CALL[ ]	/* CallFunction */";
};
width = 137;
}
);
note = periodcentered;
unicode = 183;
},
{
glyphname = cedilla;
layers = (
{
layerId = m01;
shapes = (
{
closed = 1;
nodes = (
(56,-86,o),
(40,-86,qs),
(7,-86,ls),
(-1,-86,o),
(4,-80,q),
(51,-5,ls),
(58,5,o),
(74,5,qs),
(96,5,ls),
(102,5,o),
(100,-1,q),
(61,-77,ls)
);
}
);
userData = {
assembly = "PUSHB[ ]	/* 2 values pushed */
6 100 
WCVTP[ ]	/* WriteCVTInPixels */
NPUSHB[ ]	/* 14 values pushed */
0 0 1 0 133 0 1 1 118 51 49 2 9 24 
CALL[ ]	/* CallFunction */
PUSHB[ ]	/* 2 values pushed */
6 0 
WCVTP[ ]	/* WriteCVTInPixels */";
};
width = 98;
}
);
note = cedilla;
unicode = 184;
},
{
glyphname = onesuperior;
layers = (
{
layerId = m01;
shapes = (
{
closed = 1;
nodes = (
(28,491,o),
(28,494,qs),
(28,532,ls),
(28,536,o),
(33,538,qs),
(71,551,ls),
(85,556,o),
(98,556,qs),
(116,556,ls),
(138,556,o),
(138,528,qs),
(138,245,ls),
(138,239,o),
(133,239,qs),
(98,239,ls),
(93,239,o),
(93,245,qs),
(93,514,l),
(31,493,l)
);
}
);
userData = {
assembly = "NPUSHB[ ]	/* 25 values pushed */
16 6 1 0 4 0 1 1 76 0 1 1 55 77 0 0 0 56 0 78 52 19 2 10 24 
CALL[ ]	/* CallFunction */";
};
width = 194;
}
);
note = onesuperior;
unicode = 185;
},
{
glyphname = ordmasculine;
layers = (
{
layerId = m01;
shapes = (
{
closed = 1;
nodes = (
(64,292,qs),
(20,332,o),
(20,404,qs),
(20,466,o),
(54,507,qs),
(93,553,o),
(159,553,qs),
(219,553,o),
(257,517,qs),
(300,476,o),
(300,404,qs),
(300,342,o),
(266,303,qs),
(228,257,o),
(159,257,qs),
(101,257,o)
);
},
{
closed = 1;
nodes = (
(256,354,o),
(256,404,qs),
(256,452,o),
(202,513,o),
(159,513,qs),
(116,513,o),
(65,454,o),
(65,404,qs),
(65,355,o),
(116,296,o),
(159,296,qs),
(203,296,o)
);
}
);
userData = {
assembly = "MPPEM[ ]	/* MeasurePixelPerEm */
PUSHB[ ]	/* 1 value pushed */
22 
LT[ ]	/* LessThan */
IF[ ]	/* If */
NPUSHB[ ]	/* 23 values pushed */
0 3 3 1 97 0 1 1 55 77 5 1 2 2 0 97 4 1 0 0 56 0 78 
ELSE[ ]	/* Else */
MPPEM[ ]	/* MeasurePixelPerEm */
PUSHB[ ]	/* 1 value pushed */
44 
LT[ ]	/* LessThan */
IF[ ]	/* If */
NPUSHB[ ]	/* 20 values pushed */
5 1 2 4 1 0 2 0 101 0 3 3 1 97 0 1 1 55 3 78 
ELSE[ ]	/* Else */
NPUSHB[ ]	/* 27 values pushed */
0 1 0 3 2 1 3 105 5 1 2 0 0 2 89 5 1 2 2 0 97 4 1 0 2 0 81 
EIF[ ]	/* EndIf */
EIF[ ]	/* EndIf */
NPUSHB[ ]	/* 19 values pushed */
17 16 1 0 23 21 16 27 17 27 9 7 0 15 1 15 6 10 22 
CALL[ ]	/* CallFunction */";
};
width = 320;
}
);
note = ordmasculine;
unicode = 186;
},
{
glyphname = guillemotright;
layers = (
{
layerId = m01;
shapes = (
{
closed = 1;
nodes = (
(27,328,o),
(35,328,qs),
(79,328,ls),
(89,328,o),
(95,320,qs),
(190,198,ls),
(197,190,o),
(197,184,qs),
(197,178,o),
(190,170,qs),
(95,48,ls),
(89,40,o),
(79,40,qs),
(35,40,ls),
(27,40,o),
(32,47,qs),
(136,184,l),
(32,321,ls)
);
},
{
closed = 1;
nodes = (
(165,328,o),
(173,328,qs),
(217,328,ls),
(227,328,o),
(233,320,qs),
(328,198,ls),
(335,189,o),
(335,184,qs),
(335,178,o),
(328,170,qs),
(233,48,ls),
(227,40,o),
(217,40,qs),
(173,40,ls),
(165,40,o),
(170,47,qs),
(275,184,l),
(170,321,ls)
);
}
);
userData = {
assembly = "NPUSHB[ ]	/* 26 values pushed */
3 1 1 0 0 1 89 3 1 1 1 0 97 2 1 0 1 0 81 56 52 56 50 4 9 26 
CALL[ ]	/* CallFunction */";
};
width = 361;
}
);
note = guillemotright;
unicode = 187;
},
{
glyphname = onequarter;
layers = (
{
layerId = m01;
shapes = (
{
closed = 1;
nodes = (
(317,79,o),
(317,82,qs),
(317,97,ls),
(317,107,o),
(323,115,qs),
(460,308,ls),
(466,317,o),
(477,317,qs),
(502,317,ls),
(522,317,o),
(522,296,qs),
(522,117,l),
(548,117,ls),
(566,117,o),
(566,100,qs),
(566,83,ls),
(566,79,o),
(561,79,qs),
(522,79,l),
(522,3,ls),
(522,0,o),
(519,0,qs),
(482,0,ls),
(479,0,o),
(479,3,qs),
(479,79,l),
(320,79,ls)
);
},
{
closed = 1;
nodes = (
(111,6,qs),
(411,549,l),
(414,556,o),
(418,556,qs),
(424,556,ls),
(443,556,o),
(449,527,o),
(436,503,qs),
(163,6,ls),
(160,0,o),
(155,0,qs),
(113,0,ls),
(108,0,o)
);
},
{
closed = 1;
nodes = (
(28,492,o),
(28,494,qs),
(28,532,ls),
(28,536,o),
(33,538,qs),
(71,551,ls),
(85,556,o),
(98,556,qs),
(116,556,ls),
(138,556,o),
(138,528,qs),
(138,245,ls),
(138,239,o),
(133,239,qs),
(98,239,ls),
(93,239,o),
(93,245,qs),
(93,514,l),
(31,493,ls)
);
},
{
closed = 1;
nodes = (
(479,275,l),
(367,117,l),
(479,117,l)
);
}
);
userData = {
assembly = "PUSHB[ ]	/* 2 values pushed */
6 100 
WCVTP[ ]	/* WriteCVTInPixels */
NPUSHB[ ]	/* 100 values pushed */
56 40 2 2 5 60 46 41 3 6 2 10 1 0 1 1 1 4 0 4 76 4 1 4 73 0 2 5 6 5 2 6 128 10 1 4 0 4 134 7 1 5 0 6 1 5 6 103 11 8 2 1 0 0 1 89 11 8 2 1 1 0 96 9 3 2 0 1 0 80 59 59 28 27 0 0 59 61 59 61 51 48 44 43 36 33 27 39 28 39 0 26 0 24 50 36 23 12 9 25 
CALL[ ]	/* CallFunction */
PUSHB[ ]	/* 2 values pushed */
6 0 
WCVTP[ ]	/* WriteCVTInPixels */";
};
width = 601;
}
);
note = onequarter;
unicode = 188;
},
{
glyphname = onehalf;
layers = (
{
layerId = m01;
shapes = (
{
closed = 1;
nodes = (
(111,6,qs),
(411,549,l),
(414,556,o),
(418,556,qs),
(424,556,ls),
(443,556,o),
(449,527,o),
(436,503,qs),
(163,6,ls),
(160,0,o),
(155,0,qs),
(113,0,ls),
(108,0,o)
);
},
{
closed = 1;
nodes = (
(611,41,o),
(611,24,qs),
(611,4,ls),
(611,0,o),
(606,0,qs),
(398,0,ls),
(395,0,o),
(395,3,qs),
(395,54,o),
(425,90,qs),
(444,113,o),
(489,141,qs),
(537,171,o),
(567,205,o),
(567,231,qs),
(567,283,o),
(494,283,qs),
(452,283,o),
(415,257,qs),
(414,256,o),
(413,256,q),
(409,253,o),
(407,253,qs),
(403,253,o),
(403,258,q),
(400,279,ls),
(398,294,o),
(419,304,qs),
(457,323,o),
(496,323,qs),
(547,323,o),
(612,273,o),
(612,233,qs),
(612,201,o),
(575,152,o),
(528,121,qs),
(481,91,o),
(450,61,o),
(444,41,q),
(593,41,ls)
);
},
{
closed = 1;
nodes = (
(28,492,o),
(28,494,qs),
(28,532,ls),
(28,536,o),
(33,538,qs),
(71,551,ls),
(85,556,o),
(98,556,qs),
(116,556,ls),
(138,556,o),
(138,528,qs),
(138,245,ls),
(138,239,o),
(133,239,qs),
(98,239,ls),
(93,239,o),
(93,245,qs),
(93,514,l),
(31,493,ls)
);
}
);
userData = {
assembly = "PUSHB[ ]	/* 2 values pushed */
6 100 
WCVTP[ ]	/* WriteCVTInPixels */
NPUSHB[ ]	/* 81 values pushed */
69 53 2 2 1 59 54 29 3 6 3 49 1 0 5 3 76 0 2 0 3 6 2 3 105 7 1 1 0 6 5 1 6 103 9 1 5 0 0 5 87 9 1 5 5 0 97 4 8 2 0 5 0 81 13 13 1 0 64 61 57 56 13 52 13 51 47 44 36 34 23 21 9 6 0 12 1 12 10 9 22 
CALL[ ]	/* CallFunction */
PUSHB[ ]	/* 2 values pushed */
6 0 
WCVTP[ ]	/* WriteCVTInPixels */";
};
width = 672;
}
);
note = onehalf;
unicode = 189;
},
{
glyphname = threequarters;
layers = (
{
layerId = m01;
shapes = (
{
closed = 1;
nodes = (
(400,79,o),
(400,82,qs),
(400,97,ls),
(400,107,o),
(407,115,q),
(543,308,ls),
(550,317,o),
(560,317,qs),
(585,317,ls),
(605,317,o),
(605,296,qs),
(605,117,l),
(632,117,ls),
(648,117,o),
(648,100,qs),
(648,83,ls),
(648,79,o),
(644,79,qs),
(605,79,l),
(605,3,ls),
(605,0,o),
(603,0,qs),
(565,0,ls),
(563,0,o),
(563,3,qs),
(563,79,l),
(404,79,ls)
);
},
{
closed = 1;
nodes = (
(265,327,qs),
(265,289,o),
(239,263,qs),
(207,233,o),
(149,233,qs),
(106,233,o),
(36,281,o),
(36,311,qs),
(36,322,o),
(44,322,qs),
(48,322,o),
(52,316,qs),
(83,272,o),
(142,272,qs),
(220,272,o),
(220,325,qs),
(220,386,o),
(134,386,qs),
(103,386,ls),
(86,386,o),
(86,403,qs),
(86,421,ls),
(86,424,o),
(90,424,qs),
(142,424,ls),
(212,424,o),
(212,477,qs),
(212,523,o),
(138,523,qs),
(98,523,o),
(59,497,qs),
(54,493,o),
(51,493,qs),
(47,493,o),
(47,498,q),
(44,518,ls),
(42,530,o),
(63,543,qs),
(99,562,o),
(142,562,qs),
(195,562,o),
(255,518,o),
(255,479,qs),
(255,423,o),
(202,404,q),
(265,388,o)
);
},
{
closed = 1;
nodes = (
(195,6,qs),
(493,549,ls),
(497,556,o),
(500,556,qs),
(507,556,ls),
(525,556,o),
(532,527,o),
(518,503,qs),
(247,6,ls),
(244,0,o),
(239,0,qs),
(197,0,ls),
(191,0,o)
);
},
{
closed = 1;
nodes = (
(563,275,l),
(450,117,l),
(563,117,l)
);
}
);
userData = {
assembly = "PUSHB[ ]	/* 2 values pushed */
6 100 
WCVTP[ ]	/* WriteCVTInPixels */
NPUSHB[ ]	/* 27 values pushed */
39 1 6 5 50 1 7 6 87 1 8 2 24 10 2 0 1 1 1 11 0 5 76 4 1 11 73 
MPPEM[ ]	/* MeasurePixelPerEm */
PUSHB[ ]	/* 1 value pushed */
32 
LT[ ]	/* LessThan */
IF[ ]	/* If */
NPUSHB[ ]	/* 62 values pushed */
9 1 2 7 8 7 2 8 128 15 1 11 0 11 134 12 1 4 0 5 6 4 5 105 0 6 0 7 2 6 7 105 0 8 0 10 1 8 10 105 16 13 2 1 0 0 1 89 16 13 2 1 1 0 96 14 3 2 0 1 0 80 
ELSE[ ]	/* Else */
MPPEM[ ]	/* MeasurePixelPerEm */
PUSHB[ ]	/* 1 value pushed */
36 
LT[ ]	/* LessThan */
IF[ ]	/* If */
NPUSHB[ ]	/* 69 values pushed */
0 12 4 5 4 12 5 128 9 1 2 7 8 7 2 8 128 15 1 11 0 11 134 0 4 0 5 6 4 5 105 0 6 0 7 2 6 7 105 0 8 0 10 1 8 10 105 16 13 2 1 0 0 1 89 16 13 2 1 1 0 96 14 3 2 0 1 0 80 
ELSE[ ]	/* Else */
NPUSHB[ ]	/* 75 values pushed */
0 12 4 5 4 12 5 128 0 9 7 2 7 9 2 128 0 2 8 7 2 8 126 15 1 11 0 11 134 0 4 0 5 6 4 5 105 0 6 0 7 9 6 7 105 0 8 0 10 1 8 10 105 16 13 2 1 0 0 1 89 16 13 2 1 1 0 96 14 3 2 0 1 0 80 
EIF[ ]	/* EndIf */
EIF[ ]	/* EndIf */
NPUSHB[ ]	/* 40 values pushed */
86 86 74 73 0 0 86 88 86 88 81 79 73 85 74 85 68 66 63 61 59 57 55 52 48 46 44 42 33 31 0 26 0 26 50 36 23 17 9 25 
CALL[ ]	/* CallFunction */
PUSHB[ ]	/* 2 values pushed */
6 0 
WCVTP[ ]	/* WriteCVTInPixels */";
};
width = 683;
}
);
note = threequarters;
unicode = 190;
},
{
glyphname = questiondown;
layers = (
{
layerId = m01;
shapes = (
{
closed = 1;
nodes = (
(148,312,o),
(148,329,qs),
(148,347,o),
(172,372,o),
(189,372,qs),
(206,372,o),
(230,347,o),
(230,329,qs),
(230,312,o),
(206,287,o),
(189,287,qs),
(172,287,o)
);
},
{
closed = 1;
nodes = (
(49,42,qs),
(70,67,o),
(146,129,qs),
(166,146,o),
(166,178,qs),
(166,216,ls),
(166,222,o),
(171,222,qs),
(176,222,ls),
(211,222,o),
(211,176,qs),
(211,149,o),
(196,125,qs),
(183,105,o),
(144,74,qs),
(96,35,o),
(63,-16,o),
(63,-52,qs),
(63,-100,o),
(91,-128,qs),
(123,-162,o),
(184,-162,qs),
(256,-162,o),
(315,-119,qs),
(322,-114,o),
(328,-114,qs),
(332,-114,o),
(335,-121,qs),
(345,-151,ls),
(347,-156,o),
(341,-159,q),
(267,-210,o),
(185,-210,qs),
(108,-210,o),
(63,-174,qs),
(12,-133,o),
(12,-52,qs),
(12,-3,o)
);
}
);
userData = {
assembly = "NPUSHB[ ]	/* 53 values pushed */
0 5 0 3 0 5 3 128 0 3 4 0 3 4 126 0 4 0 2 4 2 102 6 1 0 0 1 97 0 1 1 48 0 78 1 0 42 39 28 26 24 22 17 15 7 5 0 11 1 11 7 9 22 
CALL[ ]	/* CallFunction */";
};
width = 325;
}
);
note = questiondown;
unicode = 191;
},
{
glyphname = Agrave;
kernLeft = A;
kernRight = A;
layers = (
{
layerId = m01;
shapes = (
{
closed = 1;
nodes = (
(249,493,l),
(145,216,l),
(353,216,l)
);
},
{
closed = 1;
nodes = (
(65,0,o),
(55,0,qs),
(18,0,ls),
(11,0,o),
(14,7,qs),
(225,549,ls),
(228,556,o),
(234,556,qs),
(239,556,ls),
(276,556,o),
(289,521,qs),
(488,7,ls),
(491,0,o),
(484,0,qs),
(445,0,ls),
(434,0,o),
(430,12,qs),
(371,169,l),
(127,169,l),
(70,12,ls)
);
},
{
closed = 1;
nodes = (
(173,691,o),
(175,691,qs),
(225,691,ls),
(236,691,o),
(246,682,qs),
(309,625,l),
(311,624,o),
(309,619,o),
(306,619,qs),
(269,619,ls),
(257,619,o),
(244,629,qs),
(173,685,l),
(171,686,o)
);
}
);
userData = {
assembly = "NPUSHB[ ]	/* 58 values pushed */
1 1 0 3 1 76 0 6 5 6 133 0 5 3 5 133 7 1 0 0 1 2 0 1 104 0 3 3 39 77 4 1 2 2 40 2 78 0 0 34 32 27 25 21 18 15 12 9 6 4 3 0 2 0 2 8 9 22 
CALL[ ]	/* CallFunction */";
};
width = 498;
}
);
note = Agrave;
unicode = 192;
},
{
glyphname = Aacute;
kernLeft = A;
kernRight = A;
layers = (
{
layerId = m01;
shapes = (
{
closed = 1;
nodes = (
(249,493,l),
(145,216,l),
(353,216,l)
);
},
{
closed = 1;
nodes = (
(65,0,o),
(55,0,qs),
(18,0,ls),
(11,0,o),
(14,7,qs),
(225,549,ls),
(228,556,o),
(234,556,qs),
(239,556,ls),
(276,556,o),
(289,521,qs),
(488,7,ls),
(491,0,o),
(484,0,qs),
(445,0,ls),
(434,0,o),
(430,12,qs),
(371,169,l),
(127,169,l),
(70,12,ls)
);
},
{
closed = 1;
nodes = (
(255,691,o),
(266,691,qs),
(315,691,ls),
(318,691,o),
(320,687,o),
(319,685,q),
(247,629,ls),
(234,619,o),
(222,619,qs),
(185,619,ls),
(183,619,o),
(181,621,q),
(180,624,o),
(183,625,q),
(245,682,ls)
);
}
);
userData = {
assembly = "NPUSHB[ ]	/* 58 values pushed */
1 1 0 3 1 76 0 6 5 6 133 0 5 3 5 133 7 1 0 0 1 2 0 1 104 0 3 3 39 77 4 1 2 2 40 2 78 0 0 36 33 29 27 21 18 15 12 9 6 4 3 0 2 0 2 8 9 22 
CALL[ ]	/* CallFunction */";
};
width = 498;
}
);
note = Aacute;
unicode = 193;
},
{
glyphname = Acircumflex;
kernLeft = A;
kernRight = A;
layers = (
{
layerId = m01;
shapes = (
{
closed = 1;
nodes = (
(249,493,l),
(145,216,l),
(353,216,l)
);
},
{
closed = 1;
nodes = (
(65,0,o),
(55,0,qs),
(18,0,ls),
(11,0,o),
(14,7,qs),
(225,549,ls),
(228,556,o),
(234,556,qs),
(239,556,ls),
(276,556,o),
(289,521,qs),
(488,7,ls),
(491,0,o),
(484,0,qs),
(445,0,ls),
(434,0,o),
(430,12,qs),
(371,169,l),
(127,169,l),
(70,12,ls)
);
},
{
closed = 1;
nodes = (
(200,619,o),
(185,619,qs),
(153,619,ls),
(150,619,o),
(147,624,o),
(150,625,q),
(212,682,ls),
(222,691,o),
(233,691,qs),
(262,691,ls),
(273,691,o),
(283,682,qs),
(345,625,l),
(348,624,o),
(345,619,o),
(343,619,qs),
(310,619,ls),
(296,619,o),
(285,629,qs),
(248,664,l),
(210,629,ls)
);
}
);
userData = {
assembly = "NPUSHB[ ]	/* 61 values pushed */
1 1 0 3 1 76 0 6 5 6 133 7 1 5 3 5 133 8 1 0 0 1 2 0 1 104 0 3 3 39 77 4 1 2 2 40 2 78 0 0 42 40 35 32 27 25 21 18 15 12 9 6 4 3 0 2 0 2 9 9 22 
CALL[ ]	/* CallFunction */";
};
width = 498;
}
);
note = Acircumflex;
unicode = 194;
},
{
glyphname = Atilde;
kernLeft = A;
kernRight = A;
layers = (
{
layerId = m01;
shapes = (
{
closed = 1;
nodes = (
(249,493,l),
(145,216,l),
(353,216,l)
);
},
{
closed = 1;
nodes = (
(65,0,o),
(55,0,qs),
(18,0,ls),
(11,0,o),
(14,7,qs),
(225,549,ls),
(228,556,o),
(234,556,qs),
(239,556,ls),
(276,556,o),
(289,521,qs),
(488,7,ls),
(491,0,o),
(484,0,qs),
(445,0,ls),
(434,0,o),
(430,12,qs),
(371,169,l),
(127,169,l),
(70,12,ls)
);
},
{
closed = 1;
nodes = (
(152,625,qs),
(156,684,o),
(203,684,qs),
(220,684,o),
(252,669,qs),
(279,657,o),
(288,657,qs),
(303,657,o),
(308,672,qs),
(310,680,o),
(317,680,qs),
(344,680,ls),
(350,680,o),
(350,674,qs),
(348,648,o),
(317,617,o),
(292,617,qs),
(275,617,o),
(244,632,qs),
(218,644,o),
(209,644,qs),
(194,644,o),
(192,627,qs),
(191,619,o),
(185,619,qs),
(158,619,ls),
(152,619,o)
);
}
);
userData = {
assembly = "NPUSHB[ ]	/* 14 values pushed */
35 1 9 8 48 1 5 6 1 1 0 3 3 76 
MPPEM[ ]	/* MeasurePixelPerEm */
PUSHB[ ]	/* 1 value pushed */
45 
LT[ ]	/* LessThan */
IF[ ]	/* If */
NPUSHB[ ]	/* 39 values pushed */
10 1 8 0 6 5 8 6 105 0 9 7 1 5 3 9 5 106 11 1 0 0 1 2 0 1 104 0 3 3 39 77 4 1 2 2 40 2 78 
ELSE[ ]	/* Else */
NPUSHB[ ]	/* 46 values pushed */
0 8 10 9 10 8 9 128 0 10 0 6 5 10 6 105 0 9 7 1 5 3 9 5 106 11 1 0 0 1 2 0 1 104 0 3 3 39 77 4 1 2 2 40 2 78 
EIF[ ]	/* EndIf */
NPUSHB[ ]	/* 29 values pushed */
0 0 47 45 43 41 39 37 33 31 29 27 24 23 21 18 15 12 9 6 4 3 0 2 0 2 12 9 22 
CALL[ ]	/* CallFunction */";
};
width = 498;
}
);
note = Atilde;
unicode = 195;
},
{
glyphname = Adieresis;
kernLeft = A;
kernRight = A;
layers = (
{
layerId = m01;
shapes = (
{
closed = 1;
nodes = (
(249,493,l),
(145,216,l),
(353,216,l)
);
},
{
closed = 1;
nodes = (
(65,0,o),
(55,0,qs),
(18,0,ls),
(11,0,o),
(14,7,qs),
(225,549,ls),
(228,556,o),
(234,556,qs),
(239,556,ls),
(276,556,o),
(289,521,qs),
(488,7,ls),
(491,0,o),
(484,0,qs),
(445,0,ls),
(434,0,o),
(430,12,qs),
(371,169,l),
(127,169,l),
(70,12,ls)
);
},
{
closed = 1;
nodes = (
(177,681,o),
(191,681,qs),
(205,681,o),
(225,661,o),
(225,647,qs),
(225,633,o),
(205,614,o),
(191,614,qs),
(177,614,o),
(158,634,o),
(158,647,qs),
(158,661,o)
);
},
{
closed = 1;
nodes = (
(289,681,o),
(303,681,qs),
(317,681,o),
(337,661,o),
(337,647,qs),
(337,633,o),
(317,614,o),
(303,614,qs),
(290,614,o),
(270,634,o),
(270,647,qs),
(270,661,o)
);
}
);
userData = {
assembly = "NPUSHB[ ]	/* 62 values pushed */
1 1 0 3 1 76 8 1 6 7 1 5 3 6 5 105 9 1 0 0 1 2 0 1 104 0 3 3 39 77 4 1 2 2 40 2 78 0 0 45 43 39 37 33 31 27 25 21 18 15 12 9 6 4 3 0 2 0 2 10 9 22 
CALL[ ]	/* CallFunction */";
};
width = 498;
}
);
note = Adieresis;
unicode = 196;
},
{
glyphname = Aring;
kernLeft = A;
kernRight = A;
layers = (
{
layerId = m01;
shapes = (
{
closed = 1;
nodes = (
(249,493,l),
(145,216,l),
(353,216,l)
);
},
{
closed = 1;
nodes = (
(65,0,o),
(55,0,qs),
(18,0,ls),
(11,0,o),
(14,7,qs),
(225,549,ls),
(228,556,o),
(234,556,qs),
(239,556,ls),
(276,556,o),
(289,521,qs),
(488,7,ls),
(491,0,o),
(484,0,qs),
(445,0,ls),
(434,0,o),
(430,12,qs),
(371,169,l),
(127,169,l),
(70,12,ls)
);
},
{
closed = 1;
nodes = (
(225,737,o),
(251,737,qs),
(279,737,o),
(317,699,o),
(317,673,qs),
(317,647,o),
(278,609,o),
(251,609,qs),
(225,609,o),
(186,647,o),
(186,673,qs),
(186,699,o)
);
},
{
closed = 1;
nodes = (
(284,658,o),
(284,673,qs),
(284,688,o),
(266,708,o),
(251,708,qs),
(237,708,o),
(219,688,o),
(219,673,qs),
(219,658,o),
(238,639,o),
(251,639,qs),
(266,639,o)
);
}
);
userData = {
assembly = "NPUSHB[ ]	/* 73 values pushed */
1 1 0 3 1 76 0 6 0 8 7 6 8 105 10 1 7 0 5 3 7 5 105 9 1 0 0 1 2 0 1 104 0 3 3 39 77 4 1 2 2 40 2 78 36 35 0 0 42 40 35 46 36 46 33 31 27 25 21 18 15 12 9 6 4 3 0 2 0 2 11 9 22 
CALL[ ]	/* CallFunction */";
};
width = 498;
}
);
note = Aring;
unicode = 197;
},
{
glyphname = AE;
kernRight = E;
layers = (
{
layerId = m01;
shapes = (
{
closed = 1;
nodes = (
(60,0,o),
(50,0,qs),
(9,0,ls),
(2,0,o),
(6,7,qs),
(301,548,ls),
(305,556,o),
(312,556,qs),
(592,556,ls),
(622,556,o),
(622,527,qs),
(622,516,ls),
(622,508,o),
(615,508,qs),
(384,508,l),
(384,298,l),
(575,298,ls),
(605,298,o),
(605,270,qs),
(605,259,ls),
(605,252,o),
(596,252,qs),
(384,252,l),
(384,47,l),
(602,47,ls),
(632,47,o),
(632,18,qs),
(632,7,ls),
(632,0,o),
(625,0,qs),
(337,0,ls),
(332,0,o),
(332,6,qs),
(332,169,l),
(149,169,l),
(67,12,ls)
);
},
{
closed = 1;
nodes = (
(332,509,l),
(174,216,l),
(332,216,l)
);
}
);
userData = {
assembly = "NPUSHB[ ]	/* 66 values pushed */
37 1 5 6 2 1 1 2 2 76 0 4 0 3 8 4 3 103 9 1 8 0 0 2 8 0 103 0 5 5 6 95 0 6 6 39 77 0 2 2 1 97 7 1 1 1 40 1 78 36 36 36 38 36 38 51 51 33 35 33 35 35 16 10 9 30 
CALL[ ]	/* CallFunction */";
};
width = 662;
}
);
note = AE;
unicode = 198;
},
{
glyphname = Ccedilla;
kernLeft = C;
kernRight = C;
layers = (
{
layerId = m01;
shapes = (
{
closed = 1;
nodes = (
(274,-95,o),
(258,-95,qs),
(224,-95,ls),
(221,-95,o),
(219,-92,o),
(220,-90,qs),
(269,-15,ls),
(271,-12,o),
(274,-10,q),
(180,-1,o),
(124,65,qs),
(57,142,o),
(57,278,qs),
(57,401,o),
(119,479,qs),
(189,567,o),
(310,567,qs),
(378,567,o),
(444,534,qs),
(484,515,o),
(478,489,qs),
(474,473,ls),
(472,464,o),
(466,464,qs),
(464,464,o),
(454,471,qs),
(386,519,o),
(309,519,qs),
(221,519,o),
(168,463,qs),
(106,397,o),
(106,276,qs),
(106,170,o),
(153,108,qs),
(206,36,o),
(306,36,qs),
(409,36,o),
(464,115,qs),
(470,125,o),
(476,125,qs),
(489,125,o),
(489,109,qs),
(489,79,o),
(455,45,qs),
(404,-6,o),
(316,-11,q),
(279,-87,l)
);
}
);
userData = {
assembly = "PUSHB[ ]	/* 7 values pushed */
40 37 2 6 0 1 76 
MPPEM[ ]	/* MeasurePixelPerEm */
PUSHB[ ]	/* 1 value pushed */
12 
LT[ ]	/* LessThan */
IF[ ]	/* If */
NPUSHB[ ]	/* 42 values pushed */
0 4 3 1 3 4 1 128 0 1 2 3 1 2 126 0 6 0 0 6 113 0 3 3 5 97 0 5 5 39 77 0 2 2 0 97 0 0 0 49 0 78 
ELSE[ ]	/* Else */
MPPEM[ ]	/* MeasurePixelPerEm */
PUSHB[ ]	/* 1 value pushed */
36 
LT[ ]	/* LessThan */
IF[ ]	/* If */
NPUSHB[ ]	/* 41 values pushed */
0 4 3 1 3 4 1 128 0 1 2 3 1 2 126 0 6 0 6 134 0 3 3 5 97 0 5 5 39 77 0 2 2 0 97 0 0 0 49 0 78 
ELSE[ ]	/* Else */
NPUSHB[ ]	/* 39 values pushed */
0 4 3 1 3 4 1 128 0 1 2 3 1 2 126 0 6 0 6 134 0 5 0 3 4 5 3 105 0 2 2 0 97 0 0 0 49 0 78 
EIF[ ]	/* EndIf */
EIF[ ]	/* EndIf */
NPUSHB[ ]	/* 10 values pushed */
45 37 34 38 35 20 16 7 9 29 
CALL[ ]	/* CallFunction */";
};
width = 513;
}
);
note = Ccedilla;
unicode = 199;
},
{
glyphname = Egrave;
kernRight = E;
layers = (
{
layerId = m01;
shapes = (
{
closed = 1;
nodes = (
(372,47,o),
(372,18,qs),
(372,7,ls),
(372,0,o),
(364,0,qs),
(78,0,ls),
(73,0,o),
(73,6,qs),
(73,549,ls),
(73,556,o),
(78,556,qs),
(332,556,ls),
(362,556,o),
(362,527,qs),
(362,516,ls),
(362,509,o),
(354,509,qs),
(124,509,l),
(124,298,l),
(314,298,ls),
(344,298,o),
(344,269,qs),
(344,257,ls),
(344,251,o),
(336,251,qs),
(124,251,l),
(124,47,l),
(342,47,ls)
);
},
{
closed = 1;
nodes = (
(134,691,o),
(136,691,qs),
(186,691,ls),
(197,691,o),
(207,682,qs),
(270,625,l),
(272,624,o),
(270,619,o),
(267,619,qs),
(230,619,ls),
(218,619,o),
(205,629,qs),
(134,685,l),
(132,686,o)
);
}
);
userData = {
assembly = "NPUSHB[ ]	/* 68 values pushed */
18 1 2 3 19 1 4 5 2 76 0 7 6 7 133 0 6 3 6 133 0 1 0 0 5 1 0 103 0 2 2 3 95 0 3 3 39 77 8 1 5 5 4 95 0 4 4 40 4 78 0 0 39 37 32 30 0 27 0 26 37 35 33 35 33 9 9 27 
CALL[ ]	/* CallFunction */";
};
width = 404;
}
);
note = Egrave;
unicode = 200;
},
{
glyphname = Eacute;
kernRight = E;
layers = (
{
layerId = m01;
shapes = (
{
closed = 1;
nodes = (
(372,47,o),
(372,18,qs),
(372,7,ls),
(372,0,o),
(364,0,qs),
(78,0,ls),
(73,0,o),
(73,6,qs),
(73,549,ls),
(73,556,o),
(78,556,qs),
(332,556,ls),
(362,556,o),
(362,527,qs),
(362,516,ls),
(362,509,o),
(354,509,qs),
(124,509,l),
(124,298,l),
(314,298,ls),
(344,298,o),
(344,269,qs),
(344,257,ls),
(344,251,o),
(336,251,qs),
(124,251,l),
(124,47,l),
(342,47,ls)
);
},
{
closed = 1;
nodes = (
(236,691,o),
(247,691,qs),
(296,691,ls),
(299,691,o),
(301,687,o),
(300,685,q),
(228,629,ls),
(215,619,o),
(203,619,qs),
(166,619,ls),
(164,619,o),
(162,621,q),
(161,624,o),
(164,625,q),
(226,682,ls)
);
}
);
userData = {
assembly = "NPUSHB[ ]	/* 68 values pushed */
18 1 2 3 19 1 4 5 2 76 0 7 6 7 133 0 6 3 6 133 0 1 0 0 5 1 0 103 0 2 2 3 95 0 3 3 39 77 8 1 5 5 4 95 0 4 4 40 4 78 0 0 41 38 34 32 0 27 0 26 37 35 33 35 33 9 9 27 
CALL[ ]	/* CallFunction */";
};
width = 404;
}
);
note = Eacute;
unicode = 201;
},
{
glyphname = Ecircumflex;
kernRight = E;
layers = (
{
layerId = m01;
shapes = (
{
closed = 1;
nodes = (
(372,47,o),
(372,18,qs),
(372,7,ls),
(372,0,o),
(364,0,qs),
(78,0,ls),
(73,0,o),
(73,6,qs),
(73,549,ls),
(73,556,o),
(78,556,qs),
(332,556,ls),
(362,556,o),
(362,527,qs),
(362,516,ls),
(362,509,o),
(354,509,qs),
(124,509,l),
(124,298,l),
(314,298,ls),
(344,298,o),
(344,269,qs),
(344,257,ls),
(344,251,o),
(336,251,qs),
(124,251,l),
(124,47,l),
(342,47,ls)
);
},
{
closed = 1;
nodes = (
(170,619,o),
(155,619,qs),
(122,619,ls),
(120,619,o),
(118,621,q),
(117,624,o),
(120,625,q),
(182,682,ls),
(192,691,o),
(203,691,qs),
(232,691,ls),
(243,691,o),
(252,682,qs),
(315,625,l),
(317,624,o),
(315,619,o),
(312,619,qs),
(280,619,ls),
(265,619,o),
(255,629,qs),
(218,664,l),
(180,629,ls)
);
}
);
userData = {
assembly = "NPUSHB[ ]	/* 71 values pushed */
18 1 2 3 19 1 4 5 2 76 0 7 6 7 133 8 1 6 3 6 133 0 1 0 0 5 1 0 103 0 2 2 3 95 0 3 3 39 77 9 1 5 5 4 95 0 4 4 40 4 78 0 0 48 46 40 37 32 30 0 27 0 26 37 35 33 35 33 10 9 27 
CALL[ ]	/* CallFunction */";
};
width = 404;
}
);
note = Ecircumflex;
unicode = 202;
},
{
glyphname = Edieresis;
kernRight = E;
layers = (
{
layerId = m01;
shapes = (
{
closed = 1;
nodes = (
(372,47,o),
(372,18,qs),
(372,7,ls),
(372,0,o),
(364,0,qs),
(78,0,ls),
(73,0,o),
(73,6,qs),
(73,549,ls),
(73,556,o),
(78,556,qs),
(332,556,ls),
(362,556,o),
(362,527,qs),
(362,516,ls),
(362,509,o),
(354,509,qs),
(124,509,l),
(124,298,l),
(314,298,ls),
(344,298,o),
(344,269,qs),
(344,257,ls),
(344,251,o),
(336,251,qs),
(124,251,l),
(124,47,l),
(342,47,ls)
);
},
{
closed = 1;
nodes = (
(146,681,o),
(160,681,qs),
(174,681,o),
(194,661,o),
(194,647,qs),
(194,633,o),
(174,614,o),
(160,614,qs),
(146,614,o),
(127,634,o),
(127,647,qs),
(127,661,o)
);
},
{
closed = 1;
nodes = (
(258,681,o),
(272,681,qs),
(286,681,o),
(306,661,o),
(306,647,qs),
(306,633,o),
(286,614,o),
(272,614,qs),
(258,614,o),
(239,634,o),
(239,647,qs),
(239,661,o)
);
}
);
userData = {
assembly = "NPUSHB[ ]	/* 72 values pushed */
18 1 2 3 19 1 4 5 2 76 9 1 7 8 1 6 3 7 6 105 0 1 0 0 5 1 0 103 0 2 2 3 95 0 3 3 39 77 10 1 5 5 4 95 0 4 4 40 4 78 0 0 50 48 44 42 38 36 32 30 0 27 0 26 37 35 33 35 33 11 9 27 
CALL[ ]	/* CallFunction */";
};
width = 404;
}
);
note = Edieresis;
unicode = 203;
},
{
glyphname = Igrave;
kernRight = I;
layers = (
{
layerId = m01;
shapes = (
{
closed = 1;
nodes = (
(84,6,qs),
(84,549,ls),
(84,556,o),
(89,556,qs),
(93,556,ls),
(111,556,o),
(134,527,o),
(134,504,qs),
(134,6,ls),
(134,0,o),
(129,0,qs),
(89,0,ls),
(84,0,o)
);
},
{
closed = 1;
nodes = (
(30,691,o),
(33,691,qs),
(83,691,ls),
(94,691,o),
(104,682,qs),
(166,625,l),
(169,624,o),
(166,619,o),
(164,619,qs),
(126,619,ls),
(114,619,o),
(102,629,qs),
(30,685,l),
(28,686,o)
);
}
);
userData = {
assembly = "NPUSHB[ ]	/* 35 values pushed */
11 3 2 0 1 1 76 0 3 2 3 133 0 2 1 2 133 0 1 1 39 77 0 0 0 40 0 78 37 38 53 16 4 9 26 
CALL[ ]	/* CallFunction */";
};
width = 196;
}
);
note = Igrave;
unicode = 204;
},
{
glyphname = Iacute;
kernRight = I;
layers = (
{
layerId = m01;
shapes = (
{
closed = 1;
nodes = (
(84,6,qs),
(84,549,ls),
(84,556,o),
(89,556,qs),
(93,556,ls),
(112,556,o),
(134,527,o),
(134,504,qs),
(134,6,ls),
(134,0,o),
(129,0,qs),
(89,0,ls),
(84,0,o)
);
},
{
closed = 1;
nodes = (
(103,691,o),
(114,691,qs),
(163,691,ls),
(166,691,o),
(168,687,o),
(166,685,qs),
(95,629,ls),
(82,619,o),
(70,619,qs),
(33,619,ls),
(30,619,o),
(29,621,qs),
(28,624,o),
(30,625,q),
(93,682,ls)
);
}
);
userData = {
assembly = "NPUSHB[ ]	/* 35 values pushed */
11 3 2 0 1 1 76 0 3 2 3 133 0 2 1 2 133 0 1 1 39 77 0 0 0 40 0 78 37 40 53 16 4 9 26 
CALL[ ]	/* CallFunction */";
};
width = 196;
}
);
note = Iacute;
unicode = 205;
},
{
glyphname = Icircumflex;
kernRight = I;
layers = (
{
layerId = m01;
shapes = (
{
closed = 1;
nodes = (
(73,6,qs),
(73,549,ls),
(73,556,o),
(78,556,qs),
(82,556,ls),
(101,556,o),
(123,527,o),
(123,504,qs),
(123,6,ls),
(123,0,o),
(118,0,qs),
(78,0,ls),
(73,0,o)
);
},
{
closed = 1;
nodes = (
(50,619,o),
(35,619,qs),
(2,619,ls),
(-1,619,o),
(-2,621,qs),
(-3,624,o),
(-1,625,q),
(62,682,ls),
(72,691,o),
(83,691,qs),
(112,691,ls),
(122,691,o),
(132,682,qs),
(195,625,l),
(197,624,o),
(195,619,o),
(192,619,qs),
(159,619,ls),
(145,619,o),
(134,629,qs),
(98,664,l),
(60,629,ls)
);
}
);
userData = {
assembly = "NPUSHB[ ]	/* 37 values pushed */
11 3 2 0 1 1 76 0 3 2 3 133 4 1 2 1 2 133 0 1 1 39 77 0 0 0 40 0 78 38 53 38 53 16 5 9 27 
CALL[ ]	/* CallFunction */";
};
width = 196;
}
);
note = Icircumflex;
unicode = 206;
},
{
glyphname = Idieresis;
kernRight = I;
layers = (
{
layerId = m01;
shapes = (
{
closed = 1;
nodes = (
(73,6,qs),
(73,549,ls),
(73,556,o),
(78,556,qs),
(82,556,ls),
(101,556,o),
(123,527,o),
(123,504,qs),
(123,6,ls),
(123,0,o),
(118,0,qs),
(78,0,ls),
(73,0,o)
);
},
{
closed = 1;
nodes = (
(28,681,o),
(42,681,qs),
(56,681,o),
(76,661,o),
(76,647,qs),
(76,633,o),
(56,614,o),
(42,614,qs),
(28,614,o),
(9,634,o),
(9,647,qs),
(9,661,o)
);
},
{
closed = 1;
nodes = (
(140,681,o),
(154,681,qs),
(168,681,o),
(188,661,o),
(188,647,qs),
(188,633,o),
(168,614,o),
(154,614,qs),
(140,614,o),
(121,634,o),
(121,647,qs),
(121,661,o)
);
}
);
userData = {
assembly = "NPUSHB[ ]	/* 37 values pushed */
11 3 2 0 1 1 76 5 1 3 4 1 2 1 3 2 105 0 1 1 39 77 0 0 0 40 0 78 36 36 36 38 53 16 6 9 28 
CALL[ ]	/* CallFunction */";
};
width = 196;
}
);
note = Idieresis;
unicode = 207;
},
{
glyphname = Eth;
layers = (
{
layerId = m01;
shapes = (
{
closed = 1;
nodes = (
(14,258,o),
(14,264,qs),
(14,298,ls),
(14,304,o),
(19,304,qs),
(76,304,l),
(76,549,ls),
(76,556,o),
(81,556,qs),
(230,556,ls),
(352,556,o),
(421,495,qs),
(498,425,o),
(498,286,qs),
(498,151,o),
(432,78,qs),
(361,0,o),
(223,0,qs),
(81,0,ls),
(76,0,o),
(76,6,qs),
(76,258,l),
(19,258,ls)
);
},
{
closed = 1;
nodes = (
(448,47,o),
(448,284,qs),
(448,397,o),
(399,451,qs),
(346,508,o),
(224,508,qs),
(126,508,l),
(126,304,l),
(292,304,ls),
(322,304,o),
(322,276,qs),
(322,265,ls),
(322,258,o),
(314,258,qs),
(126,258,l),
(126,47,l),
(229,47,ls)
);
}
);
userData = {
assembly = "NPUSHB[ ]	/* 72 values pushed */
15 1 6 1 20 19 2 3 2 1 1 0 7 3 76 5 1 2 4 8 2 3 7 2 3 103 0 6 6 1 95 0 1 1 39 77 9 1 7 7 0 95 0 0 0 40 0 78 23 23 0 0 23 39 23 38 34 32 31 29 26 24 0 22 0 22 19 38 35 10 9 25 
CALL[ ]	/* CallFunction */";
};
width = 556;
}
);
note = Eth;
unicode = 208;
},
{
glyphname = Ntilde;
kernRight = N;
layers = (
{
layerId = m01;
shapes = (
{
closed = 1;
nodes = (
(400,556,o),
(405,556,qs),
(410,556,ls),
(428,556,o),
(450,527,o),
(450,504,qs),
(450,6,ls),
(450,0,o),
(445,0,qs),
(411,0,ls),
(396,0,o),
(389,13,qs),
(124,445,l),
(124,6,ls),
(124,0,o),
(119,0,qs),
(78,0,ls),
(73,0,o),
(73,6,qs),
(73,549,ls),
(73,556,o),
(78,556,qs),
(82,556,ls),
(104,556,o),
(124,541,o),
(139,515,qs),
(400,89,l),
(400,549,ls)
);
},
{
closed = 1;
nodes = (
(157,625,qs),
(161,684,o),
(207,684,qs),
(225,684,o),
(257,669,qs),
(284,657,o),
(293,657,qs),
(308,657,o),
(313,672,qs),
(315,680,o),
(322,680,qs),
(349,680,ls),
(355,680,o),
(355,674,qs),
(353,648,o),
(322,617,o),
(297,617,qs),
(280,617,o),
(249,632,qs),
(223,644,o),
(214,644,qs),
(199,644,o),
(197,627,qs),
(196,619,o),
(190,619,qs),
(163,619,ls),
(157,619,o)
);
}
);
userData = {
assembly = "NPUSHB[ ]	/* 18 values pushed */
40 1 8 7 53 1 4 5 20 14 13 8 0 5 1 0 3 76 
MPPEM[ ]	/* MeasurePixelPerEm */
PUSHB[ ]	/* 1 value pushed */
45 
LT[ ]	/* LessThan */
IF[ ]	/* If */
NPUSHB[ ]	/* 31 values pushed */
9 1 7 0 5 4 7 5 105 0 8 6 1 4 0 8 4 106 3 1 0 0 39 77 2 1 1 1 40 1 78 
ELSE[ ]	/* Else */
NPUSHB[ ]	/* 38 values pushed */
0 7 9 8 9 7 8 128 0 9 0 5 4 9 5 105 0 8 6 1 4 0 8 4 106 3 1 0 0 39 77 2 1 1 1 40 1 78 
EIF[ ]	/* EndIf */
NPUSHB[ ]	/* 14 values pushed */
52 50 34 36 34 35 18 53 37 20 51 10 9 31 
CALL[ ]	/* CallFunction */";
};
width = 522;
}
);
note = Ntilde;
unicode = 209;
},
{
glyphname = Ograve;
kernLeft = O;
kernRight = O;
layers = (
{
layerId = m01;
shapes = (
{
closed = 1;
nodes = (
(421,79,qs),
(489,139,o),
(489,277,qs),
(489,400,o),
(435,462,qs),
(385,520,o),
(299,520,qs),
(224,520,o),
(176,477,qs),
(108,416,o),
(108,277,qs),
(108,155,o),
(162,93,qs),
(211,37,o),
(299,37,qs),
(374,38,o)
);
},
{
closed = 1;
nodes = (
(129,58,qs),
(57,134,o),
(57,277,qs),
(57,401,o),
(113,478,qs),
(178,567,o),
(299,567,qs),
(404,567,o),
(468,498,qs),
(540,420,o),
(540,277,qs),
(540,153,o),
(485,78,qs),
(421,-10,o),
(299,-10,qs),
(192,-10,o)
);
},
{
closed = 1;
nodes = (
(230,691,o),
(233,691,qs),
(283,691,ls),
(293,691,o),
(303,682,qs),
(366,625,l),
(368,624,o),
(366,619,o),
(363,619,qs),
(326,619,ls),
(314,619,o),
(301,629,qs),
(230,685,l),
(228,686,o)
);
}
);
userData = {
assembly = "MPPEM[ ]	/* MeasurePixelPerEm */
PUSHB[ ]	/* 1 value pushed */
36 
LT[ ]	/* LessThan */
IF[ ]	/* If */
NPUSHB[ ]	/* 33 values pushed */
0 5 4 5 133 0 4 3 4 133 0 1 1 3 97 0 3 3 39 77 6 1 0 0 2 97 7 1 2 2 46 2 78 
ELSE[ ]	/* Else */
NPUSHB[ ]	/* 31 values pushed */
0 5 4 5 133 0 4 3 4 133 0 3 0 1 0 3 1 106 6 1 0 0 2 97 7 1 2 2 46 2 78 
EIF[ ]	/* EndIf */
NPUSHB[ ]	/* 23 values pushed */
17 16 1 0 43 41 36 34 25 23 16 31 17 31 9 7 0 15 1 15 8 9 22 
CALL[ ]	/* CallFunction */";
};
width = 597;
}
);
note = Ograve;
unicode = 210;
},
{
glyphname = Oacute;
kernLeft = O;
kernRight = O;
layers = (
{
layerId = m01;
shapes = (
{
closed = 1;
nodes = (
(421,79,qs),
(489,139,o),
(489,277,qs),
(489,400,o),
(435,462,qs),
(385,520,o),
(299,520,qs),
(224,520,o),
(176,477,qs),
(108,416,o),
(108,277,qs),
(108,155,o),
(162,93,qs),
(211,37,o),
(299,37,qs),
(374,38,o)
);
},
{
closed = 1;
nodes = (
(129,58,qs),
(57,134,o),
(57,277,qs),
(57,401,o),
(113,478,qs),
(178,567,o),
(299,567,qs),
(404,567,o),
(468,498,qs),
(540,420,o),
(540,277,qs),
(540,153,o),
(485,78,qs),
(421,-10,o),
(299,-10,qs),
(192,-10,o)
);
},
{
closed = 1;
nodes = (
(304,691,o),
(314,691,qs),
(364,691,ls),
(366,691,o),
(369,687,o),
(367,685,qs),
(295,629,ls),
(283,619,o),
(270,619,qs),
(234,619,ls),
(231,619,o),
(230,621,qs),
(228,624,o),
(231,625,q),
(293,682,ls)
);
}
);
userData = {
assembly = "MPPEM[ ]	/* MeasurePixelPerEm */
PUSHB[ ]	/* 1 value pushed */
36 
LT[ ]	/* LessThan */
IF[ ]	/* If */
NPUSHB[ ]	/* 33 values pushed */
0 5 4 5 133 0 4 3 4 133 0 1 1 3 97 0 3 3 39 77 6 1 0 0 2 97 7 1 2 2 46 2 78 
ELSE[ ]	/* Else */
NPUSHB[ ]	/* 31 values pushed */
0 5 4 5 133 0 4 3 4 133 0 3 0 1 0 3 1 106 6 1 0 0 2 97 7 1 2 2 46 2 78 
EIF[ ]	/* EndIf */
NPUSHB[ ]	/* 23 values pushed */
17 16 1 0 45 42 38 36 25 23 16 31 17 31 9 7 0 15 1 15 8 9 22 
CALL[ ]	/* CallFunction */";
};
width = 597;
}
);
note = Oacute;
unicode = 211;
},
{
glyphname = Ocircumflex;
kernLeft = O;
kernRight = O;
layers = (
{
layerId = m01;
shapes = (
{
closed = 1;
nodes = (
(421,79,qs),
(489,139,o),
(489,277,qs),
(489,400,o),
(435,462,qs),
(385,520,o),
(299,520,qs),
(224,520,o),
(176,477,qs),
(108,416,o),
(108,277,qs),
(108,155,o),
(162,93,qs),
(211,37,o),
(299,37,qs),
(374,38,o)
);
},
{
closed = 1;
nodes = (
(129,58,qs),
(57,134,o),
(57,277,qs),
(57,401,o),
(113,478,qs),
(178,567,o),
(299,567,qs),
(404,567,o),
(468,498,qs),
(540,420,o),
(540,277,qs),
(540,153,o),
(485,78,qs),
(421,-10,o),
(299,-10,qs),
(192,-10,o)
);
},
{
closed = 1;
nodes = (
(251,619,o),
(236,619,qs),
(204,619,ls),
(201,619,o),
(200,621,qs),
(198,624,o),
(201,625,q),
(263,682,ls),
(274,691,o),
(284,691,qs),
(313,691,ls),
(324,691,o),
(334,682,qs),
(396,625,l),
(399,624,o),
(396,619,o),
(394,619,qs),
(361,619,ls),
(347,619,o),
(336,629,qs),
(299,664,l),
(261,629,ls)
);
}
);
userData = {
assembly = "MPPEM[ ]	/* MeasurePixelPerEm */
PUSHB[ ]	/* 1 value pushed */
36 
LT[ ]	/* LessThan */
IF[ ]	/* If */
NPUSHB[ ]	/* 34 values pushed */
0 5 4 5 133 6 1 4 3 4 133 0 1 1 3 97 0 3 3 39 77 7 1 0 0 2 97 8 1 2 2 46 2 78 
ELSE[ ]	/* Else */
NPUSHB[ ]	/* 32 values pushed */
0 5 4 5 133 6 1 4 3 4 133 0 3 0 1 0 3 1 106 7 1 0 0 2 97 8 1 2 2 46 2 78 
EIF[ ]	/* EndIf */
NPUSHB[ ]	/* 25 values pushed */
17 16 1 0 52 50 44 41 36 34 25 23 16 31 17 31 9 7 0 15 1 15 9 9 22 
CALL[ ]	/* CallFunction */";
};
width = 597;
}
);
note = Ocircumflex;
unicode = 212;
},
{
glyphname = Otilde;
kernLeft = O;
kernRight = O;
layers = (
{
layerId = m01;
shapes = (
{
closed = 1;
nodes = (
(421,79,qs),
(489,139,o),
(489,277,qs),
(489,400,o),
(435,462,qs),
(385,520,o),
(299,520,qs),
(224,520,o),
(176,477,qs),
(108,416,o),
(108,277,qs),
(108,155,o),
(162,93,qs),
(211,37,o),
(299,37,qs),
(374,38,o)
);
},
{
closed = 1;
nodes = (
(129,58,qs),
(57,134,o),
(57,277,qs),
(57,401,o),
(113,478,qs),
(178,567,o),
(299,567,qs),
(404,567,o),
(468,498,qs),
(540,420,o),
(540,277,qs),
(540,153,o),
(485,78,qs),
(421,-10,o),
(299,-10,qs),
(192,-10,o)
);
},
{
closed = 1;
nodes = (
(200,625,qs),
(205,684,o),
(251,684,qs),
(268,684,o),
(301,669,qs),
(327,657,o),
(336,657,qs),
(351,657,o),
(356,672,qs),
(359,680,o),
(365,680,qs),
(392,680,ls),
(398,680,o),
(398,674,qs),
(396,648,o),
(365,617,o),
(340,617,qs),
(324,617,o),
(292,632,qs),
(267,644,o),
(257,644,qs),
(243,644,o),
(240,627,qs),
(239,619,o),
(233,619,qs),
(206,619,ls),
(200,619,o)
);
}
);
userData = {
assembly = "PUSHB[ ]	/* 6 values pushed */
44 1 8 7 1 76 
MPPEM[ ]	/* MeasurePixelPerEm */
PUSHB[ ]	/* 1 value pushed */
36 
LT[ ]	/* LessThan */
IF[ ]	/* If */
NPUSHB[ ]	/* 41 values pushed */
9 1 7 0 5 4 7 5 105 0 8 6 1 4 3 8 4 105 0 1 1 3 97 0 3 3 39 77 10 1 0 0 2 97 11 1 2 2 46 2 78 
ELSE[ ]	/* Else */
MPPEM[ ]	/* MeasurePixelPerEm */
PUSHB[ ]	/* 1 value pushed */
45 
LT[ ]	/* LessThan */
IF[ ]	/* If */
NPUSHB[ ]	/* 39 values pushed */
9 1 7 0 5 4 7 5 105 0 8 6 1 4 3 8 4 105 0 3 0 1 0 3 1 106 10 1 0 0 2 97 11 1 2 2 46 2 78 
ELSE[ ]	/* Else */
NPUSHB[ ]	/* 46 values pushed */
0 7 9 8 9 7 8 128 0 9 0 5 4 9 5 105 0 8 6 1 4 3 8 4 105 0 3 0 1 0 3 1 106 10 1 0 0 2 97 11 1 2 2 46 2 78 
EIF[ ]	/* EndIf */
EIF[ ]	/* EndIf */
NPUSHB[ ]	/* 31 values pushed */
17 16 1 0 56 54 52 50 47 46 42 40 38 36 33 32 25 23 16 31 17 31 9 7 0 15 1 15 12 9 22 
CALL[ ]	/* CallFunction */";
};
width = 597;
}
);
note = Otilde;
unicode = 213;
},
{
glyphname = Odieresis;
kernLeft = O;
kernRight = O;
layers = (
{
layerId = m01;
shapes = (
{
closed = 1;
nodes = (
(421,79,qs),
(489,139,o),
(489,277,qs),
(489,400,o),
(435,462,qs),
(385,520,o),
(299,520,qs),
(224,520,o),
(176,477,qs),
(108,416,o),
(108,277,qs),
(108,155,o),
(162,93,qs),
(211,37,o),
(299,37,qs),
(374,38,o)
);
},
{
closed = 1;
nodes = (
(129,58,qs),
(57,134,o),
(57,277,qs),
(57,401,o),
(113,478,qs),
(178,567,o),
(299,567,qs),
(404,567,o),
(468,498,qs),
(540,420,o),
(540,277,qs),
(540,153,o),
(485,78,qs),
(421,-10,o),
(299,-10,qs),
(192,-10,o)
);
},
{
closed = 1;
nodes = (
(228,681,o),
(242,681,qs),
(256,681,o),
(276,661,o),
(276,647,qs),
(276,633,o),
(256,614,o),
(242,614,qs),
(228,614,o),
(209,634,o),
(209,647,qs),
(209,661,o)
);
},
{
closed = 1;
nodes = (
(341,681,o),
(354,681,qs),
(369,681,o),
(388,661,o),
(388,647,qs),
(388,633,o),
(368,614,o),
(354,614,qs),
(341,614,o),
(321,634,o),
(321,647,qs),
(321,661,o)
);
}
);
userData = {
assembly = "MPPEM[ ]	/* MeasurePixelPerEm */
PUSHB[ ]	/* 1 value pushed */
36 
LT[ ]	/* LessThan */
IF[ ]	/* If */
NPUSHB[ ]	/* 33 values pushed */
7 1 5 6 1 4 3 5 4 105 0 1 1 3 97 0 3 3 39 77 8 1 0 0 2 97 9 1 2 2 46 2 78 
ELSE[ ]	/* Else */
NPUSHB[ ]	/* 31 values pushed */
7 1 5 6 1 4 3 5 4 105 0 3 0 1 0 3 1 105 8 1 0 0 2 97 9 1 2 2 46 2 78 
EIF[ ]	/* EndIf */
NPUSHB[ ]	/* 27 values pushed */
17 16 1 0 54 52 48 46 42 40 36 34 25 23 16 31 17 31 9 7 0 15 1 15 10 9 22 
CALL[ ]	/* CallFunction */";
};
width = 597;
}
);
note = Odieresis;
unicode = 214;
},
{
glyphname = multiply;
layers = (
{
layerId = m01;
shapes = (
{
closed = 1;
nodes = (
(46,392,o),
(50,396,qs),
(77,422,o),
(108,389,qs),
(195,304,l),
(304,414,l),
(308,417,o),
(312,414,q),
(334,392,ls),
(338,388,o),
(334,384,qs),
(225,275,l),
(338,160,ls),
(342,155,o),
(339,152,qs),
(312,125,o),
(280,158,qs),
(195,245,l),
(85,134,ls),
(81,130,o),
(77,134,qs),
(55,156,ls),
(51,160,o),
(55,164,qs),
(165,275,l),
(51,388,l)
);
}
);
userData = {
assembly = "PUSHB[ ]	/* 4 values pushed */
22 9 1 50 
CALL[ ]	/* CallFunction */";
};
width = 384;
}
);
note = multiply;
unicode = 215;
},
{
glyphname = Oslash;
kernLeft = O;
kernRight = O;
layers = (
{
layerId = m01;
shapes = (
{
closed = 1;
nodes = (
(361,519,o),
(298,519,qs),
(223,519,o),
(175,476,qs),
(106,415,o),
(106,277,qs),
(106,159,o),
(156,97,q),
(406,488,l)
);
},
{
closed = 1;
nodes = (
(235,37,o),
(298,37,qs),
(373,37,o),
(420,79,qs),
(488,138,o),
(488,277,qs),
(488,394,o),
(439,458,q),
(191,67,l)
);
},
{
closed = 1;
nodes = (
(128,57,qs),
(57,134,o),
(57,277,qs),
(57,401,o),
(113,478,qs),
(177,567,o),
(298,567,qs),
(403,567,o),
(467,498,qs),
(539,420,o),
(539,277,qs),
(539,152,o),
(484,77,qs),
(421,-10,o),
(298,-10,qs),
(192,-10,o)
);
}
);
userData = {
assembly = "PUSHB[ ]	/* 7 values pushed */
17 8 2 1 0 1 76 
MPPEM[ ]	/* MeasurePixelPerEm */
PUSHB[ ]	/* 1 value pushed */
36 
LT[ ]	/* LessThan */
IF[ ]	/* If */
NPUSHB[ ]	/* 22 values pushed */
0 0 0 3 97 0 3 3 39 77 0 1 1 2 97 4 1 2 2 46 2 78 
ELSE[ ]	/* Else */
NPUSHB[ ]	/* 20 values pushed */
0 3 0 0 1 3 0 105 0 1 1 2 97 4 1 2 2 46 2 78 
EIF[ ]	/* EndIf */
NPUSHB[ ]	/* 13 values pushed */
19 18 27 25 18 33 19 33 39 37 5 9 24 
CALL[ ]	/* CallFunction */";
};
width = 597;
}
);
note = Oslash;
unicode = 216;
},
{
glyphname = Ugrave;
kernLeft = U;
kernRight = U;
layers = (
{
layerId = m01;
shapes = (
{
closed = 1;
nodes = (
(116,42,qs),
(68,95,o),
(68,194,qs),
(68,549,ls),
(68,556,o),
(73,556,qs),
(78,556,ls),
(96,556,o),
(119,527,o),
(119,504,qs),
(119,201,ls),
(119,37,o),
(255,37,qs),
(397,37,o),
(397,202,qs),
(397,549,ls),
(397,556,o),
(402,556,qs),
(406,556,ls),
(425,556,o),
(447,527,o),
(447,504,qs),
(447,198,ls),
(447,121,o),
(413,68,qs),
(364,-10,o),
(256,-10,qs),
(165,-10,o)
);
},
{
closed = 1;
nodes = (
(169,691,o),
(172,691,qs),
(222,691,ls),
(233,691,o),
(242,682,qs),
(305,625,l),
(307,624,o),
(305,619,o),
(302,619,qs),
(265,619,ls),
(253,619,o),
(241,629,qs),
(169,685,l),
(167,686,o)
);
}
);
userData = {
assembly = "NPUSHB[ ]	/* 47 values pushed */
0 5 4 5 133 0 4 1 4 133 3 1 1 1 39 77 0 2 2 0 97 6 1 0 0 46 0 78 1 0 39 37 32 30 22 19 15 13 10 7 0 27 1 27 7 9 22 
CALL[ ]	/* CallFunction */";
};
width = 516;
}
);
note = Ugrave;
unicode = 217;
},
{
glyphname = Uacute;
kernLeft = U;
kernRight = U;
layers = (
{
layerId = m01;
shapes = (
{
closed = 1;
nodes = (
(116,42,qs),
(68,95,o),
(68,194,qs),
(68,549,ls),
(68,556,o),
(73,556,qs),
(78,556,ls),
(96,556,o),
(119,527,o),
(119,504,qs),
(119,201,ls),
(119,37,o),
(255,37,qs),
(397,37,o),
(397,202,qs),
(397,549,ls),
(397,556,o),
(402,556,qs),
(406,556,ls),
(425,556,o),
(447,527,o),
(447,504,qs),
(447,198,ls),
(447,121,o),
(413,68,qs),
(364,-10,o),
(256,-10,qs),
(165,-10,o)
);
},
{
closed = 1;
nodes = (
(262,691,o),
(272,691,qs),
(322,691,ls),
(325,691,o),
(327,687,o),
(325,685,qs),
(254,629,ls),
(241,619,o),
(229,619,qs),
(192,619,ls),
(189,619,o),
(187,624,o),
(189,625,q),
(251,682,ls)
);
}
);
userData = {
assembly = "NPUSHB[ ]	/* 47 values pushed */
0 5 4 5 133 0 4 1 4 133 3 1 1 1 39 77 0 2 2 0 97 6 1 0 0 46 0 78 1 0 40 38 33 31 22 19 15 13 10 7 0 27 1 27 7 9 22 
CALL[ ]	/* CallFunction */";
};
width = 516;
}
);
note = Uacute;
unicode = 218;
},
{
glyphname = Ucircumflex;
kernLeft = U;
kernRight = U;
layers = (
{
layerId = m01;
shapes = (
{
closed = 1;
nodes = (
(116,42,qs),
(68,95,o),
(68,194,qs),
(68,549,ls),
(68,556,o),
(73,556,qs),
(78,556,ls),
(96,556,o),
(119,527,o),
(119,504,qs),
(119,201,ls),
(119,37,o),
(255,37,qs),
(397,37,o),
(397,202,qs),
(397,549,ls),
(397,556,o),
(402,556,qs),
(406,556,ls),
(425,556,o),
(447,527,o),
(447,504,qs),
(447,198,ls),
(447,121,o),
(413,68,qs),
(364,-10,o),
(256,-10,qs),
(165,-10,o)
);
},
{
closed = 1;
nodes = (
(210,619,o),
(195,619,qs),
(162,619,ls),
(159,619,o),
(157,624,o),
(159,625,q),
(221,682,ls),
(232,691,o),
(242,691,qs),
(271,691,ls),
(282,691,o),
(292,682,qs),
(355,625,l),
(357,624,o),
(355,619,o),
(352,619,qs),
(319,619,ls),
(305,619,o),
(294,629,qs),
(257,664,l),
(220,629,ls)
);
}
);
userData = {
assembly = "NPUSHB[ ]	/* 50 values pushed */
0 5 4 5 133 6 1 4 1 4 133 3 1 1 1 39 77 0 2 2 0 97 7 1 0 0 46 0 78 1 0 47 45 40 37 32 30 22 19 15 13 10 7 0 27 1 27 8 9 22 
CALL[ ]	/* CallFunction */";
};
width = 516;
}
);
note = Ucircumflex;
unicode = 219;
},
{
glyphname = Udieresis;
kernLeft = U;
kernRight = U;
layers = (
{
layerId = m01;
shapes = (
{
closed = 1;
nodes = (
(116,42,qs),
(68,95,o),
(68,194,qs),
(68,549,ls),
(68,556,o),
(73,556,qs),
(78,556,ls),
(96,556,o),
(119,527,o),
(119,504,qs),
(119,201,ls),
(119,37,o),
(255,37,qs),
(397,37,o),
(397,202,qs),
(397,549,ls),
(397,556,o),
(402,556,qs),
(406,556,ls),
(425,556,o),
(447,527,o),
(447,504,qs),
(447,198,ls),
(447,121,o),
(413,68,qs),
(364,-10,o),
(256,-10,qs),
(165,-10,o)
);
},
{
closed = 1;
nodes = (
(184,681,o),
(197,681,qs),
(212,681,o),
(231,661,o),
(231,647,qs),
(231,633,o),
(212,614,o),
(197,614,qs),
(184,614,o),
(165,634,o),
(165,647,qs),
(165,661,o)
);
},
{
closed = 1;
nodes = (
(296,681,o),
(310,681,qs),
(324,681,o),
(344,661,o),
(344,647,qs),
(344,633,o),
(324,614,o),
(310,614,qs),
(296,614,o),
(277,634,o),
(277,647,qs),
(277,661,o)
);
}
);
userData = {
assembly = "NPUSHB[ ]	/* 51 values pushed */
7 1 5 6 1 4 1 5 4 105 3 1 1 1 39 77 0 2 2 0 97 8 1 0 0 46 0 78 1 0 50 48 44 42 38 36 32 30 22 19 15 13 10 7 0 27 1 27 9 9 22 
CALL[ ]	/* CallFunction */";
};
width = 516;
}
);
note = Udieresis;
unicode = 220;
},
{
glyphname = Yacute;
kernLeft = Y;
kernRight = Y;
layers = (
{
layerId = m01;
shapes = (
{
closed = 1;
nodes = (
(4,556,o),
(13,556,qs),
(29,556,ls),
(48,556,o),
(72,537,o),
(86,513,qs),
(217,274,l),
(364,543,ls),
(370,556,o),
(381,556,qs),
(414,556,ls),
(424,556,o),
(420,547,q),
(240,219,l),
(240,6,ls),
(240,0,o),
(235,0,qs),
(195,0,ls),
(190,0,o),
(190,6,qs),
(190,219,l),
(9,548,ls)
);
},
{
closed = 1;
nodes = (
(230,691,o),
(240,691,qs),
(290,691,ls),
(292,691,o),
(295,687,o),
(293,685,qs),
(221,629,ls),
(209,619,o),
(196,619,qs),
(160,619,ls),
(157,619,o),
(156,621,qs),
(154,624,o),
(157,625,q),
(219,682,ls)
);
}
);
userData = {
assembly = "NPUSHB[ ]	/* 40 values pushed */
14 7 6 1 0 5 0 1 1 76 0 4 3 4 133 0 3 1 3 133 2 1 1 1 39 77 0 0 0 40 0 78 52 38 53 53 19 5 9 27 
CALL[ ]	/* CallFunction */";
};
width = 422;
}
);
note = Yacute;
unicode = 221;
},
{
glyphname = Thorn;
layers = (
{
layerId = m01;
shapes = (
{
closed = 1;
nodes = (
(329,156,o),
(397,222,o),
(397,282,qs),
(397,334,o),
(366,367,qs),
(331,404,o),
(271,404,qs),
(123,404,l),
(123,156,l),
(267,156,ls)
);
},
{
closed = 1;
nodes = (
(123,0,o),
(118,0,qs),
(78,0,ls),
(73,0,o),
(73,6,qs),
(73,549,ls),
(73,556,o),
(78,556,qs),
(83,556,ls),
(101,556,o),
(123,527,o),
(123,503,qs),
(123,451,l),
(267,451,ls),
(344,451,o),
(392,411,qs),
(449,365,o),
(449,281,qs),
(449,207,o),
(407,161,qs),
(358,109,o),
(269,109,qs),
(123,109,l),
(123,6,ls)
);
}
);
userData = {
assembly = "NPUSHB[ ]	/* 53 values pushed */
33 28 2 5 2 1 76 0 3 0 0 1 3 0 103 6 1 1 0 2 5 1 2 103 0 4 4 39 77 0 5 5 40 5 78 0 0 31 30 26 23 20 18 12 10 0 9 0 8 33 7 9 23 
CALL[ ]	/* CallFunction */";
};
width = 484;
}
);
note = Thorn;
unicode = 222;
},
{
glyphname = germandbls;
layers = (
{
layerId = m01;
shapes = (
{
closed = 1;
nodes = (
(278,37,qs),
(313,37,o),
(354,69,o),
(354,97,qs),
(354,120,o),
(339,140,qs),
(326,157,o),
(289,183,qs),
(241,217,o),
(209,260,o),
(209,289,qs),
(209,322,o),
(248,368,qs),
(279,404,o),
(296,432,o),
(296,449,qs),
(296,481,o),
(246,519,o),
(206,519,qs),
(161,519,o),
(110,461,o),
(110,409,qs),
(110,6,ls),
(110,0,o),
(105,0,qs),
(65,0,ls),
(60,0,o),
(60,6,qs),
(60,412,ls),
(60,480,o),
(98,522,qs),
(140,567,o),
(209,567,qs),
(265,567,o),
(303,540,qs),
(345,509,o),
(345,459,qs),
(345,415,o),
(296,358,qs),
(257,312,o),
(257,294,qs),
(257,264,o),
(309,226,qs),
(370,183,o),
(406,137,o),
(406,102,qs),
(406,55,o),
(377,25,qs),
(343,-10,o),
(286,-10,qs),
(237,-10,o),
(164,41,o),
(164,75,qs),
(164,90,o),
(174,90,qs),
(178,90,o),
(184,84,qs),
(223,37,o)
);
}
);
userData = {
assembly = "PUSHB[ ]	/* 7 values pushed */
34 29 2 3 5 1 76 
MPPEM[ ]	/* MeasurePixelPerEm */
PUSHB[ ]	/* 1 value pushed */
36 
LT[ ]	/* LessThan */
IF[ ]	/* If */
NPUSHB[ ]	/* 34 values pushed */
0 0 4 5 4 0 5 128 0 4 4 2 97 0 2 2 39 77 0 3 3 40 77 0 5 5 1 97 0 1 1 46 1 78 
ELSE[ ]	/* Else */
NPUSHB[ ]	/* 32 values pushed */
0 0 4 5 4 0 5 128 0 2 0 4 0 2 4 105 0 3 3 40 77 0 5 5 1 97 0 1 1 46 1 78 
EIF[ ]	/* EndIf */
NPUSHB[ ]	/* 10 values pushed */
57 55 37 22 47 35 33 6 9 27 
CALL[ ]	/* CallFunction */";
};
width = 439;
}
);
note = germandbls;
unicode = 223;
},
{
glyphname = agrave;
kernLeft = a;
kernRight = a;
layers = (
{
layerId = m01;
shapes = (
{
closed = 1;
nodes = (
(216,-9,qs),
(143,-9,o),
(96,40,qs),
(44,93,o),
(44,178,qs),
(44,255,o),
(87,307,qs),
(137,367,o),
(219,367,qs),
(304,367,o),
(345,305,q),
(345,360,o),
(385,360,qs),
(390,360,ls),
(395,360,o),
(395,354,qs),
(395,6,ls),
(395,0,o),
(390,0,qs),
(349,0,ls),
(344,0,o),
(344,6,qs),
(344,57,l),
(302,-9,o)
);
},
{
closed = 1;
nodes = (
(299,64,qs),
(344,100,o),
(344,178,qs),
(344,248,o),
(308,285,qs),
(274,320,o),
(219,320,qs),
(166,320,o),
(132,285,qs),
(95,246,o),
(95,178,qs),
(95,116,o),
(127,78,qs),
(162,38,o),
(214,38,qs),
(266,38,o)
);
},
{
closed = 1;
nodes = (
(139,502,o),
(141,502,qs),
(191,502,ls),
(202,502,o),
(212,493,qs),
(275,436,l),
(277,435,o),
(275,431,o),
(272,431,qs),
(235,431,ls),
(223,431,o),
(210,440,qs),
(138,496,l),
(137,498,o)
);
}
);
userData = {
assembly = "NPUSHB[ ]	/* 16 values pushed */
7 1 5 1 12 0 2 4 5 6 1 2 0 4 3 76 
MPPEM[ ]	/* MeasurePixelPerEm */
PUSHB[ ]	/* 1 value pushed */
27 
LT[ ]	/* LessThan */
IF[ ]	/* If */
NPUSHB[ ]	/* 38 values pushed */
0 7 6 7 133 0 6 1 6 133 0 5 5 1 97 2 1 1 1 42 77 0 0 0 40 77 8 1 4 4 3 97 0 3 3 49 3 78 
ELSE[ ]	/* Else */
NPUSHB[ ]	/* 42 values pushed */
0 7 6 7 133 0 6 2 6 133 0 1 1 42 77 0 5 5 2 97 0 2 2 48 77 0 0 0 40 77 8 1 4 4 3 97 0 3 3 49 3 78 
EIF[ ]	/* EndIf */
NPUSHB[ ]	/* 19 values pushed */
25 24 51 49 44 42 33 31 24 39 25 39 38 34 37 19 9 9 26 
CALL[ ]	/* CallFunction */";
};
width = 454;
}
);
note = agrave;
unicode = 224;
},
{
glyphname = aacute;
kernLeft = a;
kernRight = a;
layers = (
{
layerId = m01;
shapes = (
{
closed = 1;
nodes = (
(216,-9,qs),
(143,-9,o),
(96,40,qs),
(44,93,o),
(44,178,qs),
(44,255,o),
(87,307,qs),
(137,367,o),
(219,367,qs),
(304,367,o),
(345,305,q),
(345,360,o),
(385,360,qs),
(390,360,ls),
(395,360,o),
(395,354,qs),
(395,6,ls),
(395,0,o),
(390,0,qs),
(349,0,ls),
(344,0,o),
(344,6,qs),
(344,57,l),
(302,-9,o)
);
},
{
closed = 1;
nodes = (
(299,64,qs),
(344,100,o),
(344,178,qs),
(344,248,o),
(308,285,qs),
(274,320,o),
(219,320,qs),
(166,320,o),
(132,285,qs),
(95,246,o),
(95,178,qs),
(95,116,o),
(127,78,qs),
(162,38,o),
(214,38,qs),
(266,38,o)
);
},
{
closed = 1;
nodes = (
(222,502,o),
(233,502,qs),
(282,502,ls),
(285,502,o),
(287,498,o),
(286,496,q),
(214,440,ls),
(201,431,o),
(189,431,qs),
(152,431,ls),
(150,431,o),
(148,433,q),
(147,435,o),
(150,436,q),
(212,493,ls)
);
}
);
userData = {
assembly = "NPUSHB[ ]	/* 16 values pushed */
7 1 5 1 12 0 2 4 5 6 1 2 0 4 3 76 
MPPEM[ ]	/* MeasurePixelPerEm */
PUSHB[ ]	/* 1 value pushed */
27 
LT[ ]	/* LessThan */
IF[ ]	/* If */
NPUSHB[ ]	/* 38 values pushed */
0 7 6 7 133 0 6 1 6 133 0 5 5 1 97 2 1 1 1 42 77 0 0 0 40 77 8 1 4 4 3 97 0 3 3 49 3 78 
ELSE[ ]	/* Else */
NPUSHB[ ]	/* 42 values pushed */
0 7 6 7 133 0 6 2 6 133 0 1 1 42 77 0 5 5 2 97 0 2 2 48 77 0 0 0 40 77 8 1 4 4 3 97 0 3 3 49 3 78 
EIF[ ]	/* EndIf */
NPUSHB[ ]	/* 19 values pushed */
25 24 53 50 46 44 33 31 24 39 25 39 38 34 37 19 9 9 26 
CALL[ ]	/* CallFunction */";
};
width = 454;
}
);
note = aacute;
unicode = 225;
},
{
glyphname = acircumflex;
kernLeft = a;
kernRight = a;
layers = (
{
layerId = m01;
shapes = (
{
closed = 1;
nodes = (
(216,-9,qs),
(143,-9,o),
(96,40,qs),
(44,93,o),
(44,178,qs),
(44,255,o),
(87,307,qs),
(137,367,o),
(219,367,qs),
(304,367,o),
(345,305,q),
(345,360,o),
(385,360,qs),
(390,360,ls),
(395,360,o),
(395,354,qs),
(395,6,ls),
(395,0,o),
(390,0,qs),
(349,0,ls),
(344,0,o),
(344,6,qs),
(344,57,l),
(302,-9,o)
);
},
{
closed = 1;
nodes = (
(299,64,qs),
(344,100,o),
(344,178,qs),
(344,248,o),
(308,285,qs),
(274,320,o),
(219,320,qs),
(166,320,o),
(132,285,qs),
(95,246,o),
(95,178,qs),
(95,116,o),
(127,78,qs),
(162,38,o),
(214,38,qs),
(266,38,o)
);
},
{
closed = 1;
nodes = (
(176,431,o),
(161,431,qs),
(128,431,ls),
(126,431,o),
(124,433,q),
(123,435,o),
(126,436,q),
(188,493,ls),
(198,502,o),
(209,502,qs),
(238,502,ls),
(249,502,o),
(258,493,qs),
(321,436,l),
(323,435,o),
(321,431,o),
(318,431,qs),
(286,431,ls),
(271,431,o),
(261,440,qs),
(224,475,l),
(186,440,ls)
);
}
);
userData = {
assembly = "NPUSHB[ ]	/* 16 values pushed */
7 1 5 1 12 0 2 4 5 6 1 2 0 4 3 76 
MPPEM[ ]	/* MeasurePixelPerEm */
PUSHB[ ]	/* 1 value pushed */
27 
LT[ ]	/* LessThan */
IF[ ]	/* If */
NPUSHB[ ]	/* 39 values pushed */
0 7 6 7 133 8 1 6 1 6 133 0 5 5 1 97 2 1 1 1 42 77 0 0 0 40 77 9 1 4 4 3 97 0 3 3 49 3 78 
ELSE[ ]	/* Else */
NPUSHB[ ]	/* 43 values pushed */
0 7 6 7 133 8 1 6 2 6 133 0 1 1 42 77 0 5 5 2 97 0 2 2 48 77 0 0 0 40 77 9 1 4 4 3 97 0 3 3 49 3 78 
EIF[ ]	/* EndIf */
NPUSHB[ ]	/* 21 values pushed */
25 24 60 58 52 49 44 42 33 31 24 39 25 39 38 34 37 19 10 9 26 
CALL[ ]	/* CallFunction */";
};
width = 454;
}
);
note = acircumflex;
unicode = 226;
},
{
glyphname = atilde;
kernLeft = a;
kernRight = a;
layers = (
{
layerId = m01;
shapes = (
{
closed = 1;
nodes = (
(216,-9,qs),
(143,-9,o),
(96,40,qs),
(44,93,o),
(44,178,qs),
(44,255,o),
(87,307,qs),
(137,367,o),
(219,367,qs),
(304,367,o),
(345,305,q),
(345,360,o),
(385,360,qs),
(390,360,ls),
(395,360,o),
(395,354,qs),
(395,6,ls),
(395,0,o),
(390,0,qs),
(349,0,ls),
(344,0,o),
(344,6,qs),
(344,57,l),
(302,-9,o)
);
},
{
closed = 1;
nodes = (
(299,64,qs),
(344,100,o),
(344,178,qs),
(344,248,o),
(308,285,qs),
(274,320,o),
(219,320,qs),
(166,320,o),
(132,285,qs),
(95,246,o),
(95,178,qs),
(95,116,o),
(127,78,qs),
(162,38,o),
(214,38,qs),
(266,38,o)
);
},
{
closed = 1;
nodes = (
(122,436,qs),
(126,495,o),
(172,495,qs),
(190,495,o),
(222,480,qs),
(249,468,o),
(258,468,qs),
(272,468,o),
(278,483,q),
(280,491,o),
(287,491,qs),
(313,491,ls),
(320,491,o),
(320,485,qs),
(318,459,o),
(286,428,o),
(262,428,qs),
(245,428,o),
(214,443,qs),
(188,455,o),
(178,455,qs),
(164,455,o),
(162,438,q),
(160,431,o),
(155,431,qs),
(128,431,ls),
(122,431,o)
);
}
);
userData = {
assembly = "NPUSHB[ ]	/* 24 values pushed */
52 1 10 9 65 1 6 7 7 1 5 1 12 0 2 4 5 6 1 2 0 4 5 76 
MPPEM[ ]	/* MeasurePixelPerEm */
PUSHB[ ]	/* 1 value pushed */
27 
LT[ ]	/* LessThan */
IF[ ]	/* If */
NPUSHB[ ]	/* 46 values pushed */
11 1 9 0 7 6 9 7 105 0 10 8 1 6 1 10 6 106 0 5 5 1 97 2 1 1 1 42 77 0 0 0 40 77 12 1 4 4 3 97 0 3 3 49 3 78 
ELSE[ ]	/* Else */
MPPEM[ ]	/* MeasurePixelPerEm */
PUSHB[ ]	/* 1 value pushed */
45 
LT[ ]	/* LessThan */
IF[ ]	/* If */
NPUSHB[ ]	/* 50 values pushed */
11 1 9 0 7 6 9 7 105 0 10 8 1 6 2 10 6 106 0 1 1 42 77 0 5 5 2 97 0 2 2 48 77 0 0 0 40 77 12 1 4 4 3 97 0 3 3 49 3 78 
ELSE[ ]	/* Else */
NPUSHB[ ]	/* 57 values pushed */
0 9 11 10 11 9 10 128 0 11 0 7 6 11 7 105 0 10 8 1 6 2 10 6 106 0 1 1 42 77 0 5 5 2 97 0 2 2 48 77 0 0 0 40 77 12 1 4 4 3 97 0 3 3 49 3 78 
EIF[ ]	/* EndIf */
EIF[ ]	/* EndIf */
NPUSHB[ ]	/* 27 values pushed */
25 24 64 62 60 58 56 54 50 48 46 44 41 40 33 31 24 39 25 39 38 34 37 19 13 9 26 
CALL[ ]	/* CallFunction */";
};
width = 454;
}
);
note = atilde;
unicode = 227;
},
{
glyphname = adieresis;
kernLeft = a;
kernRight = a;
layers = (
{
layerId = m01;
shapes = (
{
closed = 1;
nodes = (
(216,-9,qs),
(143,-9,o),
(96,40,qs),
(44,93,o),
(44,178,qs),
(44,255,o),
(87,307,qs),
(137,367,o),
(219,367,qs),
(304,367,o),
(345,305,q),
(345,360,o),
(385,360,qs),
(390,360,ls),
(395,360,o),
(395,354,qs),
(395,6,ls),
(395,0,o),
(390,0,qs),
(349,0,ls),
(344,0,o),
(344,6,qs),
(344,57,l),
(302,-9,o)
);
},
{
closed = 1;
nodes = (
(299,64,qs),
(344,100,o),
(344,178,qs),
(344,248,o),
(308,285,qs),
(274,320,o),
(219,320,qs),
(166,320,o),
(132,285,qs),
(95,246,o),
(95,178,qs),
(95,116,o),
(127,78,qs),
(162,38,o),
(214,38,qs),
(266,38,o)
);
},
{
closed = 1;
nodes = (
(145,492,o),
(159,492,qs),
(173,492,o),
(193,472,o),
(193,458,qs),
(193,445,o),
(173,426,o),
(159,426,qs),
(145,426,o),
(126,445,o),
(126,458,qs),
(126,472,o)
);
},
{
closed = 1;
nodes = (
(258,492,o),
(271,492,qs),
(286,492,o),
(305,472,o),
(305,458,qs),
(305,445,o),
(285,426,o),
(271,426,qs),
(258,426,o),
(238,445,o),
(238,458,qs),
(238,472,o)
);
}
);
userData = {
assembly = "NPUSHB[ ]	/* 16 values pushed */
7 1 5 1 12 0 2 4 5 6 1 2 0 4 3 76 
MPPEM[ ]	/* MeasurePixelPerEm */
PUSHB[ ]	/* 1 value pushed */
27 
LT[ ]	/* LessThan */
IF[ ]	/* If */
NPUSHB[ ]	/* 38 values pushed */
9 1 7 8 1 6 1 7 6 105 0 5 5 1 97 2 1 1 1 42 77 0 0 0 40 77 10 1 4 4 3 97 0 3 3 49 3 78 
ELSE[ ]	/* Else */
NPUSHB[ ]	/* 42 values pushed */
9 1 7 8 1 6 2 7 6 105 0 1 1 42 77 0 5 5 2 97 0 2 2 48 77 0 0 0 40 77 10 1 4 4 3 97 0 3 3 49 3 78 
EIF[ ]	/* EndIf */
NPUSHB[ ]	/* 23 values pushed */
25 24 62 60 56 54 50 48 44 42 33 31 24 39 25 39 38 34 37 19 11 9 26 
CALL[ ]	/* CallFunction */";
};
width = 454;
}
);
note = adieresis;
unicode = 228;
},
{
glyphname = aring;
kernLeft = a;
kernRight = a;
layers = (
{
layerId = m01;
shapes = (
{
closed = 1;
nodes = (
(216,-9,qs),
(143,-9,o),
(96,40,qs),
(44,93,o),
(44,178,qs),
(44,255,o),
(87,307,qs),
(137,367,o),
(219,367,qs),
(304,367,o),
(345,305,q),
(345,360,o),
(385,360,qs),
(390,360,ls),
(395,360,o),
(395,354,qs),
(395,6,ls),
(395,0,o),
(390,0,qs),
(349,0,ls),
(344,0,o),
(344,6,qs),
(344,57,l),
(302,-9,o)
);
},
{
closed = 1;
nodes = (
(299,64,qs),
(344,100,o),
(344,178,qs),
(344,248,o),
(308,285,qs),
(274,320,o),
(219,320,qs),
(166,320,o),
(132,285,qs),
(95,246,o),
(95,178,qs),
(95,116,o),
(127,78,qs),
(162,38,o),
(214,38,qs),
(266,38,o)
);
},
{
closed = 1;
nodes = (
(189,548,o),
(216,548,qs),
(243,548,o),
(282,511,o),
(282,484,qs),
(282,458,o),
(243,421,o),
(216,421,qs),
(190,421,o),
(151,458,o),
(151,484,qs),
(151,510,o)
);
},
{
closed = 1;
nodes = (
(249,469,o),
(249,484,qs),
(249,499,o),
(231,519,o),
(216,519,qs),
(202,519,o),
(184,499,o),
(184,484,qs),
(184,469,o),
(202,450,o),
(216,450,qs),
(231,450,o)
);
}
);
userData = {
assembly = "NPUSHB[ ]	/* 16 values pushed */
7 1 5 1 12 0 2 4 5 6 1 2 0 4 3 76 
MPPEM[ ]	/* MeasurePixelPerEm */
PUSHB[ ]	/* 1 value pushed */
27 
LT[ ]	/* LessThan */
IF[ ]	/* If */
NPUSHB[ ]	/* 47 values pushed */
11 1 8 0 6 1 8 6 105 0 9 9 7 97 0 7 7 39 77 0 5 5 1 97 2 1 1 1 42 77 0 0 0 40 77 10 1 4 4 3 97 0 3 3 49 3 78 
ELSE[ ]	/* Else */
MPPEM[ ]	/* MeasurePixelPerEm */
PUSHB[ ]	/* 1 value pushed */
49 
LT[ ]	/* LessThan */
IF[ ]	/* If */
NPUSHB[ ]	/* 51 values pushed */
11 1 8 0 6 2 8 6 105 0 9 9 7 97 0 7 7 39 77 0 1 1 42 77 0 5 5 2 97 0 2 2 48 77 0 0 0 40 77 10 1 4 4 3 97 0 3 3 49 3 78 
ELSE[ ]	/* Else */
NPUSHB[ ]	/* 49 values pushed */
0 7 0 9 8 7 9 105 11 1 8 0 6 2 8 6 105 0 1 1 42 77 0 5 5 2 97 0 2 2 48 77 0 0 0 40 77 10 1 4 4 3 97 0 3 3 49 3 78 
EIF[ ]	/* EndIf */
EIF[ ]	/* EndIf */
NPUSHB[ ]	/* 27 values pushed */
53 52 25 24 59 57 52 63 53 63 50 48 44 42 33 31 24 39 25 39 38 34 37 19 12 9 26 
CALL[ ]	/* CallFunction */";
};
width = 454;
}
);
note = aring;
unicode = 229;
},
{
glyphname = ae;
kernLeft = a;
kernRight = e;
layers = (
{
layerId = m01;
shapes = (
{
closed = 1;
nodes = (
(395,0,o),
(390,0,qs),
(349,0,ls),
(344,0,o),
(344,6,qs),
(344,57,l),
(302,-9,o),
(216,-9,qs),
(143,-9,o),
(95,40,qs),
(44,93,o),
(44,178,qs),
(44,255,o),
(87,307,qs),
(137,367,o),
(219,367,qs),
(303,367,o),
(344,305,q),
(344,360,o),
(385,360,qs),
(390,360,ls),
(395,360,o),
(395,354,qs),
(395,305,l),
(442,367,o),
(518,367,qs),
(594,367,o),
(633,322,qs),
(672,278,o),
(672,201,qs),
(672,179,o),
(671,171,qs),
(669,160,o),
(657,160,qs),
(402,160,l),
(406,102,o),
(440,70,qs),
(476,37,o),
(537,37,qs),
(574,37,o),
(622,57,o),
(647,83,q),
(654,92,o),
(658,92,qs),
(667,92,o),
(667,79,qs),
(667,49,o),
(635,23,qs),
(594,-9,o),
(533,-9,qs),
(444,-9,o),
(395,52,q),
(395,6,ls)
);
},
{
closed = 1;
nodes = (
(298,64,qs),
(344,100,o),
(344,178,qs),
(344,248,o),
(307,285,qs),
(274,320,o),
(219,320,qs),
(166,320,o),
(132,285,qs),
(94,246,o),
(94,178,qs),
(94,116,o),
(127,78,qs),
(162,38,o),
(214,38,qs),
(265,38,o)
);
},
{
closed = 1;
nodes = (
(624,321,o),
(518,321,qs),
(474,321,o),
(444,294,qs),
(409,262,o),
(402,203,q),
(622,203,l)
);
}
);
userData = {
assembly = "MPPEM[ ]	/* MeasurePixelPerEm */
PUSHB[ ]	/* 1 value pushed */
27 
LT[ ]	/* LessThan */
IF[ ]	/* If */
NPUSHB[ ]	/* 21 values pushed */
29 1 10 4 34 28 2 12 10 46 0 2 2 1 52 47 2 8 2 4 76 
ELSE[ ]	/* Else */
NPUSHB[ ]	/* 21 values pushed */
29 1 10 5 34 28 2 12 10 46 0 2 2 1 52 47 2 8 2 4 76 
EIF[ ]	/* EndIf */
MPPEM[ ]	/* MeasurePixelPerEm */
PUSHB[ ]	/* 1 value pushed */
27 
LT[ ]	/* LessThan */
IF[ ]	/* If */
NPUSHB[ ]	/* 49 values pushed */
0 1 3 2 3 1 2 128 14 1 12 0 3 1 12 3 103 11 1 10 10 4 97 6 5 2 4 4 48 77 0 8 8 40 77 13 9 2 2 2 0 97 7 1 0 0 49 0 78 
ELSE[ ]	/* Else */
NPUSHB[ ]	/* 53 values pushed */
0 1 3 2 3 1 2 128 14 1 12 0 3 1 12 3 103 0 5 5 42 77 11 1 10 10 4 97 6 1 4 4 48 77 0 8 8 40 77 13 9 2 2 2 0 97 7 1 0 0 49 0 78 
EIF[ ]	/* EndIf */
NPUSHB[ ]	/* 28 values pushed */
69 69 54 53 69 75 69 75 74 72 62 60 53 68 54 68 20 38 34 36 38 35 36 20 33 15 9 31 
CALL[ ]	/* CallFunction */";
};
width = 712;
}
);
note = ae;
unicode = 230;
},
{
glyphname = ccedilla;
kernLeft = c;
kernRight = c;
layers = (
{
layerId = m01;
shapes = (
{
closed = 1;
nodes = (
(197,-86,o),
(181,-86,qs),
(147,-86,ls),
(140,-86,o),
(144,-80,qs),
(190,-8,l),
(128,0,o),
(89,44,qs),
(44,94,o),
(44,177,qs),
(44,255,o),
(87,307,qs),
(136,367,o),
(218,367,qs),
(270,367,o),
(307,349,qs),
(334,337,o),
(328,313,qs),
(324,298,ls),
(322,292,o),
(319,292,qs),
(317,292,o),
(314,293,q),
(313,294,l),
(268,320,o),
(218,320,qs),
(166,320,o),
(133,287,qs),
(95,248,o),
(95,178,qs),
(95,116,o),
(125,80,qs),
(159,37,o),
(223,37,qs),
(282,37,o),
(320,82,qs),
(326,89,o),
(330,89,qs),
(340,89,o),
(340,74,qs),
(340,48,o),
(315,25,qs),
(284,-4,o),
(237,-9,q),
(202,-77,ls)
);
}
);
userData = {
assembly = "NPUSHB[ ]	/* 44 values pushed */
23 1 0 2 38 1 4 1 2 76 0 0 2 1 2 0 1 128 0 1 0 4 1 4 101 0 2 2 3 97 0 3 3 48 2 78 57 42 38 35 21 5 9 27 
CALL[ ]	/* CallFunction */";
};
width = 362;
}
);
note = ccedilla;
unicode = 231;
},
{
glyphname = egrave;
kernLeft = e;
kernRight = e;
layers = (
{
layerId = m01;
shapes = (
{
closed = 1;
nodes = (
(131,70,qs),
(166,37,o),
(226,37,qs),
(293,37,o),
(340,82,qs),
(341,83,o),
(341,84,q),
(348,92,o),
(352,92,qs),
(360,92,o),
(360,78,qs),
(360,47,o),
(326,22,qs),
(284,-9,o),
(222,-9,qs),
(156,-9,o),
(109,27,qs),
(44,77,o),
(44,178,qs),
(44,255,o),
(85,307,qs),
(132,367,o),
(208,367,qs),
(283,367,o),
(324,322,qs),
(365,277,o),
(365,201,qs),
(365,179,o),
(364,171,qs),
(363,160,o),
(351,160,qs),
(95,160,l),
(99,102,o)
);
},
{
closed = 1;
nodes = (
(316,321,o),
(207,321,qs),
(160,321,o),
(101,259,o),
(95,203,q),
(314,203,l)
);
},
{
closed = 1;
nodes = (
(134,502,o),
(136,502,qs),
(186,502,ls),
(197,502,o),
(207,493,qs),
(270,436,l),
(272,435,o),
(270,431,o),
(267,431,qs),
(230,431,ls),
(218,431,o),
(205,440,qs),
(133,496,l),
(132,498,o)
);
}
);
userData = {
assembly = "NPUSHB[ ]	/* 67 values pushed */
0 8 7 8 133 0 7 1 7 133 0 3 0 4 0 3 4 128 9 1 6 0 0 3 6 0 103 0 5 5 1 97 0 1 1 48 77 0 4 4 2 97 0 2 2 49 2 78 33 33 50 48 43 41 33 38 33 38 37 37 20 38 38 32 10 9 28 
CALL[ ]	/* CallFunction */";
};
width = 406;
}
);
note = egrave;
unicode = 232;
},
{
glyphname = eacute;
kernLeft = e;
kernRight = e;
layers = (
{
layerId = m01;
shapes = (
{
closed = 1;
nodes = (
(131,70,qs),
(166,37,o),
(226,37,qs),
(293,37,o),
(340,82,qs),
(341,83,o),
(341,84,q),
(348,92,o),
(352,92,qs),
(360,92,o),
(360,78,qs),
(360,47,o),
(326,22,qs),
(284,-9,o),
(222,-9,qs),
(156,-9,o),
(109,27,qs),
(44,77,o),
(44,178,qs),
(44,255,o),
(85,307,qs),
(132,367,o),
(208,367,qs),
(283,367,o),
(324,322,qs),
(365,277,o),
(365,201,qs),
(365,179,o),
(364,171,qs),
(363,160,o),
(351,160,qs),
(95,160,l),
(99,102,o)
);
},
{
closed = 1;
nodes = (
(316,321,o),
(207,321,qs),
(160,321,o),
(101,259,o),
(95,203,q),
(314,203,l)
);
},
{
closed = 1;
nodes = (
(217,502,o),
(228,502,qs),
(277,502,ls),
(280,502,o),
(282,498,o),
(281,496,q),
(209,440,ls),
(196,431,o),
(184,431,qs),
(147,431,ls),
(145,431,o),
(143,433,q),
(142,435,o),
(145,436,q),
(207,493,ls)
);
}
);
userData = {
assembly = "NPUSHB[ ]	/* 67 values pushed */
0 8 7 8 133 0 7 1 7 133 0 3 0 4 0 3 4 128 9 1 6 0 0 3 6 0 103 0 5 5 1 97 0 1 1 48 77 0 4 4 2 97 0 2 2 49 2 78 33 33 52 49 45 43 33 38 33 38 37 37 20 38 38 32 10 9 28 
CALL[ ]	/* CallFunction */";
};
width = 406;
}
);
note = eacute;
unicode = 233;
},
{
glyphname = ecircumflex;
kernLeft = e;
kernRight = e;
layers = (
{
layerId = m01;
shapes = (
{
closed = 1;
nodes = (
(131,70,qs),
(166,37,o),
(226,37,qs),
(293,37,o),
(340,82,qs),
(341,83,o),
(341,84,q),
(348,92,o),
(352,92,qs),
(360,92,o),
(360,78,qs),
(360,47,o),
(326,22,qs),
(284,-9,o),
(222,-9,qs),
(156,-9,o),
(109,27,qs),
(44,77,o),
(44,178,qs),
(44,255,o),
(85,307,qs),
(132,367,o),
(208,367,qs),
(283,367,o),
(324,322,qs),
(365,277,o),
(365,201,qs),
(365,179,o),
(364,171,qs),
(363,160,o),
(351,160,qs),
(95,160,l),
(99,102,o)
);
},
{
closed = 1;
nodes = (
(316,321,o),
(207,321,qs),
(160,321,o),
(101,259,o),
(95,203,q),
(314,203,l)
);
},
{
closed = 1;
nodes = (
(165,431,o),
(150,431,qs),
(117,431,ls),
(115,431,o),
(113,433,q),
(112,435,o),
(115,436,q),
(177,493,ls),
(187,502,o),
(198,502,qs),
(227,502,ls),
(238,502,o),
(247,493,qs),
(310,436,l),
(312,435,o),
(310,431,o),
(307,431,qs),
(275,431,ls),
(260,431,o),
(250,440,qs),
(213,475,l),
(175,440,ls)
);
}
);
userData = {
assembly = "NPUSHB[ ]	/* 70 values pushed */
0 8 7 8 133 9 1 7 1 7 133 0 3 0 4 0 3 4 128 10 1 6 0 0 3 6 0 103 0 5 5 1 97 0 1 1 48 77 0 4 4 2 97 0 2 2 49 2 78 33 33 59 57 51 48 43 41 33 38 33 38 37 37 20 38 38 32 11 9 28 
CALL[ ]	/* CallFunction */";
};
width = 406;
}
);
note = ecircumflex;
unicode = 234;
},
{
glyphname = edieresis;
kernLeft = e;
kernRight = e;
layers = (
{
layerId = m01;
shapes = (
{
closed = 1;
nodes = (
(131,70,qs),
(166,37,o),
(226,37,qs),
(293,37,o),
(340,82,qs),
(341,83,o),
(341,84,q),
(348,92,o),
(352,92,qs),
(360,92,o),
(360,78,qs),
(360,47,o),
(326,22,qs),
(284,-9,o),
(222,-9,qs),
(156,-9,o),
(109,27,qs),
(44,77,o),
(44,178,qs),
(44,255,o),
(85,307,qs),
(132,367,o),
(208,367,qs),
(283,367,o),
(324,322,qs),
(365,277,o),
(365,201,qs),
(365,179,o),
(364,171,qs),
(363,160,o),
(351,160,qs),
(95,160,l),
(99,102,o)
);
},
{
closed = 1;
nodes = (
(316,321,o),
(207,321,qs),
(160,321,o),
(101,259,o),
(95,203,q),
(314,203,l)
);
},
{
closed = 1;
nodes = (
(139,492,o),
(153,492,qs),
(167,492,o),
(187,472,o),
(187,458,qs),
(187,445,o),
(167,426,o),
(153,426,qs),
(139,426,o),
(120,445,o),
(120,458,qs),
(120,472,o)
);
},
{
closed = 1;
nodes = (
(251,492,o),
(265,492,qs),
(279,492,o),
(299,472,o),
(299,458,qs),
(299,445,o),
(279,426,o),
(265,426,qs),
(252,426,o),
(232,445,o),
(232,458,qs),
(232,472,o)
);
}
);
userData = {
assembly = "NPUSHB[ ]	/* 71 values pushed */
0 3 0 4 0 3 4 128 10 1 8 9 1 7 1 8 7 105 11 1 6 0 0 3 6 0 103 0 5 5 1 97 0 1 1 48 77 0 4 4 2 97 0 2 2 49 2 78 33 33 61 59 55 53 49 47 43 41 33 38 33 38 37 37 20 38 38 32 12 9 28 
CALL[ ]	/* CallFunction */";
};
width = 406;
}
);
note = edieresis;
unicode = 235;
},
{
glyphname = igrave;
kernLeft = i;
kernRight = i;
layers = (
{
layerId = m01;
shapes = (
{
closed = 1;
nodes = (
(60,6,qs),
(60,354,ls),
(60,360,o),
(65,360,qs),
(68,360,ls),
(87,360,o),
(109,332,o),
(109,308,qs),
(109,6,ls),
(109,0,o),
(104,0,qs),
(65,0,ls),
(60,0,o)
);
},
{
closed = 1;
nodes = (
(16,502,o),
(19,502,qs),
(69,502,ls),
(80,502,o),
(90,493,qs),
(152,436,l),
(155,435,o),
(152,431,o),
(150,431,qs),
(112,431,ls),
(101,431,o),
(88,440,qs),
(16,496,ls),
(14,498,o)
);
}
);
userData = {
assembly = "NPUSHB[ ]	/* 35 values pushed */
11 3 2 0 1 1 76 0 3 2 3 133 0 2 1 2 133 0 1 1 42 77 0 0 0 40 0 78 37 38 53 16 4 9 26 
CALL[ ]	/* CallFunction */";
};
width = 170;
}
);
note = igrave;
unicode = 236;
},
{
glyphname = iacute;
kernLeft = i;
kernRight = i;
layers = (
{
layerId = m01;
shapes = (
{
closed = 1;
nodes = (
(60,6,qs),
(60,354,ls),
(60,360,o),
(65,360,qs),
(69,360,ls),
(87,360,o),
(109,332,o),
(109,308,qs),
(109,6,ls),
(109,0,o),
(104,0,qs),
(65,0,ls),
(60,0,o)
);
},
{
closed = 1;
nodes = (
(89,502,o),
(100,502,qs),
(149,502,ls),
(152,502,o),
(154,498,o),
(152,496,qs),
(81,440,ls),
(68,431,o),
(56,431,qs),
(19,431,ls),
(16,431,o),
(15,432,q),
(14,435,o),
(16,436,q),
(79,493,ls)
);
}
);
userData = {
assembly = "NPUSHB[ ]	/* 35 values pushed */
11 3 2 0 1 1 76 0 3 2 3 133 0 2 1 2 133 0 1 1 42 77 0 0 0 40 0 78 37 40 53 16 4 9 26 
CALL[ ]	/* CallFunction */";
};
width = 170;
}
);
note = iacute;
unicode = 237;
},
{
glyphname = icircumflex;
kernLeft = i;
kernRight = i;
layers = (
{
layerId = m01;
shapes = (
{
closed = 1;
nodes = (
(60,6,qs),
(60,354,ls),
(60,360,o),
(65,360,qs),
(69,360,ls),
(87,360,o),
(109,332,o),
(109,308,qs),
(109,6,ls),
(109,0,o),
(104,0,qs),
(65,0,ls),
(60,0,o)
);
},
{
closed = 1;
nodes = (
(37,431,o),
(22,431,qs),
(-11,431,ls),
(-14,431,o),
(-15,432,q),
(-16,435,o),
(-14,436,q),
(49,493,ls),
(59,502,o),
(70,502,qs),
(99,502,ls),
(109,502,o),
(119,493,qs),
(182,436,l),
(184,435,o),
(182,431,o),
(179,431,qs),
(146,431,ls),
(132,431,o),
(121,440,q),
(85,475,l),
(47,440,ls)
);
}
);
userData = {
assembly = "NPUSHB[ ]	/* 37 values pushed */
11 3 2 0 1 1 76 0 3 2 3 133 4 1 2 1 2 133 0 1 1 42 77 0 0 0 40 0 78 38 53 38 53 16 5 9 27 
CALL[ ]	/* CallFunction */";
};
width = 170;
}
);
note = icircumflex;
unicode = 238;
},
{
glyphname = idieresis;
kernLeft = i;
kernRight = i;
layers = (
{
layerId = m01;
shapes = (
{
closed = 1;
nodes = (
(61,6,qs),
(61,354,ls),
(61,360,o),
(66,360,qs),
(70,360,ls),
(88,360,o),
(110,332,o),
(110,308,qs),
(110,6,ls),
(110,0,o),
(105,0,qs),
(66,0,ls),
(61,0,o)
);
},
{
closed = 1;
nodes = (
(15,492,o),
(29,492,qs),
(43,492,o),
(63,472,o),
(63,458,qs),
(63,445,o),
(43,426,o),
(29,426,qs),
(15,426,o),
(-4,445,o),
(-4,458,qs),
(-4,472,o)
);
},
{
closed = 1;
nodes = (
(127,492,o),
(141,492,qs),
(155,492,o),
(175,472,o),
(175,458,qs),
(175,445,o),
(155,426,o),
(141,426,qs),
(127,426,o),
(108,445,o),
(108,458,qs),
(108,472,o)
);
}
);
userData = {
assembly = "NPUSHB[ ]	/* 37 values pushed */
11 3 2 0 1 1 76 5 1 3 4 1 2 1 3 2 105 0 1 1 42 77 0 0 0 40 0 78 36 36 36 38 53 16 6 9 28 
CALL[ ]	/* CallFunction */";
};
width = 170;
}
);
note = idieresis;
unicode = 239;
},
{
glyphname = eth;
layers = (
{
layerId = m01;
shapes = (
{
closed = 1;
nodes = (
(128,413,ls),
(124,411,o),
(121,416,qs),
(103,442,ls),
(99,447,o),
(105,449,q),
(170,483,l),
(122,549,l),
(119,556,o),
(126,556,qs),
(145,556,ls),
(177,556,o),
(202,523,qs),
(214,506,l),
(270,534,ls),
(275,537,o),
(276,532,q),
(294,507,ls),
(298,501,o),
(293,498,qs),
(240,469,l),
(360,302,ls),
(399,249,o),
(399,176,qs),
(399,99,o),
(356,49,qs),
(306,-9,o),
(221,-9,qs),
(147,-9,o),
(99,35,qs),
(44,85,o),
(44,175,qs),
(44,252,o),
(87,303,qs),
(136,361,o),
(220,361,qs),
(243,361,o),
(261,357,q),
(196,448,l)
);
},
{
closed = 1;
nodes = (
(308,70,qs),
(348,107,o),
(348,175,qs),
(348,233,o),
(316,271,qs),
(280,314,o),
(220,314,qs),
(166,314,o),
(133,281,qs),
(94,243,o),
(94,176,qs),
(94,117,o),
(124,80,qs),
(158,37,o),
(220,37,qs),
(274,37,o)
);
}
);
userData = {
assembly = "NPUSHB[ ]	/* 51 values pushed */
38 31 24 23 17 5 0 2 1 76 0 2 2 39 77 0 4 4 0 97 0 0 0 42 77 5 1 3 3 1 97 0 1 1 49 1 78 40 39 48 46 39 54 40 54 63 38 33 6 9 25 
CALL[ ]	/* CallFunction */";
};
width = 443;
}
);
note = eth;
unicode = 240;
},
{
glyphname = ntilde;
kernLeft = n;
kernRight = n;
layers = (
{
layerId = m01;
shapes = (
{
closed = 1;
nodes = (
(231,367,qs),
(295,367,o),
(335,329,qs),
(380,286,o),
(380,214,qs),
(380,6,ls),
(380,0,o),
(375,0,qs),
(335,0,ls),
(330,0,o),
(330,6,qs),
(330,200,ls),
(330,257,o),
(273,320,o),
(222,320,qs),
(109,320,o),
(109,193,qs),
(109,6,ls),
(109,0,o),
(104,0,qs),
(64,0,ls),
(59,0,o),
(59,6,qs),
(59,354,ls),
(59,360,o),
(64,360,qs),
(69,360,ls),
(87,360,o),
(110,331,o),
(110,307,q),
(147,367,o)
);
},
{
closed = 1;
nodes = (
(120,436,qs),
(124,495,o),
(170,495,qs),
(188,495,o),
(220,480,qs),
(247,468,o),
(256,468,qs),
(270,468,o),
(276,483,q),
(278,491,o),
(285,491,qs),
(311,491,ls),
(317,491,o),
(317,485,qs),
(315,459,o),
(284,428,o),
(260,428,qs),
(243,428,o),
(211,443,qs),
(186,455,o),
(176,455,qs),
(162,455,o),
(160,438,q),
(158,431,o),
(152,431,qs),
(126,431,ls),
(120,431,o)
);
}
);
userData = {
assembly = "NPUSHB[ ]	/* 18 values pushed */
43 1 9 8 56 1 5 6 24 19 12 7 0 5 1 2 3 76 
MPPEM[ ]	/* MeasurePixelPerEm */
PUSHB[ ]	/* 1 value pushed */
27 
LT[ ]	/* LessThan */
IF[ ]	/* If */
NPUSHB[ ]	/* 36 values pushed */
10 1 8 0 6 5 8 6 105 0 9 7 1 5 0 9 5 106 0 2 2 0 97 4 1 0 0 42 77 3 1 1 1 40 1 78 
ELSE[ ]	/* Else */
MPPEM[ ]	/* MeasurePixelPerEm */
PUSHB[ ]	/* 1 value pushed */
45 
LT[ ]	/* LessThan */
IF[ ]	/* If */
NPUSHB[ ]	/* 40 values pushed */
10 1 8 0 6 5 8 6 105 0 9 7 1 5 4 9 5 106 0 0 0 42 77 0 2 2 4 97 0 4 4 48 77 3 1 1 1 40 1 78 
ELSE[ ]	/* Else */
NPUSHB[ ]	/* 47 values pushed */
0 8 10 9 10 8 9 128 0 10 0 6 5 10 6 105 0 9 7 1 5 4 9 5 106 0 0 0 42 77 0 2 2 4 97 0 4 4 48 77 3 1 1 1 40 1 78 
EIF[ ]	/* EndIf */
EIF[ ]	/* EndIf */
NPUSHB[ ]	/* 16 values pushed */
55 53 51 49 36 34 35 17 38 21 36 20 50 11 9 31 
CALL[ ]	/* CallFunction */";
};
width = 439;
}
);
note = ntilde;
unicode = 241;
},
{
glyphname = ograve;
kernLeft = o;
kernRight = o;
layers = (
{
layerId = m01;
shapes = (
{
closed = 1;
nodes = (
(99,35,qs),
(44,87,o),
(44,178,qs),
(44,257,o),
(87,308,qs),
(136,367,o),
(220,367,qs),
(295,367,o),
(343,321,qs),
(398,269,o),
(398,179,qs),
(398,100,o),
(356,50,qs),
(307,-9,o),
(221,-9,qs),
(147,-9,o)
);
},
{
closed = 1;
nodes = (
(308,71,qs),
(348,109,o),
(348,178,qs),
(348,237,o),
(316,276,qs),
(280,320,o),
(220,320,qs),
(167,320,o),
(133,286,qs),
(95,247,o),
(95,179,qs),
(95,120,o),
(124,82,qs),
(159,38,o),
(220,38,qs),
(274,38,o)
);
},
{
closed = 1;
nodes = (
(152,502,o),
(155,502,qs),
(205,502,ls),
(216,502,o),
(226,493,qs),
(288,436,l),
(291,435,o),
(288,431,o),
(286,431,qs),
(248,431,ls),
(237,431,o),
(224,440,qs),
(152,496,ls),
(150,498,o)
);
}
);
userData = {
assembly = "NPUSHB[ ]	/* 56 values pushed */
0 5 4 5 133 0 4 1 4 133 0 3 3 1 97 0 1 1 48 77 7 1 2 2 0 97 6 1 0 0 49 0 78 17 16 1 0 43 41 36 34 25 23 16 31 17 31 9 7 0 15 1 15 8 9 22 
CALL[ ]	/* CallFunction */";
};
width = 443;
}
);
note = ograve;
unicode = 242;
},
{
glyphname = oacute;
kernLeft = o;
kernRight = o;
layers = (
{
layerId = m01;
shapes = (
{
closed = 1;
nodes = (
(99,35,qs),
(44,87,o),
(44,178,qs),
(44,257,o),
(87,308,qs),
(136,367,o),
(220,367,qs),
(295,367,o),
(343,321,qs),
(398,269,o),
(398,179,qs),
(398,100,o),
(356,50,qs),
(307,-9,o),
(221,-9,qs),
(147,-9,o)
);
},
{
closed = 1;
nodes = (
(308,71,qs),
(348,109,o),
(348,178,qs),
(348,237,o),
(316,276,qs),
(280,320,o),
(220,320,qs),
(167,320,o),
(133,286,qs),
(95,247,o),
(95,179,qs),
(95,120,o),
(124,82,qs),
(159,38,o),
(220,38,qs),
(274,38,o)
);
},
{
closed = 1;
nodes = (
(226,502,o),
(236,502,qs),
(286,502,ls),
(288,502,o),
(291,498,o),
(289,496,qs),
(217,440,ls),
(205,431,o),
(192,431,qs),
(156,431,ls),
(153,431,o),
(152,433,q),
(150,435,o),
(153,436,q),
(215,493,ls)
);
}
);
userData = {
assembly = "NPUSHB[ ]	/* 56 values pushed */
0 5 4 5 133 0 4 1 4 133 0 3 3 1 97 0 1 1 48 77 7 1 2 2 0 97 6 1 0 0 49 0 78 17 16 1 0 45 42 38 36 25 23 16 31 17 31 9 7 0 15 1 15 8 9 22 
CALL[ ]	/* CallFunction */";
};
width = 443;
}
);
note = oacute;
unicode = 243;
},
{
glyphname = ocircumflex;
kernLeft = o;
kernRight = o;
layers = (
{
layerId = m01;
shapes = (
{
closed = 1;
nodes = (
(99,35,qs),
(44,87,o),
(44,178,qs),
(44,257,o),
(87,308,qs),
(136,367,o),
(220,367,qs),
(295,367,o),
(343,321,qs),
(398,269,o),
(398,179,qs),
(398,100,o),
(356,50,qs),
(307,-9,o),
(221,-9,qs),
(147,-9,o)
);
},
{
closed = 1;
nodes = (
(308,71,qs),
(348,109,o),
(348,178,qs),
(348,237,o),
(316,276,qs),
(280,320,o),
(220,320,qs),
(167,320,o),
(133,286,qs),
(95,247,o),
(95,179,qs),
(95,120,o),
(124,82,qs),
(159,38,o),
(220,38,qs),
(274,38,o)
);
},
{
closed = 1;
nodes = (
(173,431,o),
(158,431,qs),
(126,431,ls),
(123,431,o),
(122,433,q),
(120,435,o),
(123,436,q),
(185,493,ls),
(196,502,o),
(206,502,qs),
(235,502,ls),
(246,502,o),
(256,493,qs),
(318,436,l),
(321,435,o),
(318,431,o),
(316,431,qs),
(283,431,ls),
(269,431,o),
(258,440,qs),
(221,475,l),
(183,440,ls)
);
}
);
userData = {
assembly = "NPUSHB[ ]	/* 59 values pushed */
0 5 4 5 133 6 1 4 1 4 133 0 3 3 1 97 0 1 1 48 77 8 1 2 2 0 97 7 1 0 0 49 0 78 17 16 1 0 52 50 44 41 36 34 25 23 16 31 17 31 9 7 0 15 1 15 9 9 22 
CALL[ ]	/* CallFunction */";
};
width = 443;
}
);
note = ocircumflex;
unicode = 244;
},
{
glyphname = otilde;
kernLeft = o;
kernRight = o;
layers = (
{
layerId = m01;
shapes = (
{
closed = 1;
nodes = (
(99,35,qs),
(44,87,o),
(44,178,qs),
(44,257,o),
(87,308,qs),
(136,367,o),
(220,367,qs),
(295,367,o),
(343,321,qs),
(398,269,o),
(398,179,qs),
(398,100,o),
(356,50,qs),
(307,-9,o),
(221,-9,qs),
(147,-9,o)
);
},
{
closed = 1;
nodes = (
(308,71,qs),
(348,109,o),
(348,178,qs),
(348,237,o),
(316,276,qs),
(280,320,o),
(220,320,qs),
(167,320,o),
(133,286,qs),
(95,247,o),
(95,179,qs),
(95,120,o),
(124,82,qs),
(159,38,o),
(220,38,qs),
(274,38,o)
);
},
{
closed = 1;
nodes = (
(122,436,qs),
(126,495,o),
(172,495,qs),
(190,495,o),
(222,480,qs),
(249,468,o),
(258,468,qs),
(272,468,o),
(278,483,q),
(280,491,o),
(287,491,qs),
(313,491,ls),
(320,491,o),
(320,485,qs),
(318,459,o),
(286,428,o),
(262,428,qs),
(245,428,o),
(214,443,qs),
(188,455,o),
(178,455,qs),
(164,455,o),
(162,438,q),
(160,431,o),
(155,431,qs),
(128,431,ls),
(122,431,o)
);
}
);
userData = {
assembly = "NPUSHB[ ]	/* 10 values pushed */
44 1 8 7 57 1 4 5 2 76 
MPPEM[ ]	/* MeasurePixelPerEm */
PUSHB[ ]	/* 1 value pushed */
45 
LT[ ]	/* LessThan */
IF[ ]	/* If */
NPUSHB[ ]	/* 41 values pushed */
9 1 7 0 5 4 7 5 105 0 8 6 1 4 1 8 4 106 0 3 3 1 97 0 1 1 48 77 11 1 2 2 0 97 10 1 0 0 49 0 78 
ELSE[ ]	/* Else */
NPUSHB[ ]	/* 48 values pushed */
0 7 9 8 9 7 8 128 0 9 0 5 4 9 5 105 0 8 6 1 4 1 8 4 106 0 3 3 1 97 0 1 1 48 77 11 1 2 2 0 97 10 1 0 0 49 0 78 
EIF[ ]	/* EndIf */
NPUSHB[ ]	/* 31 values pushed */
17 16 1 0 56 54 52 50 48 46 42 40 38 36 33 32 25 23 16 31 17 31 9 7 0 15 1 15 12 9 22 
CALL[ ]	/* CallFunction */";
};
width = 443;
}
);
note = otilde;
unicode = 245;
},
{
glyphname = odieresis;
kernLeft = o;
kernRight = o;
layers = (
{
layerId = m01;
shapes = (
{
closed = 1;
nodes = (
(99,35,qs),
(44,87,o),
(44,178,qs),
(44,257,o),
(87,308,qs),
(136,367,o),
(220,367,qs),
(295,367,o),
(343,321,qs),
(398,269,o),
(398,179,qs),
(398,100,o),
(356,50,qs),
(307,-9,o),
(221,-9,qs),
(147,-9,o)
);
},
{
closed = 1;
nodes = (
(308,71,qs),
(348,109,o),
(348,178,qs),
(348,237,o),
(316,276,qs),
(280,320,o),
(220,320,qs),
(167,320,o),
(133,286,qs),
(95,247,o),
(95,179,qs),
(95,120,o),
(124,82,qs),
(159,38,o),
(220,38,qs),
(274,38,o)
);
},
{
closed = 1;
nodes = (
(151,492,o),
(165,492,qs),
(179,492,o),
(198,472,o),
(198,458,qs),
(198,445,o),
(179,426,o),
(165,426,qs),
(151,426,o),
(132,445,o),
(132,458,qs),
(132,472,o)
);
},
{
closed = 1;
nodes = (
(263,492,o),
(277,492,qs),
(291,492,o),
(311,472,o),
(311,458,qs),
(311,445,o),
(291,426,o),
(277,426,qs),
(263,426,o),
(244,445,o),
(244,458,qs),
(244,472,o)
);
}
);
userData = {
assembly = "NPUSHB[ ]	/* 60 values pushed */
7 1 5 6 1 4 1 5 4 105 0 3 3 1 97 0 1 1 48 77 9 1 2 2 0 97 8 1 0 0 49 0 78 17 16 1 0 54 52 48 46 42 40 36 34 25 23 16 31 17 31 9 7 0 15 1 15 10 9 22 
CALL[ ]	/* CallFunction */";
};
width = 443;
}
);
note = odieresis;
unicode = 246;
},
{
glyphname = divide;
layers = (
{
layerId = m01;
shapes = (
{
closed = 1;
nodes = (
(41,255,qs),
(41,289,ls),
(41,295,o),
(46,295,qs),
(305,295,ls),
(322,295,o),
(344,276,o),
(344,260,qs),
(344,255,ls),
(344,249,o),
(339,249,qs),
(46,249,ls),
(41,249,o)
);
},
{
closed = 1;
nodes = (
(179,426,o),
(192,426,qs),
(204,426,o),
(223,407,o),
(223,394,qs),
(223,382,o),
(204,364,o),
(192,364,qs),
(180,364,o),
(162,383,o),
(162,394,qs),
(162,407,o)
);
},
{
closed = 1;
nodes = (
(179,179,o),
(192,179,qs),
(204,179,o),
(223,161,o),
(223,148,qs),
(223,135,o),
(204,118,o),
(192,118,qs),
(180,118,o),
(162,136,o),
(162,148,qs),
(162,160,o)
);
}
);
userData = {
assembly = "NPUSHB[ ]	/* 49 values pushed */
11 10 3 3 0 1 1 76 0 3 0 2 1 3 2 105 0 1 0 0 5 1 0 103 0 5 4 4 5 89 0 5 5 4 97 0 4 5 4 81 36 36 36 39 37 16 6 9 28 
CALL[ ]	/* CallFunction */";
};
width = 384;
}
);
note = divide;
unicode = 247;
},
{
glyphname = oslash;
kernLeft = o;
kernRight = o;
layers = (
{
layerId = m01;
shapes = (
{
closed = 1;
nodes = (
(258,320,o),
(220,320,qs),
(166,320,o),
(133,286,qs),
(94,247,o),
(94,179,qs),
(94,105,o),
(137,68,q),
(287,301,l)
);
},
{
closed = 1;
nodes = (
(195,38,o),
(220,38,qs),
(274,38,o),
(308,71,qs),
(348,109,o),
(348,178,qs),
(348,233,o),
(320,271,q),
(176,45,l)
);
},
{
closed = 1;
nodes = (
(99,35,qs),
(44,87,o),
(44,178,qs),
(44,256,o),
(87,308,qs),
(136,367,o),
(220,367,qs),
(295,367,o),
(344,321,qs),
(399,269,o),
(399,179,qs),
(399,101,o),
(356,50,qs),
(306,-9,o),
(221,-9,qs),
(147,-9,o)
);
}
);
userData = {
assembly = "NPUSHB[ ]	/* 42 values pushed */
17 8 2 1 0 1 76 0 0 0 3 97 0 3 3 48 77 0 1 1 2 97 4 1 2 2 49 2 78 19 18 27 25 18 33 19 33 39 37 5 9 24 
CALL[ ]	/* CallFunction */";
};
width = 443;
}
);
note = oslash;
unicode = 248;
},
{
glyphname = ugrave;
kernLeft = u;
kernRight = u;
layers = (
{
layerId = m01;
shapes = (
{
closed = 1;
nodes = (
(104,28,qs),
(59,72,o),
(59,159,qs),
(59,354,ls),
(59,360,o),
(63,360,qs),
(68,360,ls),
(87,360,o),
(110,331,o),
(110,308,qs),
(110,156,ls),
(110,98,o),
(162,36,o),
(211,36,qs),
(314,36,o),
(314,153,qs),
(314,354,ls),
(314,360,o),
(319,360,qs),
(323,360,ls),
(341,360,o),
(364,331,o),
(364,308,qs),
(364,156,ls),
(364,83,o),
(328,39,qs),
(288,-10,o),
(211,-10,qs),
(143,-10,o)
);
},
{
closed = 1;
nodes = (
(129,502,o),
(131,502,qs),
(181,502,ls),
(192,502,o),
(202,493,qs),
(265,436,l),
(267,435,o),
(265,431,o),
(262,431,qs),
(225,431,ls),
(213,431,o),
(200,440,qs),
(128,496,l),
(127,498,o)
);
}
);
userData = {
assembly = "NPUSHB[ ]	/* 47 values pushed */
0 5 4 5 133 0 4 1 4 133 3 1 1 1 42 77 0 2 2 0 97 6 1 0 0 46 0 78 1 0 40 38 33 31 23 20 15 13 10 7 0 28 1 28 7 9 22 
CALL[ ]	/* CallFunction */";
};
width = 423;
}
);
note = ugrave;
unicode = 249;
},
{
glyphname = uacute;
kernLeft = u;
kernRight = u;
layers = (
{
layerId = m01;
shapes = (
{
closed = 1;
nodes = (
(104,28,qs),
(59,72,o),
(59,159,qs),
(59,354,ls),
(59,360,o),
(63,360,qs),
(68,360,ls),
(87,360,o),
(110,331,o),
(110,308,qs),
(110,156,ls),
(110,98,o),
(162,36,o),
(211,36,qs),
(314,36,o),
(314,153,qs),
(314,354,ls),
(314,360,o),
(319,360,qs),
(323,360,ls),
(341,360,o),
(364,331,o),
(364,308,qs),
(364,156,ls),
(364,83,o),
(328,39,qs),
(288,-10,o),
(211,-10,qs),
(143,-10,o)
);
},
{
closed = 1;
nodes = (
(216,502,o),
(226,502,qs),
(276,502,ls),
(278,502,o),
(281,498,o),
(279,496,qs),
(207,440,ls),
(195,431,o),
(182,431,qs),
(146,431,ls),
(143,431,o),
(142,432,qs),
(140,435,o),
(143,436,q),
(205,493,ls)
);
}
);
userData = {
assembly = "NPUSHB[ ]	/* 47 values pushed */
0 5 4 5 133 0 4 1 4 133 3 1 1 1 42 77 0 2 2 0 97 6 1 0 0 46 0 78 1 0 42 39 35 33 23 20 15 13 10 7 0 28 1 28 7 9 22 
CALL[ ]	/* CallFunction */";
};
width = 423;
}
);
note = uacute;
unicode = 250;
},
{
glyphname = ucircumflex;
kernLeft = u;
kernRight = u;
layers = (
{
layerId = m01;
shapes = (
{
closed = 1;
nodes = (
(104,28,qs),
(59,72,o),
(59,159,qs),
(59,354,ls),
(59,360,o),
(63,360,qs),
(68,360,ls),
(87,360,o),
(110,331,o),
(110,308,qs),
(110,156,ls),
(110,98,o),
(162,36,o),
(211,36,qs),
(314,36,o),
(314,153,qs),
(314,354,ls),
(314,360,o),
(319,360,qs),
(323,360,ls),
(341,360,o),
(364,331,o),
(364,308,qs),
(364,156,ls),
(364,83,o),
(328,39,qs),
(288,-10,o),
(211,-10,qs),
(143,-10,o)
);
},
{
closed = 1;
nodes = (
(157,431,o),
(142,431,qs),
(110,431,ls),
(107,431,o),
(104,435,o),
(107,436,q),
(169,493,ls),
(180,502,o),
(190,502,qs),
(219,502,ls),
(230,502,o),
(240,493,qs),
(302,436,l),
(305,435,o),
(302,431,o),
(300,431,qs),
(267,431,ls),
(253,431,o),
(242,440,qs),
(205,475,l),
(167,440,ls)
);
}
);
userData = {
assembly = "NPUSHB[ ]	/* 50 values pushed */
0 5 4 5 133 6 1 4 1 4 133 3 1 1 1 42 77 0 2 2 0 97 7 1 0 0 46 0 78 1 0 48 46 41 38 33 31 23 20 15 13 10 7 0 28 1 28 8 9 22 
CALL[ ]	/* CallFunction */";
};
width = 423;
}
);
note = ucircumflex;
unicode = 251;
},
{
glyphname = udieresis;
kernLeft = u;
kernRight = u;
layers = (
{
layerId = m01;
shapes = (
{
closed = 1;
nodes = (
(104,28,qs),
(59,72,o),
(59,159,qs),
(59,354,ls),
(59,360,o),
(63,360,qs),
(68,360,ls),
(87,360,o),
(110,331,o),
(110,308,qs),
(110,156,ls),
(110,98,o),
(162,36,o),
(211,36,qs),
(314,36,o),
(314,153,qs),
(314,354,ls),
(314,360,o),
(319,360,qs),
(323,360,ls),
(341,360,o),
(364,331,o),
(364,308,qs),
(364,156,ls),
(364,83,o),
(328,39,qs),
(288,-10,o),
(211,-10,qs),
(143,-10,o)
);
},
{
closed = 1;
nodes = (
(135,492,o),
(149,492,qs),
(163,492,o),
(183,472,o),
(183,458,qs),
(183,445,o),
(163,426,o),
(149,426,qs),
(135,426,o),
(116,445,o),
(116,458,qs),
(116,472,o)
);
},
{
closed = 1;
nodes = (
(248,492,o),
(261,492,qs),
(276,492,o),
(295,472,o),
(295,458,qs),
(295,445,o),
(275,426,o),
(261,426,qs),
(248,426,o),
(228,445,o),
(228,458,qs),
(228,472,o)
);
}
);
userData = {
assembly = "NPUSHB[ ]	/* 51 values pushed */
7 1 5 6 1 4 1 5 4 105 3 1 1 1 42 77 0 2 2 0 97 8 1 0 0 46 0 78 1 0 51 49 45 43 39 37 33 31 23 20 15 13 10 7 0 28 1 28 9 9 22 
CALL[ ]	/* CallFunction */";
};
width = 423;
}
);
note = udieresis;
unicode = 252;
},
{
glyphname = yacute;
kernLeft = y;
kernRight = y;
layers = (
{
layerId = m01;
shapes = (
{
closed = 1;
nodes = (
(16,360,o),
(22,360,qs),
(35,360,ls),
(69,360,o),
(83,320,qs),
(165,63,l),
(258,350,ls),
(261,360,o),
(273,360,qs),
(307,360,ls),
(313,360,o),
(311,354,qs),
(180,-19,ls),
(148,-110,o),
(99,-171,o),
(58,-171,qs),
(30,-171,o),
(-13,-132,o),
(-13,-106,qs),
(-13,-93,o),
(-4,-93,qs),
(0,-93,o),
(5,-98,qs),
(30,-124,o),
(55,-124,qs),
(81,-124,o),
(113,-79,o),
(140,-5,q),
(18,354,ls)
);
},
{
closed = 1;
nodes = (
(185,502,o),
(195,502,qs),
(245,502,ls),
(247,502,o),
(250,498,o),
(248,496,qs),
(176,440,ls),
(164,431,o),
(151,431,qs),
(115,431,ls),
(112,431,o),
(111,432,qs),
(109,435,o),
(112,436,q),
(174,493,ls)
);
}
);
userData = {
assembly = "NPUSHB[ ]	/* 51 values pushed */
22 1 1 3 1 76 0 6 5 6 133 0 5 3 5 133 0 1 3 0 3 1 0 128 4 1 3 3 42 77 0 0 0 2 97 0 2 2 44 2 78 52 39 36 52 35 34 34 7 9 29 
CALL[ ]	/* CallFunction */";
};
width = 341;
}
);
note = yacute;
unicode = 253;
},
{
glyphname = thorn;
layers = (
{
layerId = m01;
shapes = (
{
closed = 1;
nodes = (
(110,-160,o),
(105,-160,qs),
(65,-160,ls),
(60,-160,o),
(60,-154,qs),
(60,549,ls),
(60,556,o),
(65,556,qs),
(70,556,ls),
(88,556,o),
(110,527,o),
(110,503,qs),
(110,302,l),
(152,367,o),
(241,367,qs),
(312,367,o),
(358,321,qs),
(411,268,o),
(411,178,qs),
(411,104,o),
(371,52,qs),
(323,-9,o),
(242,-9,qs),
(150,-9,o),
(110,54,q),
(110,-154,ls)
);
},
{
closed = 1;
nodes = (
(317,68,qs),
(359,108,o),
(359,178,qs),
(359,237,o),
(330,275,qs),
(296,320,o),
(236,320,qs),
(188,320,o),
(156,294,qs),
(110,257,o),
(110,178,qs),
(110,111,o),
(148,73,qs),
(184,38,o),
(239,38,qs),
(285,38,o)
);
}
);
userData = {
assembly = "NPUSHB[ ]	/* 12 values pushed */
12 0 2 4 5 25 20 2 3 0 2 76 
MPPEM[ ]	/* MeasurePixelPerEm */
PUSHB[ ]	/* 1 value pushed */
36 
LT[ ]	/* LessThan */
IF[ ]	/* If */
NPUSHB[ ]	/* 32 values pushed */
0 2 2 39 77 0 5 5 1 97 0 1 1 48 77 6 1 4 4 0 97 0 0 0 49 77 0 3 3 44 3 78 
ELSE[ ]	/* Else */
NPUSHB[ ]	/* 32 values pushed */
0 3 0 3 134 0 2 2 39 77 0 5 5 1 97 0 1 1 48 77 6 1 4 4 0 97 0 0 0 49 0 78 
EIF[ ]	/* EndIf */
NPUSHB[ ]	/* 15 values pushed */
27 26 35 33 26 41 27 41 20 52 38 33 7 9 26 
CALL[ ]	/* CallFunction */";
};
width = 454;
}
);
note = thorn;
unicode = 254;
},
{
glyphname = ydieresis;
kernLeft = y;
kernRight = y;
layers = (
{
layerId = m01;
shapes = (
{
closed = 1;
nodes = (
(16,360,o),
(22,360,qs),
(35,360,ls),
(69,360,o),
(83,320,qs),
(165,63,l),
(258,350,ls),
(261,360,o),
(273,360,qs),
(307,360,ls),
(313,360,o),
(311,354,qs),
(180,-19,ls),
(148,-110,o),
(99,-171,o),
(58,-171,qs),
(30,-171,o),
(-13,-132,o),
(-13,-106,qs),
(-13,-93,o),
(-4,-93,qs),
(0,-93,o),
(5,-98,qs),
(30,-124,o),
(55,-124,qs),
(81,-124,o),
(113,-79,o),
(140,-5,q),
(18,354,ls)
);
},
{
closed = 1;
nodes = (
(101,492,o),
(115,492,qs),
(129,492,o),
(149,472,o),
(149,458,qs),
(149,445,o),
(129,426,o),
(115,426,qs),
(101,426,o),
(82,445,o),
(82,458,qs),
(82,472,o)
);
},
{
closed = 1;
nodes = (
(213,492,o),
(227,492,qs),
(241,492,o),
(261,472,o),
(261,458,qs),
(261,445,o),
(241,426,o),
(227,426,qs),
(213,426,o),
(194,445,o),
(194,458,qs),
(194,472,o)
);
}
);
userData = {
assembly = "NPUSHB[ ]	/* 53 values pushed */
22 1 1 3 1 76 0 1 3 0 3 1 0 128 8 1 6 7 1 5 3 6 5 105 4 1 3 3 42 77 0 0 0 2 97 0 2 2 44 2 78 36 36 36 37 36 52 35 34 34 9 9 31 
CALL[ ]	/* CallFunction */";
};
width = 341;
}
);
note = ydieresis;
unicode = 255;
},
{
glyphname = dotlessi;
kernLeft = r;
kernRight = i;
layers = (
{
layerId = m01;
shapes = (
{
closed = 1;
nodes = (
(60,6,qs),
(60,354,ls),
(60,360,o),
(65,360,qs),
(69,360,ls),
(87,360,o),
(109,332,o),
(109,308,qs),
(109,6,ls),
(109,0,o),
(104,0,qs),
(65,0,ls),
(60,0,o)
);
}
);
userData = {
assembly = "NPUSHB[ ]	/* 23 values pushed */
11 3 2 0 1 1 76 0 1 1 42 77 0 0 0 40 0 78 53 16 2 9 24 
CALL[ ]	/* CallFunction */";
};
width = 170;
}
);
note = dotlessi;
unicode = 305;
},
{
glyphname = Lslash;
layers = (
{
layerId = m01;
shapes = (
{
closed = 1;
nodes = (
(344,47,o),
(344,18,qs),
(344,7,ls),
(344,0,o),
(336,0,qs),
(81,0,ls),
(76,0,o),
(76,6,qs),
(76,214,l),
(26,187,ls),
(20,184,o),
(20,190,qs),
(20,228,ls),
(20,235,o),
(25,237,qs),
(76,264,l),
(76,549,ls),
(76,556,o),
(81,556,qs),
(86,556,ls),
(104,556,o),
(126,527,o),
(126,503,qs),
(126,291,l),
(280,374,l),
(286,376,o),
(286,371,qs),
(286,333,ls),
(286,326,o),
(281,324,qs),
(126,241,l),
(126,47,l),
(314,47,ls)
);
}
);
userData = {
assembly = "NPUSHB[ ]	/* 44 values pushed */
23 22 20 16 8 5 1 7 2 0 24 1 1 2 2 76 0 0 0 39 77 3 1 2 2 1 95 0 1 1 40 1 78 0 0 0 32 0 31 44 59 4 9 24 
CALL[ ]	/* CallFunction */";
};
width = 364;
}
);
note = Lslash;
unicode = 321;
},
{
glyphname = lslash;
layers = (
{
layerId = m01;
shapes = (
{
closed = 1;
nodes = (
(20,184,o),
(20,190,qs),
(20,228,ls),
(20,235,o),
(25,237,qs),
(72,262,l),
(72,549,ls),
(72,556,o),
(77,556,qs),
(82,556,ls),
(100,556,o),
(122,527,o),
(122,503,qs),
(122,289,l),
(188,324,ls),
(194,327,o),
(194,321,qs),
(194,283,ls),
(194,276,o),
(189,275,q),
(122,239,l),
(122,92,ls),
(122,41,o),
(162,41,qs),
(191,41,o),
(214,71,qs),
(218,77,o),
(222,77,qs),
(230,77,o),
(230,64,qs),
(230,34,o),
(184,-9,o),
(153,-9,qs),
(72,-9,o),
(72,90,qs),
(72,212,l),
(26,187,ls)
);
}
);
userData = {
assembly = "NPUSHB[ ]	/* 45 values pushed */
36 34 30 22 21 19 18 15 0 9 1 3 1 76 0 1 3 2 3 1 2 128 0 3 3 39 77 0 2 2 0 97 0 0 0 49 0 78 60 35 19 34 4 9 26 
CALL[ ]	/* CallFunction */";
};
width = 232;
}
);
note = lslash;
unicode = 322;
},
{
glyphname = OE;
kernLeft = O;
kernRight = E;
layers = (
{
layerId = m01;
shapes = (
{
closed = 1;
nodes = (
(788,47,o),
(788,18,qs),
(788,7,ls),
(788,0,o),
(780,0,qs),
(493,0,ls),
(488,0,o),
(488,6,qs),
(488,89,l),
(427,-10,o),
(298,-10,qs),
(192,-10,o),
(128,57,qs),
(57,134,o),
(57,277,qs),
(57,401,o),
(113,478,qs),
(177,567,o),
(298,567,qs),
(427,567,o),
(488,466,q),
(488,549,ls),
(488,556,o),
(493,556,qs),
(748,556,ls),
(778,556,o),
(778,527,qs),
(778,516,ls),
(778,508,o),
(770,508,qs),
(539,508,l),
(539,298,l),
(730,298,ls),
(760,298,o),
(760,270,qs),
(760,259,ls),
(760,252,o),
(752,252,qs),
(539,252,l),
(539,47,l),
(758,47,ls)
);
},
{
closed = 1;
nodes = (
(420,79,qs),
(488,138,o),
(488,277,qs),
(488,399,o),
(434,462,qs),
(384,519,o),
(298,519,qs),
(223,519,o),
(175,476,qs),
(106,415,o),
(106,277,qs),
(106,155,o),
(161,93,qs),
(210,37,o),
(298,37,qs),
(373,37,o)
);
}
);
userData = {
assembly = "NPUSHB[ ]	/* 18 values pushed */
18 1 9 3 19 1 1 2 31 1 7 0 32 1 6 8 4 76 
MPPEM[ ]	/* MeasurePixelPerEm */
PUSHB[ ]	/* 1 value pushed */
36 
LT[ ]	/* LessThan */
IF[ ]	/* If */
NPUSHB[ ]	/* 51 values pushed */
0 1 0 0 7 1 0 103 0 9 9 4 97 0 4 4 39 77 0 2 2 3 95 0 3 3 39 77 10 1 7 7 6 95 0 6 6 40 77 11 1 8 8 5 97 0 5 5 46 5 78 
ELSE[ ]	/* Else */
NPUSHB[ ]	/* 49 values pushed */
0 4 0 9 2 4 9 105 0 1 0 0 7 1 0 103 0 2 2 3 95 0 3 3 39 77 10 1 7 7 6 95 0 6 6 40 77 11 1 8 8 5 97 0 5 5 46 5 78 
EIF[ ]	/* EndIf */
NPUSHB[ ]	/* 24 values pushed */
42 41 0 0 50 48 41 56 42 56 0 40 0 39 36 38 36 35 33 35 33 12 9 29 
CALL[ ]	/* CallFunction */";
};
width = 821;
}
);
note = OE;
unicode = 338;
},
{
glyphname = oe;
kernLeft = o;
kernRight = e;
layers = (
{
layerId = m01;
shapes = (
{
closed = 1;
nodes = (
(221,-9,qs),
(147,-9,o),
(99,35,qs),
(44,87,o),
(44,178,qs),
(44,256,o),
(87,308,qs),
(136,367,o),
(220,367,qs),
(329,367,o),
(373,279,q),
(393,320,o),
(466,367,o),
(511,367,qs),
(586,367,o),
(627,322,qs),
(667,277,o),
(667,201,qs),
(667,179,o),
(667,171,q),
(665,160,o),
(653,160,qs),
(398,160,l),
(402,102,o),
(435,70,qs),
(469,37,o),
(528,37,qs),
(598,37,o),
(643,83,q),
(649,92,o),
(655,92,qs),
(662,92,o),
(662,79,qs),
(662,47,o),
(629,22,qs),
(587,-9,o),
(525,-9,qs),
(474,-9,o),
(394,37,o),
(373,78,q),
(326,-9,o)
);
},
{
closed = 1;
nodes = (
(308,71,qs),
(348,109,o),
(348,178,qs),
(348,237,o),
(316,276,qs),
(280,320,o),
(220,320,qs),
(166,320,o),
(133,286,qs),
(94,247,o),
(94,179,qs),
(94,119,o),
(124,82,qs),
(158,38,o),
(220,38,qs),
(274,38,o)
);
},
{
closed = 1;
nodes = (
(619,321,o),
(510,321,qs),
(463,321,o),
(405,259,o),
(398,203,q),
(618,203,l)
);
}
);
userData = {
assembly = "NPUSHB[ ]	/* 79 values pushed */
29 1 10 8 20 1 3 10 2 76 0 1 3 2 3 1 2 128 12 1 10 0 3 1 10 3 103 9 1 8 8 4 97 5 1 4 4 48 77 11 7 2 2 2 0 97 6 1 0 0 49 0 78 57 57 42 41 57 62 57 62 61 59 50 48 41 56 42 56 38 35 38 35 35 20 34 13 9 29 
CALL[ ]	/* CallFunction */";
};
width = 708;
}
);
note = oe;
unicode = 339;
},
{
glyphname = Scaron;
kernLeft = S;
kernRight = S;
layers = (
{
layerId = m01;
shapes = (
{
closed = 1;
nodes = (
(36,127,qs),
(44,127,o),
(51,117,qs),
(113,36,o),
(206,36,qs),
(269,36,o),
(308,62,qs),
(353,92,o),
(353,146,qs),
(353,184,o),
(320,211,qs),
(296,230,o),
(243,250,qs),
(140,288,o),
(121,298,qs),
(40,342,o),
(40,421,qs),
(40,480,o),
(83,520,qs),
(134,567,o),
(220,567,qs),
(293,567,o),
(357,536,qs),
(398,516,o),
(392,490,qs),
(388,473,ls),
(386,465,o),
(381,465,qs),
(377,465,o),
(371,469,qs),
(368,471,ls),
(300,520,o),
(216,520,qs),
(159,520,o),
(91,467,o),
(91,423,qs),
(91,385,o),
(123,358,qs),
(150,336,o),
(231,307,qs),
(317,277,o),
(349,255,qs),
(403,217,o),
(403,155,qs),
(403,85,o),
(359,41,qs),
(306,-11,o),
(210,-11,qs),
(127,-11,o),
(74,28,qs),
(24,66,o),
(24,108,qs),
(24,127,o)
);
},
{
closed = 1;
nodes = (
(265,691,o),
(280,691,qs),
(312,691,ls),
(315,691,o),
(317,686,o),
(315,685,q),
(252,628,ls),
(243,619,o),
(232,619,qs),
(203,619,ls),
(192,619,o),
(182,628,qs),
(120,685,l),
(117,686,o),
(118,688,qs),
(119,691,o),
(122,691,qs),
(155,691,ls),
(169,691,o),
(180,681,qs),
(218,646,l),
(255,681,ls)
);
}
);
userData = {
assembly = "PUSHB[ ]	/* 6 values pushed */
59 1 7 6 1 76 
MPPEM[ ]	/* MeasurePixelPerEm */
PUSHB[ ]	/* 1 value pushed */
36 
LT[ ]	/* LessThan */
IF[ ]	/* If */
NPUSHB[ ]	/* 47 values pushed */
8 1 6 7 6 133 0 7 3 7 133 0 2 1 5 1 2 5 128 0 5 4 1 5 4 126 0 1 1 3 97 0 3 3 39 77 0 4 4 0 97 0 0 0 46 0 78 
ELSE[ ]	/* Else */
NPUSHB[ ]	/* 45 values pushed */
8 1 6 7 6 133 0 7 3 7 133 0 2 1 5 1 2 5 128 0 5 4 1 5 4 126 0 3 0 1 2 3 1 106 0 4 4 0 97 0 0 0 46 0 78 
EIF[ ]	/* EndIf */
NPUSHB[ ]	/* 12 values pushed */
37 54 35 34 46 37 35 45 35 9 9 31 
CALL[ ]	/* CallFunction */";
};
width = 437;
}
);
note = Scaron;
unicode = 352;
},
{
glyphname = scaron;
kernLeft = s;
layers = (
{
layerId = m01;
shapes = (
{
closed = 1;
nodes = (
(147,36,qs),
(233,36,o),
(233,94,qs),
(233,128,o),
(162,156,qs),
(100,180,o),
(84,189,qs),
(32,219,o),
(32,267,qs),
(32,306,o),
(61,334,qs),
(97,367,o),
(156,367,qs),
(207,367,o),
(246,349,qs),
(273,336,o),
(266,312,qs),
(262,297,ls),
(261,291,o),
(257,291,qs),
(255,291,o),
(252,293,qs),
(204,320,o),
(156,320,qs),
(121,320,o),
(82,294,o),
(82,271,qs),
(82,239,o),
(153,212,qs),
(213,189,o),
(231,178,qs),
(283,148,o),
(283,99,qs),
(283,52,o),
(252,23,qs),
(216,-11,o),
(149,-11,qs),
(100,-11,o),
(25,40,o),
(25,73,qs),
(25,88,o),
(35,88,qs),
(40,88,o),
(44,82,q),
(83,36,o)
);
},
{
closed = 1;
nodes = (
(202,502,o),
(217,502,qs),
(249,502,ls),
(252,502,o),
(254,497,o),
(252,496,q),
(189,439,ls),
(180,431,o),
(169,431,qs),
(140,431,ls),
(129,431,o),
(119,439,qs),
(57,496,l),
(54,497,o),
(56,502,o),
(59,502,qs),
(92,502,ls),
(107,502,o),
(117,492,qs),
(155,457,l),
(192,492,ls)
);
}
);
userData = {
assembly = "NPUSHB[ ]	/* 57 values pushed */
24 1 0 2 1 76 7 1 5 6 5 133 0 6 3 6 133 0 0 2 4 2 0 4 128 0 2 2 3 97 0 3 3 48 77 0 4 4 1 97 0 1 1 46 1 78 37 53 35 42 41 43 35 33 8 9 30 
CALL[ ]	/* CallFunction */";
};
width = 309;
}
);
note = scaron;
unicode = 353;
},
{
glyphname = Ydieresis;
kernLeft = Y;
kernRight = Y;
layers = (
{
layerId = m01;
shapes = (
{
closed = 1;
nodes = (
(4,556,o),
(13,556,qs),
(29,556,ls),
(48,556,o),
(72,537,o),
(86,513,qs),
(217,274,l),
(364,543,ls),
(370,556,o),
(381,556,qs),
(414,556,ls),
(424,556,o),
(420,547,q),
(240,219,l),
(240,6,ls),
(240,0,o),
(235,0,qs),
(195,0,ls),
(190,0,o),
(190,6,qs),
(190,219,l),
(9,548,ls)
);
},
{
closed = 1;
nodes = (
(144,681,o),
(158,681,qs),
(172,681,o),
(192,661,o),
(192,647,qs),
(192,633,o),
(172,614,o),
(158,614,qs),
(145,614,o),
(125,634,o),
(125,647,qs),
(125,661,o)
);
},
{
closed = 1;
nodes = (
(257,681,o),
(270,681,qs),
(285,681,o),
(304,661,o),
(304,647,qs),
(304,633,o),
(285,614,o),
(270,614,qs),
(257,614,o),
(238,634,o),
(238,647,qs),
(238,661,o)
);
}
);
userData = {
assembly = "NPUSHB[ ]	/* 42 values pushed */
14 7 6 1 0 5 0 1 1 76 6 1 4 5 1 3 1 4 3 105 2 1 1 1 39 77 0 0 0 40 0 78 36 36 36 36 53 53 19 7 9 29 
CALL[ ]	/* CallFunction */";
};
width = 422;
}
);
note = Ydieresis;
unicode = 376;
},
